<?xml version="1.0" encoding="utf-8" standalone="no"?>
<!DOCTYPE svg PUBLIC "-//W3C//DTD SVG 1.1//EN"
  "http://www.w3.org/Graphics/SVG/1.1/DTD/svg11.dtd">
<!-- Created with matplotlib (https://matplotlib.org/) -->
<svg height="360pt" version="1.1" viewBox="0 0 1224 360" width="1224pt" xmlns="http://www.w3.org/2000/svg" xmlns:xlink="http://www.w3.org/1999/xlink">
 <defs>
  <style type="text/css">
*{stroke-linecap:butt;stroke-linejoin:round;white-space:pre;}
  </style>
 </defs>
 <g id="figure_1">
  <g id="patch_1">
   <path d="M 0 360 
L 1224 360 
L 1224 0 
L 0 0 
z
" style="fill:#ffffff;"/>
  </g>
  <g id="axes_1">
   <g id="patch_2">
    <path d="M 153 315 
L 1101.6 315 
L 1101.6 43.2 
L 153 43.2 
z
" style="fill:#ffffff;"/>
   </g>
   <g id="PolyCollection_1">
    <path clip-path="url(#p250d5eb53b)" d="M -69.710895 302.645455 
L -69.710895 302.645455 
L -66.935521 302.645455 
L -64.160147 302.645455 
L -61.384773 302.645455 
L -58.609399 302.645455 
L -55.834025 302.645455 
L -53.058651 302.645455 
L -50.283277 302.645455 
L -47.507903 302.645455 
L -44.732529 302.645455 
L -41.957155 302.645455 
L -39.181782 302.645454 
L -36.406408 302.645454 
L -33.631034 302.645454 
L -30.85566 302.645454 
L -28.080286 302.645454 
L -25.304912 302.645454 
L -22.529538 302.645454 
L -19.754164 302.645454 
L -16.97879 302.645454 
L -14.203416 302.645453 
L -11.428042 302.645453 
L -8.652668 302.645452 
L -5.877294 302.645451 
L -3.10192 302.64545 
L -0.326546 302.645448 
L 2.448827 302.645446 
L 5.224201 302.645443 
L 7.999575 302.645438 
L 10.774949 302.645433 
L 13.550323 302.645425 
L 16.325697 302.645415 
L 19.101071 302.645401 
L 21.876445 302.645383 
L 24.651819 302.64536 
L 27.427193 302.645328 
L 30.202567 302.645287 
L 32.977941 302.645233 
L 35.753315 302.645163 
L 38.528689 302.645071 
L 41.304063 302.644951 
L 44.079437 302.644797 
L 46.85481 302.644597 
L 49.630184 302.644339 
L 52.405558 302.644008 
L 55.180932 302.643584 
L 57.956306 302.643042 
L 60.73168 302.642352 
L 63.507054 302.641475 
L 66.282428 302.640365 
L 69.057802 302.638963 
L 71.833176 302.637198 
L 74.60855 302.634983 
L 77.383924 302.63221 
L 80.159298 302.628748 
L 82.934672 302.624441 
L 85.710046 302.619096 
L 88.48542 302.612483 
L 91.260793 302.604325 
L 94.036167 302.594291 
L 96.811541 302.581986 
L 99.586915 302.566938 
L 102.362289 302.548593 
L 105.137663 302.526292 
L 107.913037 302.499262 
L 110.688411 302.466598 
L 113.463785 302.427242 
L 116.239159 302.379963 
L 119.014533 302.323335 
L 121.789907 302.255711 
L 124.565281 302.175196 
L 127.340655 302.07962 
L 130.116029 301.966504 
L 132.891402 301.833032 
L 135.666776 301.676014 
L 138.44215 301.491853 
L 141.217524 301.276508 
L 143.992898 301.025465 
L 146.768272 300.733693 
L 149.543646 300.39562 
L 152.31902 300.005096 
L 155.094394 299.555367 
L 157.869768 299.039053 
L 160.645142 298.448126 
L 163.420516 297.773902 
L 166.19589 297.007036 
L 168.971264 296.137527 
L 171.746638 295.154734 
L 174.522012 294.047405 
L 177.297385 292.803715 
L 180.072759 291.411329 
L 182.848133 289.857468 
L 185.623507 288.129 
L 188.398881 286.212545 
L 191.174255 284.094602 
L 193.949629 281.76169 
L 196.725003 279.200511 
L 199.500377 276.398126 
L 202.275751 273.342156 
L 205.051125 270.020987 
L 207.826499 266.424003 
L 210.601873 262.541817 
L 213.377247 258.366517 
L 216.152621 253.891919 
L 218.927995 249.113816 
L 221.703368 244.030226 
L 224.478742 238.641634 
L 227.254116 232.951224 
L 230.02949 226.965082 
L 232.804864 220.69239 
L 235.580238 214.145584 
L 238.355612 207.340479 
L 241.130986 200.296358 
L 243.90636 193.036015 
L 246.681734 185.585755 
L 249.457108 177.975342 
L 252.232482 170.237889 
L 255.007856 162.409701 
L 257.78323 154.530058 
L 260.558604 146.640942 
L 263.333977 138.786712 
L 266.109351 131.013726 
L 268.884725 123.369915 
L 271.660099 115.904316 
L 274.435473 108.666566 
L 277.210847 101.706363 
L 279.986221 95.072913 
L 282.761595 88.814353 
L 285.536969 82.977176 
L 288.312343 77.60566 
L 291.087717 72.741311 
L 293.863091 68.422326 
L 296.638465 64.683099 
L 299.413839 61.553764 
L 302.189213 59.059789 
L 304.964587 57.221633 
L 307.73996 56.054465 
L 310.515334 55.567957 
L 313.290708 55.766149 
L 316.066082 56.647395 
L 318.841456 58.204383 
L 321.61683 60.42424 
L 324.392204 63.288705 
L 327.167578 66.774383 
L 329.942952 70.853058 
L 332.718326 75.492081 
L 335.4937 80.654795 
L 338.269074 86.301028 
L 341.044448 92.387602 
L 343.819822 98.868889 
L 346.595196 105.697373 
L 349.37057 112.824229 
L 352.145943 120.199897 
L 354.921317 127.774647 
L 357.696691 135.499126 
L 360.472065 143.324879 
L 363.247439 151.204829 
L 366.022813 159.093726 
L 368.798187 166.948544 
L 371.573561 174.728829 
L 374.348935 182.396993 
L 377.124309 189.918554 
L 379.899683 197.262321 
L 382.675057 204.400524 
L 385.450431 211.308885 
L 388.225805 217.966646 
L 391.001179 224.356537 
L 393.776552 230.464713 
L 396.551926 236.280639 
L 399.3273 241.796945 
L 402.102674 247.009249 
L 404.878048 251.915957 
L 407.653422 256.518039 
L 410.428796 260.818795 
L 413.20417 264.823607 
L 415.979544 268.539688 
L 418.754918 271.975836 
L 421.530292 275.142177 
L 424.305666 278.049934 
L 427.08104 280.711189 
L 429.856414 283.138671 
L 432.631788 285.345548 
L 435.407162 287.345247 
L 438.182535 289.151277 
L 440.957909 290.777087 
L 443.733283 292.235926 
L 446.508657 293.540733 
L 449.284031 294.704042 
L 452.059405 295.7379 
L 454.834779 296.653804 
L 457.610153 297.462659 
L 460.385527 298.174738 
L 463.160901 298.799663 
L 465.936275 299.346397 
L 468.711649 299.823244 
L 471.487023 300.237853 
L 474.262397 300.597241 
L 477.037771 300.907809 
L 479.813145 301.175368 
L 482.588518 301.405174 
L 485.363892 301.601954 
L 488.139266 301.769945 
L 490.91464 301.912926 
L 493.690014 302.034254 
L 496.465388 302.136899 
L 499.240762 302.223478 
L 502.016136 302.296287 
L 504.79151 302.357334 
L 507.566884 302.408365 
L 510.342258 302.450899 
L 513.117632 302.486244 
L 515.893006 302.515529 
L 518.66838 302.539721 
L 521.443754 302.559647 
L 524.219127 302.57601 
L 526.994501 302.589409 
L 529.769875 302.600348 
L 532.545249 302.609252 
L 535.320623 302.616479 
L 538.095997 302.622328 
L 540.871371 302.627047 
L 543.646745 302.630844 
L 546.422119 302.633889 
L 549.197493 302.636326 
L 551.972867 302.638269 
L 554.748241 302.639814 
L 557.523615 302.641039 
L 560.298989 302.642007 
L 563.074363 302.642771 
L 565.849737 302.643371 
L 568.62511 302.643842 
L 571.400484 302.644209 
L 574.175858 302.644496 
L 576.951232 302.644719 
L 579.726606 302.644891 
L 582.50198 302.645024 
L 585.277354 302.645127 
L 588.052728 302.645206 
L 590.828102 302.645266 
L 593.603476 302.645312 
L 596.37885 302.645347 
L 599.154224 302.645374 
L 601.929598 302.645394 
L 604.704972 302.64541 
L 607.480346 302.645421 
L 610.25572 302.64543 
L 613.031093 302.645436 
L 615.806467 302.645441 
L 618.581841 302.645445 
L 621.357215 302.645447 
L 624.132589 302.645449 
L 626.907963 302.645451 
L 629.683337 302.645452 
L 632.458711 302.645452 
L 635.234085 302.645453 
L 638.009459 302.645453 
L 640.784833 302.645454 
L 643.560207 302.645454 
L 646.335581 302.645454 
L 649.110955 302.645454 
L 651.886329 302.645454 
L 654.661702 302.645454 
L 657.437076 302.645454 
L 660.21245 302.645454 
L 662.987824 302.645454 
L 665.763198 302.645455 
L 668.538572 302.645455 
L 671.313946 302.645455 
L 674.08932 302.645455 
L 676.864694 302.645455 
L 679.640068 302.645455 
L 682.415442 302.645455 
L 685.190816 302.645455 
L 687.96619 302.645455 
L 690.741564 302.645455 
L 693.516938 302.645455 
L 696.292312 302.645455 
L 699.067685 302.645455 
L 701.843059 302.645455 
L 704.618433 302.645455 
L 707.393807 302.645455 
L 710.169181 302.645455 
L 712.944555 302.645455 
L 715.719929 302.645455 
L 718.495303 302.645455 
L 721.270677 302.645455 
L 724.046051 302.645455 
L 726.821425 302.645455 
L 729.596799 302.645455 
L 732.372173 302.645455 
L 735.147547 302.645455 
L 737.922921 302.645455 
L 740.698295 302.645455 
L 743.473668 302.645455 
L 746.249042 302.645455 
L 749.024416 302.645455 
L 751.79979 302.645455 
L 754.575164 302.645455 
L 757.350538 302.645455 
L 760.125912 302.645455 
L 762.901286 302.645455 
L 765.67666 302.645455 
L 768.452034 302.645455 
L 771.227408 302.645455 
L 774.002782 302.645455 
L 776.778156 302.645455 
L 779.55353 302.645455 
L 782.328904 302.645455 
L 785.104277 302.645455 
L 787.879651 302.645455 
L 790.655025 302.645455 
L 793.430399 302.645455 
L 796.205773 302.645455 
L 798.981147 302.645455 
L 801.756521 302.645455 
L 804.531895 302.645455 
L 807.307269 302.645455 
L 810.082643 302.645455 
L 812.858017 302.645455 
L 815.633391 302.645455 
L 818.408765 302.645455 
L 821.184139 302.645455 
L 823.959513 302.645455 
L 826.734887 302.645455 
L 829.51026 302.645455 
L 832.285634 302.645455 
L 835.061008 302.645455 
L 837.836382 302.645455 
L 840.611756 302.645455 
L 843.38713 302.645455 
L 846.162504 302.645455 
L 848.937878 302.645455 
L 851.713252 302.645455 
L 854.488626 302.645455 
L 857.264 302.645455 
L 860.039374 302.645455 
L 862.814748 302.645455 
L 865.590122 302.645455 
L 868.365496 302.645455 
L 871.140869 302.645455 
L 873.916243 302.645455 
L 876.691617 302.645455 
L 879.466991 302.645455 
L 882.242365 302.645455 
L 885.017739 302.645455 
L 887.793113 302.645455 
L 890.568487 302.645455 
L 893.343861 302.645455 
L 896.119235 302.645455 
L 898.894609 302.645455 
L 901.669983 302.645455 
L 904.445357 302.645455 
L 907.220731 302.645455 
L 909.996105 302.645455 
L 912.771479 302.645455 
L 915.546852 302.645455 
L 918.322226 302.645455 
L 921.0976 302.645455 
L 923.872974 302.645455 
L 926.648348 302.645455 
L 929.423722 302.645455 
L 932.199096 302.645455 
L 934.97447 302.645455 
L 937.749844 302.645455 
L 940.525218 302.645455 
L 943.300592 302.645455 
L 946.075966 302.645455 
L 948.85134 302.645455 
L 951.626714 302.645455 
L 954.402088 302.645455 
L 957.177462 302.645455 
L 959.952835 302.645455 
L 962.728209 302.645455 
L 965.503583 302.645455 
L 968.278957 302.645455 
L 971.054331 302.645455 
L 973.829705 302.645455 
L 976.605079 302.645455 
L 979.380453 302.645455 
L 982.155827 302.645455 
L 984.931201 302.645455 
L 987.706575 302.645455 
L 990.481949 302.645455 
L 993.257323 302.645455 
L 996.032697 302.645455 
L 998.808071 302.645455 
L 1001.583444 302.645455 
L 1004.358818 302.645455 
L 1007.134192 302.645455 
L 1009.909566 302.645455 
L 1012.68494 302.645455 
L 1015.460314 302.645455 
L 1018.235688 302.645455 
L 1021.011062 302.645455 
L 1023.786436 302.645455 
L 1026.56181 302.645455 
L 1029.337184 302.645455 
L 1032.112558 302.645455 
L 1034.887932 302.645455 
L 1037.663306 302.645455 
L 1040.43868 302.645455 
L 1043.214054 302.645455 
L 1045.989427 302.645455 
L 1048.764801 302.645455 
L 1051.540175 302.645455 
L 1054.315549 302.645455 
L 1057.090923 302.645455 
L 1059.866297 302.645455 
L 1062.641671 302.645455 
L 1065.417045 302.645455 
L 1068.192419 302.645455 
L 1070.967793 302.645455 
L 1073.743167 302.645455 
L 1076.518541 302.645455 
L 1079.293915 302.645455 
L 1082.069289 302.645455 
L 1084.844663 302.645455 
L 1087.620037 302.645455 
L 1090.39541 302.645455 
L 1093.170784 302.645455 
L 1095.946158 302.645455 
L 1098.721532 302.645455 
L 1101.496906 302.645455 
L 1104.27228 302.645455 
L 1107.047654 302.645455 
L 1109.823028 302.645455 
L 1112.598402 302.645455 
L 1115.373776 302.645455 
L 1118.14915 302.645455 
L 1120.924524 302.645455 
L 1123.699898 302.645455 
L 1126.475272 302.645455 
L 1129.250646 302.645455 
L 1132.026019 302.645455 
L 1134.801393 302.645455 
L 1137.576767 302.645455 
L 1140.352141 302.645455 
L 1143.127515 302.645455 
L 1145.902889 302.645455 
L 1148.678263 302.645455 
L 1151.453637 302.645455 
L 1154.229011 302.645455 
L 1157.004385 302.645455 
L 1159.779759 302.645455 
L 1162.555133 302.645455 
L 1165.330507 302.645455 
L 1168.105881 302.645455 
L 1170.881255 302.645455 
L 1173.656629 302.645455 
L 1176.432002 302.645455 
L 1179.207376 302.645455 
L 1181.98275 302.645455 
L 1184.758124 302.645455 
L 1187.533498 302.645455 
L 1190.308872 302.645455 
L 1193.084246 302.645455 
L 1195.85962 302.645455 
L 1198.634994 302.645455 
L 1201.410368 302.645455 
L 1204.185742 302.645455 
L 1206.961116 302.645455 
L 1209.73649 302.645455 
L 1212.511864 302.645455 
L 1215.287238 302.645455 
L 1218.062612 302.645455 
L 1220.837985 302.645455 
L 1223.613359 302.645455 
L 1226.388733 302.645455 
L 1229.164107 302.645455 
L 1231.939481 302.645455 
L 1234.714855 302.645455 
L 1237.490229 302.645455 
L 1240.265603 302.645455 
L 1243.040977 302.645455 
L 1245.816351 302.645455 
L 1248.591725 302.645455 
L 1251.367099 302.645455 
L 1254.142473 302.645455 
L 1256.917847 302.645455 
L 1259.693221 302.645455 
L 1262.468594 302.645455 
L 1265.243968 302.645455 
L 1268.019342 302.645455 
L 1270.794716 302.645455 
L 1273.57009 302.645455 
L 1276.345464 302.645455 
L 1279.120838 302.645455 
L 1281.896212 302.645455 
L 1284.671586 302.645455 
L 1287.44696 302.645455 
L 1290.222334 302.645455 
L 1292.997708 302.645455 
L 1295.773082 302.645455 
L 1298.548456 302.645455 
L 1301.32383 302.645455 
L 1304.099204 302.645455 
L 1306.874577 302.645455 
L 1309.649951 302.645455 
L 1312.425325 302.645455 
L 1315.200699 302.645455 
L 1315.200699 302.645455 
L 1315.200699 302.645455 
L 1312.425325 302.645455 
L 1309.649951 302.645455 
L 1306.874577 302.645455 
L 1304.099204 302.645455 
L 1301.32383 302.645455 
L 1298.548456 302.645455 
L 1295.773082 302.645455 
L 1292.997708 302.645455 
L 1290.222334 302.645455 
L 1287.44696 302.645455 
L 1284.671586 302.645455 
L 1281.896212 302.645455 
L 1279.120838 302.645455 
L 1276.345464 302.645455 
L 1273.57009 302.645455 
L 1270.794716 302.645455 
L 1268.019342 302.645455 
L 1265.243968 302.645455 
L 1262.468594 302.645455 
L 1259.693221 302.645455 
L 1256.917847 302.645455 
L 1254.142473 302.645455 
L 1251.367099 302.645455 
L 1248.591725 302.645455 
L 1245.816351 302.645455 
L 1243.040977 302.645455 
L 1240.265603 302.645455 
L 1237.490229 302.645455 
L 1234.714855 302.645455 
L 1231.939481 302.645455 
L 1229.164107 302.645455 
L 1226.388733 302.645455 
L 1223.613359 302.645455 
L 1220.837985 302.645455 
L 1218.062612 302.645455 
L 1215.287238 302.645455 
L 1212.511864 302.645455 
L 1209.73649 302.645455 
L 1206.961116 302.645455 
L 1204.185742 302.645455 
L 1201.410368 302.645455 
L 1198.634994 302.645455 
L 1195.85962 302.645455 
L 1193.084246 302.645455 
L 1190.308872 302.645455 
L 1187.533498 302.645455 
L 1184.758124 302.645455 
L 1181.98275 302.645455 
L 1179.207376 302.645455 
L 1176.432002 302.645455 
L 1173.656629 302.645455 
L 1170.881255 302.645455 
L 1168.105881 302.645455 
L 1165.330507 302.645455 
L 1162.555133 302.645455 
L 1159.779759 302.645455 
L 1157.004385 302.645455 
L 1154.229011 302.645455 
L 1151.453637 302.645455 
L 1148.678263 302.645455 
L 1145.902889 302.645455 
L 1143.127515 302.645455 
L 1140.352141 302.645455 
L 1137.576767 302.645455 
L 1134.801393 302.645455 
L 1132.026019 302.645455 
L 1129.250646 302.645455 
L 1126.475272 302.645455 
L 1123.699898 302.645455 
L 1120.924524 302.645455 
L 1118.14915 302.645455 
L 1115.373776 302.645455 
L 1112.598402 302.645455 
L 1109.823028 302.645455 
L 1107.047654 302.645455 
L 1104.27228 302.645455 
L 1101.496906 302.645455 
L 1098.721532 302.645455 
L 1095.946158 302.645455 
L 1093.170784 302.645455 
L 1090.39541 302.645455 
L 1087.620037 302.645455 
L 1084.844663 302.645455 
L 1082.069289 302.645455 
L 1079.293915 302.645455 
L 1076.518541 302.645455 
L 1073.743167 302.645455 
L 1070.967793 302.645455 
L 1068.192419 302.645455 
L 1065.417045 302.645455 
L 1062.641671 302.645455 
L 1059.866297 302.645455 
L 1057.090923 302.645455 
L 1054.315549 302.645455 
L 1051.540175 302.645455 
L 1048.764801 302.645455 
L 1045.989427 302.645455 
L 1043.214054 302.645455 
L 1040.43868 302.645455 
L 1037.663306 302.645455 
L 1034.887932 302.645455 
L 1032.112558 302.645455 
L 1029.337184 302.645455 
L 1026.56181 302.645455 
L 1023.786436 302.645455 
L 1021.011062 302.645455 
L 1018.235688 302.645455 
L 1015.460314 302.645455 
L 1012.68494 302.645455 
L 1009.909566 302.645455 
L 1007.134192 302.645455 
L 1004.358818 302.645455 
L 1001.583444 302.645455 
L 998.808071 302.645455 
L 996.032697 302.645455 
L 993.257323 302.645455 
L 990.481949 302.645455 
L 987.706575 302.645455 
L 984.931201 302.645455 
L 982.155827 302.645455 
L 979.380453 302.645455 
L 976.605079 302.645455 
L 973.829705 302.645455 
L 971.054331 302.645455 
L 968.278957 302.645455 
L 965.503583 302.645455 
L 962.728209 302.645455 
L 959.952835 302.645455 
L 957.177462 302.645455 
L 954.402088 302.645455 
L 951.626714 302.645455 
L 948.85134 302.645455 
L 946.075966 302.645455 
L 943.300592 302.645455 
L 940.525218 302.645455 
L 937.749844 302.645455 
L 934.97447 302.645455 
L 932.199096 302.645455 
L 929.423722 302.645455 
L 926.648348 302.645455 
L 923.872974 302.645455 
L 921.0976 302.645455 
L 918.322226 302.645455 
L 915.546852 302.645455 
L 912.771479 302.645455 
L 909.996105 302.645455 
L 907.220731 302.645455 
L 904.445357 302.645455 
L 901.669983 302.645455 
L 898.894609 302.645455 
L 896.119235 302.645455 
L 893.343861 302.645455 
L 890.568487 302.645455 
L 887.793113 302.645455 
L 885.017739 302.645455 
L 882.242365 302.645455 
L 879.466991 302.645455 
L 876.691617 302.645455 
L 873.916243 302.645455 
L 871.140869 302.645455 
L 868.365496 302.645455 
L 865.590122 302.645455 
L 862.814748 302.645455 
L 860.039374 302.645455 
L 857.264 302.645455 
L 854.488626 302.645455 
L 851.713252 302.645455 
L 848.937878 302.645455 
L 846.162504 302.645455 
L 843.38713 302.645455 
L 840.611756 302.645455 
L 837.836382 302.645455 
L 835.061008 302.645455 
L 832.285634 302.645455 
L 829.51026 302.645455 
L 826.734887 302.645455 
L 823.959513 302.645455 
L 821.184139 302.645455 
L 818.408765 302.645455 
L 815.633391 302.645455 
L 812.858017 302.645455 
L 810.082643 302.645455 
L 807.307269 302.645455 
L 804.531895 302.645455 
L 801.756521 302.645455 
L 798.981147 302.645455 
L 796.205773 302.645455 
L 793.430399 302.645455 
L 790.655025 302.645455 
L 787.879651 302.645455 
L 785.104277 302.645455 
L 782.328904 302.645455 
L 779.55353 302.645455 
L 776.778156 302.645455 
L 774.002782 302.645455 
L 771.227408 302.645455 
L 768.452034 302.645455 
L 765.67666 302.645455 
L 762.901286 302.645455 
L 760.125912 302.645455 
L 757.350538 302.645455 
L 754.575164 302.645455 
L 751.79979 302.645455 
L 749.024416 302.645455 
L 746.249042 302.645455 
L 743.473668 302.645455 
L 740.698295 302.645455 
L 737.922921 302.645455 
L 735.147547 302.645455 
L 732.372173 302.645455 
L 729.596799 302.645455 
L 726.821425 302.645455 
L 724.046051 302.645455 
L 721.270677 302.645455 
L 718.495303 302.645455 
L 715.719929 302.645455 
L 712.944555 302.645455 
L 710.169181 302.645455 
L 707.393807 302.645455 
L 704.618433 302.645455 
L 701.843059 302.645455 
L 699.067685 302.645455 
L 696.292312 302.645455 
L 693.516938 302.645455 
L 690.741564 302.645455 
L 687.96619 302.645455 
L 685.190816 302.645455 
L 682.415442 302.645455 
L 679.640068 302.645455 
L 676.864694 302.645455 
L 674.08932 302.645455 
L 671.313946 302.645455 
L 668.538572 302.645455 
L 665.763198 302.645455 
L 662.987824 302.645455 
L 660.21245 302.645455 
L 657.437076 302.645455 
L 654.661702 302.645455 
L 651.886329 302.645455 
L 649.110955 302.645455 
L 646.335581 302.645455 
L 643.560207 302.645455 
L 640.784833 302.645455 
L 638.009459 302.645455 
L 635.234085 302.645455 
L 632.458711 302.645455 
L 629.683337 302.645455 
L 626.907963 302.645455 
L 624.132589 302.645455 
L 621.357215 302.645455 
L 618.581841 302.645455 
L 615.806467 302.645455 
L 613.031093 302.645455 
L 610.25572 302.645455 
L 607.480346 302.645455 
L 604.704972 302.645455 
L 601.929598 302.645455 
L 599.154224 302.645455 
L 596.37885 302.645455 
L 593.603476 302.645455 
L 590.828102 302.645455 
L 588.052728 302.645455 
L 585.277354 302.645455 
L 582.50198 302.645455 
L 579.726606 302.645455 
L 576.951232 302.645455 
L 574.175858 302.645455 
L 571.400484 302.645455 
L 568.62511 302.645455 
L 565.849737 302.645455 
L 563.074363 302.645455 
L 560.298989 302.645455 
L 557.523615 302.645455 
L 554.748241 302.645455 
L 551.972867 302.645455 
L 549.197493 302.645455 
L 546.422119 302.645455 
L 543.646745 302.645455 
L 540.871371 302.645455 
L 538.095997 302.645455 
L 535.320623 302.645455 
L 532.545249 302.645455 
L 529.769875 302.645455 
L 526.994501 302.645455 
L 524.219127 302.645455 
L 521.443754 302.645455 
L 518.66838 302.645455 
L 515.893006 302.645455 
L 513.117632 302.645455 
L 510.342258 302.645455 
L 507.566884 302.645455 
L 504.79151 302.645455 
L 502.016136 302.645455 
L 499.240762 302.645455 
L 496.465388 302.645455 
L 493.690014 302.645455 
L 490.91464 302.645455 
L 488.139266 302.645455 
L 485.363892 302.645455 
L 482.588518 302.645455 
L 479.813145 302.645455 
L 477.037771 302.645455 
L 474.262397 302.645455 
L 471.487023 302.645455 
L 468.711649 302.645455 
L 465.936275 302.645455 
L 463.160901 302.645455 
L 460.385527 302.645455 
L 457.610153 302.645455 
L 454.834779 302.645455 
L 452.059405 302.645455 
L 449.284031 302.645455 
L 446.508657 302.645455 
L 443.733283 302.645455 
L 440.957909 302.645455 
L 438.182535 302.645455 
L 435.407162 302.645455 
L 432.631788 302.645455 
L 429.856414 302.645455 
L 427.08104 302.645455 
L 424.305666 302.645455 
L 421.530292 302.645455 
L 418.754918 302.645455 
L 415.979544 302.645455 
L 413.20417 302.645455 
L 410.428796 302.645455 
L 407.653422 302.645455 
L 404.878048 302.645455 
L 402.102674 302.645455 
L 399.3273 302.645455 
L 396.551926 302.645455 
L 393.776552 302.645455 
L 391.001179 302.645455 
L 388.225805 302.645455 
L 385.450431 302.645455 
L 382.675057 302.645455 
L 379.899683 302.645455 
L 377.124309 302.645455 
L 374.348935 302.645455 
L 371.573561 302.645455 
L 368.798187 302.645455 
L 366.022813 302.645455 
L 363.247439 302.645455 
L 360.472065 302.645455 
L 357.696691 302.645455 
L 354.921317 302.645455 
L 352.145943 302.645455 
L 349.37057 302.645455 
L 346.595196 302.645455 
L 343.819822 302.645455 
L 341.044448 302.645455 
L 338.269074 302.645455 
L 335.4937 302.645455 
L 332.718326 302.645455 
L 329.942952 302.645455 
L 327.167578 302.645455 
L 324.392204 302.645455 
L 321.61683 302.645455 
L 318.841456 302.645455 
L 316.066082 302.645455 
L 313.290708 302.645455 
L 310.515334 302.645455 
L 307.73996 302.645455 
L 304.964587 302.645455 
L 302.189213 302.645455 
L 299.413839 302.645455 
L 296.638465 302.645455 
L 293.863091 302.645455 
L 291.087717 302.645455 
L 288.312343 302.645455 
L 285.536969 302.645455 
L 282.761595 302.645455 
L 279.986221 302.645455 
L 277.210847 302.645455 
L 274.435473 302.645455 
L 271.660099 302.645455 
L 268.884725 302.645455 
L 266.109351 302.645455 
L 263.333977 302.645455 
L 260.558604 302.645455 
L 257.78323 302.645455 
L 255.007856 302.645455 
L 252.232482 302.645455 
L 249.457108 302.645455 
L 246.681734 302.645455 
L 243.90636 302.645455 
L 241.130986 302.645455 
L 238.355612 302.645455 
L 235.580238 302.645455 
L 232.804864 302.645455 
L 230.02949 302.645455 
L 227.254116 302.645455 
L 224.478742 302.645455 
L 221.703368 302.645455 
L 218.927995 302.645455 
L 216.152621 302.645455 
L 213.377247 302.645455 
L 210.601873 302.645455 
L 207.826499 302.645455 
L 205.051125 302.645455 
L 202.275751 302.645455 
L 199.500377 302.645455 
L 196.725003 302.645455 
L 193.949629 302.645455 
L 191.174255 302.645455 
L 188.398881 302.645455 
L 185.623507 302.645455 
L 182.848133 302.645455 
L 180.072759 302.645455 
L 177.297385 302.645455 
L 174.522012 302.645455 
L 171.746638 302.645455 
L 168.971264 302.645455 
L 166.19589 302.645455 
L 163.420516 302.645455 
L 160.645142 302.645455 
L 157.869768 302.645455 
L 155.094394 302.645455 
L 152.31902 302.645455 
L 149.543646 302.645455 
L 146.768272 302.645455 
L 143.992898 302.645455 
L 141.217524 302.645455 
L 138.44215 302.645455 
L 135.666776 302.645455 
L 132.891402 302.645455 
L 130.116029 302.645455 
L 127.340655 302.645455 
L 124.565281 302.645455 
L 121.789907 302.645455 
L 119.014533 302.645455 
L 116.239159 302.645455 
L 113.463785 302.645455 
L 110.688411 302.645455 
L 107.913037 302.645455 
L 105.137663 302.645455 
L 102.362289 302.645455 
L 99.586915 302.645455 
L 96.811541 302.645455 
L 94.036167 302.645455 
L 91.260793 302.645455 
L 88.48542 302.645455 
L 85.710046 302.645455 
L 82.934672 302.645455 
L 80.159298 302.645455 
L 77.383924 302.645455 
L 74.60855 302.645455 
L 71.833176 302.645455 
L 69.057802 302.645455 
L 66.282428 302.645455 
L 63.507054 302.645455 
L 60.73168 302.645455 
L 57.956306 302.645455 
L 55.180932 302.645455 
L 52.405558 302.645455 
L 49.630184 302.645455 
L 46.85481 302.645455 
L 44.079437 302.645455 
L 41.304063 302.645455 
L 38.528689 302.645455 
L 35.753315 302.645455 
L 32.977941 302.645455 
L 30.202567 302.645455 
L 27.427193 302.645455 
L 24.651819 302.645455 
L 21.876445 302.645455 
L 19.101071 302.645455 
L 16.325697 302.645455 
L 13.550323 302.645455 
L 10.774949 302.645455 
L 7.999575 302.645455 
L 5.224201 302.645455 
L 2.448827 302.645455 
L -0.326546 302.645455 
L -3.10192 302.645455 
L -5.877294 302.645455 
L -8.652668 302.645455 
L -11.428042 302.645455 
L -14.203416 302.645455 
L -16.97879 302.645455 
L -19.754164 302.645455 
L -22.529538 302.645455 
L -25.304912 302.645455 
L -28.080286 302.645455 
L -30.85566 302.645455 
L -33.631034 302.645455 
L -36.406408 302.645455 
L -39.181782 302.645455 
L -41.957155 302.645455 
L -44.732529 302.645455 
L -47.507903 302.645455 
L -50.283277 302.645455 
L -53.058651 302.645455 
L -55.834025 302.645455 
L -58.609399 302.645455 
L -61.384773 302.645455 
L -64.160147 302.645455 
L -66.935521 302.645455 
L -69.710895 302.645455 
z
" style="fill:#377eb8;fill-opacity:0.1;stroke:#377eb8;stroke-opacity:0.1;"/>
   </g>
   <g id="PolyCollection_2">
    <path clip-path="url(#p250d5eb53b)" d="M -69.710895 302.645455 
L -69.710895 302.645455 
L -66.964522 302.645455 
L -64.218148 302.645455 
L -61.471775 302.645455 
L -58.725402 302.645455 
L -55.979029 302.645455 
L -53.232655 302.645455 
L -50.486282 302.645455 
L -47.739909 302.645455 
L -44.993536 302.645455 
L -42.247163 302.645455 
L -39.500789 302.645455 
L -36.754416 302.645455 
L -34.008043 302.645455 
L -31.26167 302.645455 
L -28.515296 302.645455 
L -25.768923 302.645455 
L -23.02255 302.645455 
L -20.276177 302.645455 
L -17.529804 302.645455 
L -14.78343 302.645455 
L -12.037057 302.645455 
L -9.290684 302.645455 
L -6.544311 302.645455 
L -3.797937 302.645455 
L -1.051564 302.645455 
L 1.694809 302.645455 
L 4.441182 302.645455 
L 7.187556 302.645455 
L 9.933929 302.645455 
L 12.680302 302.645455 
L 15.426675 302.645455 
L 18.173048 302.645455 
L 20.919422 302.645455 
L 23.665795 302.645455 
L 26.412168 302.645455 
L 29.158541 302.645455 
L 31.904915 302.645455 
L 34.651288 302.645455 
L 37.397661 302.645455 
L 40.144034 302.645455 
L 42.890408 302.645455 
L 45.636781 302.645455 
L 48.383154 302.645455 
L 51.129527 302.645455 
L 53.8759 302.645455 
L 56.622274 302.645455 
L 59.368647 302.645455 
L 62.11502 302.645455 
L 64.861393 302.645455 
L 67.607767 302.645455 
L 70.35414 302.645455 
L 73.100513 302.645455 
L 75.846886 302.645455 
L 78.593259 302.645455 
L 81.339633 302.645455 
L 84.086006 302.645455 
L 86.832379 302.645455 
L 89.578752 302.645455 
L 92.325126 302.645455 
L 95.071499 302.645455 
L 97.817872 302.645455 
L 100.564245 302.645455 
L 103.310619 302.645455 
L 106.056992 302.645455 
L 108.803365 302.645455 
L 111.549738 302.645455 
L 114.296111 302.645455 
L 117.042485 302.645455 
L 119.788858 302.645455 
L 122.535231 302.645455 
L 125.281604 302.645455 
L 128.027978 302.645455 
L 130.774351 302.645455 
L 133.520724 302.645455 
L 136.267097 302.645455 
L 139.01347 302.645455 
L 141.759844 302.645455 
L 144.506217 302.645455 
L 147.25259 302.645455 
L 149.998963 302.645455 
L 152.745337 302.645455 
L 155.49171 302.645455 
L 158.238083 302.645455 
L 160.984456 302.645455 
L 163.73083 302.645455 
L 166.477203 302.645455 
L 169.223576 302.645455 
L 171.969949 302.645455 
L 174.716322 302.645455 
L 177.462696 302.645455 
L 180.209069 302.645455 
L 182.955442 302.645455 
L 185.701815 302.645455 
L 188.448189 302.645455 
L 191.194562 302.645455 
L 193.940935 302.645455 
L 196.687308 302.645455 
L 199.433681 302.645455 
L 202.180055 302.645455 
L 204.926428 302.645455 
L 207.672801 302.645455 
L 210.419174 302.645455 
L 213.165548 302.645455 
L 215.911921 302.645455 
L 218.658294 302.645455 
L 221.404667 302.645455 
L 224.151041 302.645455 
L 226.897414 302.645455 
L 229.643787 302.645455 
L 232.39016 302.645455 
L 235.136533 302.645455 
L 237.882907 302.645455 
L 240.62928 302.645455 
L 243.375653 302.645455 
L 246.122026 302.645455 
L 248.8684 302.645455 
L 251.614773 302.645455 
L 254.361146 302.645455 
L 257.107519 302.645455 
L 259.853893 302.645455 
L 262.600266 302.645455 
L 265.346639 302.645455 
L 268.093012 302.645455 
L 270.839385 302.645455 
L 273.585759 302.645455 
L 276.332132 302.645455 
L 279.078505 302.645455 
L 281.824878 302.645455 
L 284.571252 302.645455 
L 287.317625 302.645455 
L 290.063998 302.645455 
L 292.810371 302.645455 
L 295.556744 302.645455 
L 298.303118 302.645455 
L 301.049491 302.645455 
L 303.795864 302.645455 
L 306.542237 302.645455 
L 309.288611 302.645455 
L 312.034984 302.645455 
L 314.781357 302.645455 
L 317.52773 302.645455 
L 320.274104 302.645455 
L 323.020477 302.645455 
L 325.76685 302.645455 
L 328.513223 302.645455 
L 331.259596 302.645455 
L 334.00597 302.645455 
L 336.752343 302.645455 
L 339.498716 302.645455 
L 342.245089 302.645455 
L 344.991463 302.645455 
L 347.737836 302.645455 
L 350.484209 302.645455 
L 353.230582 302.645455 
L 355.976955 302.645455 
L 358.723329 302.645455 
L 361.469702 302.645455 
L 364.216075 302.645455 
L 366.962448 302.645455 
L 369.708822 302.645455 
L 372.455195 302.645455 
L 375.201568 302.645455 
L 377.947941 302.645455 
L 380.694315 302.645455 
L 383.440688 302.645455 
L 386.187061 302.645455 
L 388.933434 302.645455 
L 391.679807 302.645455 
L 394.426181 302.645455 
L 397.172554 302.645455 
L 399.918927 302.645455 
L 402.6653 302.645455 
L 405.411674 302.645455 
L 408.158047 302.645455 
L 410.90442 302.645455 
L 413.650793 302.645455 
L 416.397167 302.645455 
L 419.14354 302.645455 
L 421.889913 302.645455 
L 424.636286 302.645455 
L 427.382659 302.645455 
L 430.129033 302.645455 
L 432.875406 302.645455 
L 435.621779 302.645455 
L 438.368152 302.645455 
L 441.114526 302.645455 
L 443.860899 302.645455 
L 446.607272 302.645455 
L 449.353645 302.645455 
L 452.100018 302.645455 
L 454.846392 302.645455 
L 457.592765 302.645455 
L 460.339138 302.645455 
L 463.085511 302.645455 
L 465.831885 302.645455 
L 468.578258 302.645455 
L 471.324631 302.645455 
L 474.071004 302.645455 
L 476.817378 302.645455 
L 479.563751 302.645455 
L 482.310124 302.645455 
L 485.056497 302.645455 
L 487.80287 302.645455 
L 490.549244 302.645455 
L 493.295617 302.645455 
L 496.04199 302.645455 
L 498.788363 302.645455 
L 501.534737 302.645455 
L 504.28111 302.645455 
L 507.027483 302.645455 
L 509.773856 302.645455 
L 512.520229 302.645455 
L 515.266603 302.645455 
L 518.012976 302.645455 
L 520.759349 302.645455 
L 523.505722 302.645455 
L 526.252096 302.645455 
L 528.998469 302.645455 
L 531.744842 302.645455 
L 534.491215 302.645455 
L 537.237589 302.645455 
L 539.983962 302.645455 
L 542.730335 302.645455 
L 545.476708 302.645455 
L 548.223081 302.645455 
L 550.969455 302.645455 
L 553.715828 302.645455 
L 556.462201 302.645455 
L 559.208574 302.645455 
L 561.954948 302.645455 
L 564.701321 302.645455 
L 567.447694 302.645455 
L 570.194067 302.645455 
L 572.94044 302.645455 
L 575.686814 302.645455 
L 578.433187 302.645455 
L 581.17956 302.645455 
L 583.925933 302.645455 
L 586.672307 302.645455 
L 589.41868 302.645455 
L 592.165053 302.645454 
L 594.911426 302.645454 
L 597.6578 302.645454 
L 600.404173 302.645454 
L 603.150546 302.645454 
L 605.896919 302.645454 
L 608.643292 302.645454 
L 611.389666 302.645454 
L 614.136039 302.645454 
L 616.882412 302.645453 
L 619.628785 302.645453 
L 622.375159 302.645452 
L 625.121532 302.645452 
L 627.867905 302.645451 
L 630.614278 302.645449 
L 633.360652 302.645447 
L 636.107025 302.645444 
L 638.853398 302.645441 
L 641.599771 302.645436 
L 644.346144 302.64543 
L 647.092518 302.645421 
L 649.838891 302.64541 
L 652.585264 302.645395 
L 655.331637 302.645375 
L 658.078011 302.645349 
L 660.824384 302.645315 
L 663.570757 302.64527 
L 666.31713 302.645211 
L 669.063503 302.645135 
L 671.809877 302.645036 
L 674.55625 302.644908 
L 677.302623 302.644743 
L 680.048996 302.644529 
L 682.79537 302.644256 
L 685.541743 302.643905 
L 688.288116 302.643458 
L 691.034489 302.642888 
L 693.780863 302.642165 
L 696.527236 302.641249 
L 699.273609 302.640093 
L 702.019982 302.638638 
L 704.766355 302.636811 
L 707.512729 302.634524 
L 710.259102 302.63167 
L 713.005475 302.628117 
L 715.751848 302.623709 
L 718.498222 302.618253 
L 721.244595 302.611521 
L 723.990968 302.603237 
L 726.737341 302.593074 
L 729.483714 302.58064 
L 732.230088 302.565472 
L 734.976461 302.547022 
L 737.722834 302.524645 
L 740.469207 302.497583 
L 743.215581 302.46495 
L 745.961954 302.425712 
L 748.708327 302.378671 
L 751.4547 302.322439 
L 754.201074 302.255414 
L 756.947447 302.175759 
L 759.69382 302.081371 
L 762.440193 301.969852 
L 765.186566 301.838481 
L 767.93294 301.684178 
L 770.679313 301.503477 
L 773.425686 301.292487 
L 776.172059 301.046862 
L 778.918433 300.761768 
L 781.664806 300.43185 
L 784.411179 300.051203 
L 787.157552 299.613347 
L 789.903926 299.111201 
L 792.650299 298.537068 
L 795.396672 297.88262 
L 798.143045 297.138897 
L 800.889418 296.296307 
L 803.635792 295.344641 
L 806.382165 294.273101 
L 809.128538 293.070329 
L 811.874911 291.724467 
L 814.621285 290.223216 
L 817.367658 288.553917 
L 820.114031 286.703652 
L 822.860404 284.659353 
L 825.606777 282.40794 
L 828.353151 279.936462 
L 831.099524 277.23227 
L 833.845897 274.283193 
L 836.59227 271.077738 
L 839.338644 267.605299 
L 842.085017 263.856379 
L 844.83139 259.822821 
L 847.577763 255.498043 
L 850.324137 250.877276 
L 853.07051 245.957804 
L 855.816883 240.739195 
L 858.563256 235.223518 
L 861.309629 229.415558 
L 864.056003 223.322997 
L 866.802376 216.956578 
L 869.548749 210.330242 
L 872.295122 203.461221 
L 875.041496 196.370102 
L 877.787869 189.080845 
L 880.534242 181.620756 
L 883.280615 174.020407 
L 886.026988 166.313509 
L 888.773362 158.536735 
L 891.519735 150.729486 
L 894.266108 142.933605 
L 897.012481 135.193048 
L 899.758855 127.5535 
L 902.505228 120.061953 
L 905.251601 112.766245 
L 907.997974 105.714566 
L 910.744348 98.954938 
L 913.490721 92.534682 
L 916.237094 86.499867 
L 918.983467 80.894769 
L 921.72984 75.761329 
L 924.476214 71.138633 
L 927.222587 67.062416 
L 929.96896 63.564607 
L 932.715333 60.672907 
L 935.461707 58.410427 
L 938.20808 56.795379 
L 940.954453 55.840834 
L 943.700826 55.554545 
L 946.447199 55.938841 
L 949.193573 56.990595 
L 951.939946 58.70127 
L 954.686319 61.05703 
L 957.432692 64.038928 
L 960.179066 67.623163 
L 962.925439 71.78139 
L 965.671812 76.481098 
L 968.418185 81.686031 
L 971.164559 87.356654 
L 973.910932 93.450652 
L 976.657305 99.923453 
L 979.403678 106.72877 
L 982.150051 113.819146 
L 984.896425 121.1465 
L 987.642798 128.662664 
L 990.389171 136.319892 
L 993.135544 144.071355 
L 995.881918 151.871596 
L 998.628291 159.676946 
L 1001.374664 167.445898 
L 1004.121037 175.139435 
L 1006.867411 182.721303 
L 1009.613784 190.15824 
L 1012.360157 197.420145 
L 1015.10653 204.480198 
L 1017.852903 211.314932 
L 1020.599277 217.904252 
L 1023.34565 224.231412 
L 1026.092023 230.282946 
L 1028.838396 236.048569 
L 1031.58477 241.521032 
L 1034.331143 246.695961 
L 1037.077516 251.571663 
L 1039.823889 256.148921 
L 1042.570262 260.430765 
L 1045.316636 264.422244 
L 1048.063009 268.130185 
L 1050.809382 271.562956 
L 1053.555755 274.730231 
L 1056.302129 277.642758 
L 1059.048502 280.312143 
L 1061.794875 282.750637 
L 1064.541248 284.970947 
L 1067.287622 286.986051 
L 1070.033995 288.809037 
L 1072.780368 290.452957 
L 1075.526741 291.930701 
L 1078.273114 293.254878 
L 1081.019488 294.437728 
L 1083.765861 295.491041 
L 1086.512234 296.426094 
L 1089.258607 297.253602 
L 1092.004981 297.983685 
L 1094.751354 298.625842 
L 1097.497727 299.188943 
L 1100.2441 299.681221 
L 1102.990473 300.110283 
L 1105.736847 300.48312 
L 1108.48322 300.806128 
L 1111.229593 301.085128 
L 1113.975966 301.325398 
L 1116.72234 301.531698 
L 1119.468713 301.708306 
L 1122.215086 301.859048 
L 1124.961459 301.987332 
L 1127.707833 302.096184 
L 1130.454206 302.188275 
L 1133.200579 302.265958 
L 1135.946952 302.331296 
L 1138.693325 302.38609 
L 1141.439699 302.431907 
L 1144.186072 302.470108 
L 1146.932445 302.501866 
L 1149.678818 302.528191 
L 1152.425192 302.549949 
L 1155.171565 302.567881 
L 1157.917938 302.582617 
L 1160.664311 302.594692 
L 1163.410684 302.604557 
L 1166.157058 302.612595 
L 1168.903431 302.619125 
L 1171.649804 302.624414 
L 1174.396177 302.628686 
L 1177.142551 302.632127 
L 1179.888924 302.634891 
L 1182.635297 302.637104 
L 1185.38167 302.638872 
L 1188.128044 302.640279 
L 1190.874417 302.641397 
L 1193.62079 302.642282 
L 1196.367163 302.64298 
L 1199.113536 302.64353 
L 1201.85991 302.643962 
L 1204.606283 302.6443 
L 1207.352656 302.644564 
L 1210.099029 302.644769 
L 1212.845403 302.644929 
L 1215.591776 302.645052 
L 1218.338149 302.645148 
L 1221.084522 302.645221 
L 1223.830896 302.645277 
L 1226.577269 302.64532 
L 1229.323642 302.645353 
L 1232.070015 302.645378 
L 1234.816388 302.645397 
L 1237.562762 302.645412 
L 1240.309135 302.645423 
L 1243.055508 302.645431 
L 1245.801881 302.645437 
L 1248.548255 302.645441 
L 1251.294628 302.645445 
L 1254.041001 302.645447 
L 1256.787374 302.645449 
L 1259.533747 302.645451 
L 1262.280121 302.645452 
L 1265.026494 302.645453 
L 1267.772867 302.645453 
L 1270.51924 302.645453 
L 1273.265614 302.645454 
L 1276.011987 302.645454 
L 1278.75836 302.645454 
L 1281.504733 302.645454 
L 1284.251107 302.645454 
L 1286.99748 302.645454 
L 1289.743853 302.645454 
L 1292.490226 302.645454 
L 1295.236599 302.645454 
L 1297.982973 302.645455 
L 1300.729346 302.645455 
L 1300.729346 302.645455 
L 1300.729346 302.645455 
L 1297.982973 302.645455 
L 1295.236599 302.645455 
L 1292.490226 302.645455 
L 1289.743853 302.645455 
L 1286.99748 302.645455 
L 1284.251107 302.645455 
L 1281.504733 302.645455 
L 1278.75836 302.645455 
L 1276.011987 302.645455 
L 1273.265614 302.645455 
L 1270.51924 302.645455 
L 1267.772867 302.645455 
L 1265.026494 302.645455 
L 1262.280121 302.645455 
L 1259.533747 302.645455 
L 1256.787374 302.645455 
L 1254.041001 302.645455 
L 1251.294628 302.645455 
L 1248.548255 302.645455 
L 1245.801881 302.645455 
L 1243.055508 302.645455 
L 1240.309135 302.645455 
L 1237.562762 302.645455 
L 1234.816388 302.645455 
L 1232.070015 302.645455 
L 1229.323642 302.645455 
L 1226.577269 302.645455 
L 1223.830896 302.645455 
L 1221.084522 302.645455 
L 1218.338149 302.645455 
L 1215.591776 302.645455 
L 1212.845403 302.645455 
L 1210.099029 302.645455 
L 1207.352656 302.645455 
L 1204.606283 302.645455 
L 1201.85991 302.645455 
L 1199.113536 302.645455 
L 1196.367163 302.645455 
L 1193.62079 302.645455 
L 1190.874417 302.645455 
L 1188.128044 302.645455 
L 1185.38167 302.645455 
L 1182.635297 302.645455 
L 1179.888924 302.645455 
L 1177.142551 302.645455 
L 1174.396177 302.645455 
L 1171.649804 302.645455 
L 1168.903431 302.645455 
L 1166.157058 302.645455 
L 1163.410684 302.645455 
L 1160.664311 302.645455 
L 1157.917938 302.645455 
L 1155.171565 302.645455 
L 1152.425192 302.645455 
L 1149.678818 302.645455 
L 1146.932445 302.645455 
L 1144.186072 302.645455 
L 1141.439699 302.645455 
L 1138.693325 302.645455 
L 1135.946952 302.645455 
L 1133.200579 302.645455 
L 1130.454206 302.645455 
L 1127.707833 302.645455 
L 1124.961459 302.645455 
L 1122.215086 302.645455 
L 1119.468713 302.645455 
L 1116.72234 302.645455 
L 1113.975966 302.645455 
L 1111.229593 302.645455 
L 1108.48322 302.645455 
L 1105.736847 302.645455 
L 1102.990473 302.645455 
L 1100.2441 302.645455 
L 1097.497727 302.645455 
L 1094.751354 302.645455 
L 1092.004981 302.645455 
L 1089.258607 302.645455 
L 1086.512234 302.645455 
L 1083.765861 302.645455 
L 1081.019488 302.645455 
L 1078.273114 302.645455 
L 1075.526741 302.645455 
L 1072.780368 302.645455 
L 1070.033995 302.645455 
L 1067.287622 302.645455 
L 1064.541248 302.645455 
L 1061.794875 302.645455 
L 1059.048502 302.645455 
L 1056.302129 302.645455 
L 1053.555755 302.645455 
L 1050.809382 302.645455 
L 1048.063009 302.645455 
L 1045.316636 302.645455 
L 1042.570262 302.645455 
L 1039.823889 302.645455 
L 1037.077516 302.645455 
L 1034.331143 302.645455 
L 1031.58477 302.645455 
L 1028.838396 302.645455 
L 1026.092023 302.645455 
L 1023.34565 302.645455 
L 1020.599277 302.645455 
L 1017.852903 302.645455 
L 1015.10653 302.645455 
L 1012.360157 302.645455 
L 1009.613784 302.645455 
L 1006.867411 302.645455 
L 1004.121037 302.645455 
L 1001.374664 302.645455 
L 998.628291 302.645455 
L 995.881918 302.645455 
L 993.135544 302.645455 
L 990.389171 302.645455 
L 987.642798 302.645455 
L 984.896425 302.645455 
L 982.150051 302.645455 
L 979.403678 302.645455 
L 976.657305 302.645455 
L 973.910932 302.645455 
L 971.164559 302.645455 
L 968.418185 302.645455 
L 965.671812 302.645455 
L 962.925439 302.645455 
L 960.179066 302.645455 
L 957.432692 302.645455 
L 954.686319 302.645455 
L 951.939946 302.645455 
L 949.193573 302.645455 
L 946.447199 302.645455 
L 943.700826 302.645455 
L 940.954453 302.645455 
L 938.20808 302.645455 
L 935.461707 302.645455 
L 932.715333 302.645455 
L 929.96896 302.645455 
L 927.222587 302.645455 
L 924.476214 302.645455 
L 921.72984 302.645455 
L 918.983467 302.645455 
L 916.237094 302.645455 
L 913.490721 302.645455 
L 910.744348 302.645455 
L 907.997974 302.645455 
L 905.251601 302.645455 
L 902.505228 302.645455 
L 899.758855 302.645455 
L 897.012481 302.645455 
L 894.266108 302.645455 
L 891.519735 302.645455 
L 888.773362 302.645455 
L 886.026988 302.645455 
L 883.280615 302.645455 
L 880.534242 302.645455 
L 877.787869 302.645455 
L 875.041496 302.645455 
L 872.295122 302.645455 
L 869.548749 302.645455 
L 866.802376 302.645455 
L 864.056003 302.645455 
L 861.309629 302.645455 
L 858.563256 302.645455 
L 855.816883 302.645455 
L 853.07051 302.645455 
L 850.324137 302.645455 
L 847.577763 302.645455 
L 844.83139 302.645455 
L 842.085017 302.645455 
L 839.338644 302.645455 
L 836.59227 302.645455 
L 833.845897 302.645455 
L 831.099524 302.645455 
L 828.353151 302.645455 
L 825.606777 302.645455 
L 822.860404 302.645455 
L 820.114031 302.645455 
L 817.367658 302.645455 
L 814.621285 302.645455 
L 811.874911 302.645455 
L 809.128538 302.645455 
L 806.382165 302.645455 
L 803.635792 302.645455 
L 800.889418 302.645455 
L 798.143045 302.645455 
L 795.396672 302.645455 
L 792.650299 302.645455 
L 789.903926 302.645455 
L 787.157552 302.645455 
L 784.411179 302.645455 
L 781.664806 302.645455 
L 778.918433 302.645455 
L 776.172059 302.645455 
L 773.425686 302.645455 
L 770.679313 302.645455 
L 767.93294 302.645455 
L 765.186566 302.645455 
L 762.440193 302.645455 
L 759.69382 302.645455 
L 756.947447 302.645455 
L 754.201074 302.645455 
L 751.4547 302.645455 
L 748.708327 302.645455 
L 745.961954 302.645455 
L 743.215581 302.645455 
L 740.469207 302.645455 
L 737.722834 302.645455 
L 734.976461 302.645455 
L 732.230088 302.645455 
L 729.483714 302.645455 
L 726.737341 302.645455 
L 723.990968 302.645455 
L 721.244595 302.645455 
L 718.498222 302.645455 
L 715.751848 302.645455 
L 713.005475 302.645455 
L 710.259102 302.645455 
L 707.512729 302.645455 
L 704.766355 302.645455 
L 702.019982 302.645455 
L 699.273609 302.645455 
L 696.527236 302.645455 
L 693.780863 302.645455 
L 691.034489 302.645455 
L 688.288116 302.645455 
L 685.541743 302.645455 
L 682.79537 302.645455 
L 680.048996 302.645455 
L 677.302623 302.645455 
L 674.55625 302.645455 
L 671.809877 302.645455 
L 669.063503 302.645455 
L 666.31713 302.645455 
L 663.570757 302.645455 
L 660.824384 302.645455 
L 658.078011 302.645455 
L 655.331637 302.645455 
L 652.585264 302.645455 
L 649.838891 302.645455 
L 647.092518 302.645455 
L 644.346144 302.645455 
L 641.599771 302.645455 
L 638.853398 302.645455 
L 636.107025 302.645455 
L 633.360652 302.645455 
L 630.614278 302.645455 
L 627.867905 302.645455 
L 625.121532 302.645455 
L 622.375159 302.645455 
L 619.628785 302.645455 
L 616.882412 302.645455 
L 614.136039 302.645455 
L 611.389666 302.645455 
L 608.643292 302.645455 
L 605.896919 302.645455 
L 603.150546 302.645455 
L 600.404173 302.645455 
L 597.6578 302.645455 
L 594.911426 302.645455 
L 592.165053 302.645455 
L 589.41868 302.645455 
L 586.672307 302.645455 
L 583.925933 302.645455 
L 581.17956 302.645455 
L 578.433187 302.645455 
L 575.686814 302.645455 
L 572.94044 302.645455 
L 570.194067 302.645455 
L 567.447694 302.645455 
L 564.701321 302.645455 
L 561.954948 302.645455 
L 559.208574 302.645455 
L 556.462201 302.645455 
L 553.715828 302.645455 
L 550.969455 302.645455 
L 548.223081 302.645455 
L 545.476708 302.645455 
L 542.730335 302.645455 
L 539.983962 302.645455 
L 537.237589 302.645455 
L 534.491215 302.645455 
L 531.744842 302.645455 
L 528.998469 302.645455 
L 526.252096 302.645455 
L 523.505722 302.645455 
L 520.759349 302.645455 
L 518.012976 302.645455 
L 515.266603 302.645455 
L 512.520229 302.645455 
L 509.773856 302.645455 
L 507.027483 302.645455 
L 504.28111 302.645455 
L 501.534737 302.645455 
L 498.788363 302.645455 
L 496.04199 302.645455 
L 493.295617 302.645455 
L 490.549244 302.645455 
L 487.80287 302.645455 
L 485.056497 302.645455 
L 482.310124 302.645455 
L 479.563751 302.645455 
L 476.817378 302.645455 
L 474.071004 302.645455 
L 471.324631 302.645455 
L 468.578258 302.645455 
L 465.831885 302.645455 
L 463.085511 302.645455 
L 460.339138 302.645455 
L 457.592765 302.645455 
L 454.846392 302.645455 
L 452.100018 302.645455 
L 449.353645 302.645455 
L 446.607272 302.645455 
L 443.860899 302.645455 
L 441.114526 302.645455 
L 438.368152 302.645455 
L 435.621779 302.645455 
L 432.875406 302.645455 
L 430.129033 302.645455 
L 427.382659 302.645455 
L 424.636286 302.645455 
L 421.889913 302.645455 
L 419.14354 302.645455 
L 416.397167 302.645455 
L 413.650793 302.645455 
L 410.90442 302.645455 
L 408.158047 302.645455 
L 405.411674 302.645455 
L 402.6653 302.645455 
L 399.918927 302.645455 
L 397.172554 302.645455 
L 394.426181 302.645455 
L 391.679807 302.645455 
L 388.933434 302.645455 
L 386.187061 302.645455 
L 383.440688 302.645455 
L 380.694315 302.645455 
L 377.947941 302.645455 
L 375.201568 302.645455 
L 372.455195 302.645455 
L 369.708822 302.645455 
L 366.962448 302.645455 
L 364.216075 302.645455 
L 361.469702 302.645455 
L 358.723329 302.645455 
L 355.976955 302.645455 
L 353.230582 302.645455 
L 350.484209 302.645455 
L 347.737836 302.645455 
L 344.991463 302.645455 
L 342.245089 302.645455 
L 339.498716 302.645455 
L 336.752343 302.645455 
L 334.00597 302.645455 
L 331.259596 302.645455 
L 328.513223 302.645455 
L 325.76685 302.645455 
L 323.020477 302.645455 
L 320.274104 302.645455 
L 317.52773 302.645455 
L 314.781357 302.645455 
L 312.034984 302.645455 
L 309.288611 302.645455 
L 306.542237 302.645455 
L 303.795864 302.645455 
L 301.049491 302.645455 
L 298.303118 302.645455 
L 295.556744 302.645455 
L 292.810371 302.645455 
L 290.063998 302.645455 
L 287.317625 302.645455 
L 284.571252 302.645455 
L 281.824878 302.645455 
L 279.078505 302.645455 
L 276.332132 302.645455 
L 273.585759 302.645455 
L 270.839385 302.645455 
L 268.093012 302.645455 
L 265.346639 302.645455 
L 262.600266 302.645455 
L 259.853893 302.645455 
L 257.107519 302.645455 
L 254.361146 302.645455 
L 251.614773 302.645455 
L 248.8684 302.645455 
L 246.122026 302.645455 
L 243.375653 302.645455 
L 240.62928 302.645455 
L 237.882907 302.645455 
L 235.136533 302.645455 
L 232.39016 302.645455 
L 229.643787 302.645455 
L 226.897414 302.645455 
L 224.151041 302.645455 
L 221.404667 302.645455 
L 218.658294 302.645455 
L 215.911921 302.645455 
L 213.165548 302.645455 
L 210.419174 302.645455 
L 207.672801 302.645455 
L 204.926428 302.645455 
L 202.180055 302.645455 
L 199.433681 302.645455 
L 196.687308 302.645455 
L 193.940935 302.645455 
L 191.194562 302.645455 
L 188.448189 302.645455 
L 185.701815 302.645455 
L 182.955442 302.645455 
L 180.209069 302.645455 
L 177.462696 302.645455 
L 174.716322 302.645455 
L 171.969949 302.645455 
L 169.223576 302.645455 
L 166.477203 302.645455 
L 163.73083 302.645455 
L 160.984456 302.645455 
L 158.238083 302.645455 
L 155.49171 302.645455 
L 152.745337 302.645455 
L 149.998963 302.645455 
L 147.25259 302.645455 
L 144.506217 302.645455 
L 141.759844 302.645455 
L 139.01347 302.645455 
L 136.267097 302.645455 
L 133.520724 302.645455 
L 130.774351 302.645455 
L 128.027978 302.645455 
L 125.281604 302.645455 
L 122.535231 302.645455 
L 119.788858 302.645455 
L 117.042485 302.645455 
L 114.296111 302.645455 
L 111.549738 302.645455 
L 108.803365 302.645455 
L 106.056992 302.645455 
L 103.310619 302.645455 
L 100.564245 302.645455 
L 97.817872 302.645455 
L 95.071499 302.645455 
L 92.325126 302.645455 
L 89.578752 302.645455 
L 86.832379 302.645455 
L 84.086006 302.645455 
L 81.339633 302.645455 
L 78.593259 302.645455 
L 75.846886 302.645455 
L 73.100513 302.645455 
L 70.35414 302.645455 
L 67.607767 302.645455 
L 64.861393 302.645455 
L 62.11502 302.645455 
L 59.368647 302.645455 
L 56.622274 302.645455 
L 53.8759 302.645455 
L 51.129527 302.645455 
L 48.383154 302.645455 
L 45.636781 302.645455 
L 42.890408 302.645455 
L 40.144034 302.645455 
L 37.397661 302.645455 
L 34.651288 302.645455 
L 31.904915 302.645455 
L 29.158541 302.645455 
L 26.412168 302.645455 
L 23.665795 302.645455 
L 20.919422 302.645455 
L 18.173048 302.645455 
L 15.426675 302.645455 
L 12.680302 302.645455 
L 9.933929 302.645455 
L 7.187556 302.645455 
L 4.441182 302.645455 
L 1.694809 302.645455 
L -1.051564 302.645455 
L -3.797937 302.645455 
L -6.544311 302.645455 
L -9.290684 302.645455 
L -12.037057 302.645455 
L -14.78343 302.645455 
L -17.529804 302.645455 
L -20.276177 302.645455 
L -23.02255 302.645455 
L -25.768923 302.645455 
L -28.515296 302.645455 
L -31.26167 302.645455 
L -34.008043 302.645455 
L -36.754416 302.645455 
L -39.500789 302.645455 
L -42.247163 302.645455 
L -44.993536 302.645455 
L -47.739909 302.645455 
L -50.486282 302.645455 
L -53.232655 302.645455 
L -55.979029 302.645455 
L -58.725402 302.645455 
L -61.471775 302.645455 
L -64.218148 302.645455 
L -66.964522 302.645455 
L -69.710895 302.645455 
z
" style="fill:#ff7f00;fill-opacity:0.1;stroke:#ff7f00;stroke-opacity:0.1;"/>
   </g>
   <g id="matplotlib.axis_1">
    <g id="xtick_1">
     <g id="line2d_1">
      <defs>
       <path d="M 0 0 
L 0 3.5 
" id="mca70d81810" style="stroke:#000000;stroke-width:0.8;"/>
      </defs>
      <g>
       <use style="stroke:#000000;stroke-width:0.8;" x="205.7" xlink:href="#mca70d81810" y="315"/>
      </g>
     </g>
     <g id="text_1">
      <!-- 4 -->
      <defs>
       <path d="M 10.59375 35.5 
L 73.1875 35.5 
L 73.1875 27.203125 
L 10.59375 27.203125 
z
" id="DejaVuSans-8722"/>
       <path d="M 37.796875 64.3125 
L 12.890625 25.390625 
L 37.796875 25.390625 
z
M 35.203125 72.90625 
L 47.609375 72.90625 
L 47.609375 25.390625 
L 58.015625 25.390625 
L 58.015625 17.1875 
L 47.609375 17.1875 
L 47.609375 0 
L 37.796875 0 
L 37.796875 17.1875 
L 4.890625 17.1875 
L 4.890625 26.703125 
z
" id="DejaVuSans-52"/>
      </defs>
      <g transform="translate(198.328906 329.598437)scale(0.1 -0.1)">
       <use xlink:href="#DejaVuSans-8722"/>
       <use x="83.789062" xlink:href="#DejaVuSans-52"/>
      </g>
     </g>
    </g>
    <g id="xtick_2">
     <g id="line2d_2">
      <g>
       <use style="stroke:#000000;stroke-width:0.8;" x="311.1" xlink:href="#mca70d81810" y="315"/>
      </g>
     </g>
     <g id="text_2">
      <!-- 3 -->
      <defs>
       <path d="M 40.578125 39.3125 
Q 47.65625 37.796875 51.625 33 
Q 55.609375 28.21875 55.609375 21.1875 
Q 55.609375 10.40625 48.1875 4.484375 
Q 40.765625 -1.421875 27.09375 -1.421875 
Q 22.515625 -1.421875 17.65625 -0.515625 
Q 12.796875 0.390625 7.625 2.203125 
L 7.625 11.71875 
Q 11.71875 9.328125 16.59375 8.109375 
Q 21.484375 6.890625 26.8125 6.890625 
Q 36.078125 6.890625 40.9375 10.546875 
Q 45.796875 14.203125 45.796875 21.1875 
Q 45.796875 27.640625 41.28125 31.265625 
Q 36.765625 34.90625 28.71875 34.90625 
L 20.21875 34.90625 
L 20.21875 43.015625 
L 29.109375 43.015625 
Q 36.375 43.015625 40.234375 45.921875 
Q 44.09375 48.828125 44.09375 54.296875 
Q 44.09375 59.90625 40.109375 62.90625 
Q 36.140625 65.921875 28.71875 65.921875 
Q 24.65625 65.921875 20.015625 65.03125 
Q 15.375 64.15625 9.8125 62.3125 
L 9.8125 71.09375 
Q 15.4375 72.65625 20.34375 73.4375 
Q 25.25 74.21875 29.59375 74.21875 
Q 40.828125 74.21875 47.359375 69.109375 
Q 53.90625 64.015625 53.90625 55.328125 
Q 53.90625 49.265625 50.4375 45.09375 
Q 46.96875 40.921875 40.578125 39.3125 
z
" id="DejaVuSans-51"/>
      </defs>
      <g transform="translate(303.728906 329.598437)scale(0.1 -0.1)">
       <use xlink:href="#DejaVuSans-8722"/>
       <use x="83.789062" xlink:href="#DejaVuSans-51"/>
      </g>
     </g>
    </g>
    <g id="xtick_3">
     <g id="line2d_3">
      <g>
       <use style="stroke:#000000;stroke-width:0.8;" x="416.5" xlink:href="#mca70d81810" y="315"/>
      </g>
     </g>
     <g id="text_3">
      <!-- 2 -->
      <defs>
       <path d="M 19.1875 8.296875 
L 53.609375 8.296875 
L 53.609375 0 
L 7.328125 0 
L 7.328125 8.296875 
Q 12.9375 14.109375 22.625 23.890625 
Q 32.328125 33.6875 34.8125 36.53125 
Q 39.546875 41.84375 41.421875 45.53125 
Q 43.3125 49.21875 43.3125 52.78125 
Q 43.3125 58.59375 39.234375 62.25 
Q 35.15625 65.921875 28.609375 65.921875 
Q 23.96875 65.921875 18.8125 64.3125 
Q 13.671875 62.703125 7.8125 59.421875 
L 7.8125 69.390625 
Q 13.765625 71.78125 18.9375 73 
Q 24.125 74.21875 28.421875 74.21875 
Q 39.75 74.21875 46.484375 68.546875 
Q 53.21875 62.890625 53.21875 53.421875 
Q 53.21875 48.921875 51.53125 44.890625 
Q 49.859375 40.875 45.40625 35.40625 
Q 44.1875 33.984375 37.640625 27.21875 
Q 31.109375 20.453125 19.1875 8.296875 
z
" id="DejaVuSans-50"/>
      </defs>
      <g transform="translate(409.128906 329.598437)scale(0.1 -0.1)">
       <use xlink:href="#DejaVuSans-8722"/>
       <use x="83.789062" xlink:href="#DejaVuSans-50"/>
      </g>
     </g>
    </g>
    <g id="xtick_4">
     <g id="line2d_4">
      <g>
       <use style="stroke:#000000;stroke-width:0.8;" x="521.9" xlink:href="#mca70d81810" y="315"/>
      </g>
     </g>
     <g id="text_4">
      <!-- 1 -->
      <defs>
       <path d="M 12.40625 8.296875 
L 28.515625 8.296875 
L 28.515625 63.921875 
L 10.984375 60.40625 
L 10.984375 69.390625 
L 28.421875 72.90625 
L 38.28125 72.90625 
L 38.28125 8.296875 
L 54.390625 8.296875 
L 54.390625 0 
L 12.40625 0 
z
" id="DejaVuSans-49"/>
      </defs>
      <g transform="translate(514.528906 329.598437)scale(0.1 -0.1)">
       <use xlink:href="#DejaVuSans-8722"/>
       <use x="83.789062" xlink:href="#DejaVuSans-49"/>
      </g>
     </g>
    </g>
    <g id="xtick_5">
     <g id="line2d_5">
      <g>
       <use style="stroke:#000000;stroke-width:0.8;" x="627.3" xlink:href="#mca70d81810" y="315"/>
      </g>
     </g>
     <g id="text_5">
      <!-- 0 -->
      <defs>
       <path d="M 31.78125 66.40625 
Q 24.171875 66.40625 20.328125 58.90625 
Q 16.5 51.421875 16.5 36.375 
Q 16.5 21.390625 20.328125 13.890625 
Q 24.171875 6.390625 31.78125 6.390625 
Q 39.453125 6.390625 43.28125 13.890625 
Q 47.125 21.390625 47.125 36.375 
Q 47.125 51.421875 43.28125 58.90625 
Q 39.453125 66.40625 31.78125 66.40625 
z
M 31.78125 74.21875 
Q 44.046875 74.21875 50.515625 64.515625 
Q 56.984375 54.828125 56.984375 36.375 
Q 56.984375 17.96875 50.515625 8.265625 
Q 44.046875 -1.421875 31.78125 -1.421875 
Q 19.53125 -1.421875 13.0625 8.265625 
Q 6.59375 17.96875 6.59375 36.375 
Q 6.59375 54.828125 13.0625 64.515625 
Q 19.53125 74.21875 31.78125 74.21875 
z
" id="DejaVuSans-48"/>
      </defs>
      <g transform="translate(624.11875 329.598437)scale(0.1 -0.1)">
       <use xlink:href="#DejaVuSans-48"/>
      </g>
     </g>
    </g>
    <g id="xtick_6">
     <g id="line2d_6">
      <g>
       <use style="stroke:#000000;stroke-width:0.8;" x="732.7" xlink:href="#mca70d81810" y="315"/>
      </g>
     </g>
     <g id="text_6">
      <!-- 1 -->
      <g transform="translate(729.51875 329.598437)scale(0.1 -0.1)">
       <use xlink:href="#DejaVuSans-49"/>
      </g>
     </g>
    </g>
    <g id="xtick_7">
     <g id="line2d_7">
      <g>
       <use style="stroke:#000000;stroke-width:0.8;" x="838.1" xlink:href="#mca70d81810" y="315"/>
      </g>
     </g>
     <g id="text_7">
      <!-- 2 -->
      <g transform="translate(834.91875 329.598437)scale(0.1 -0.1)">
       <use xlink:href="#DejaVuSans-50"/>
      </g>
     </g>
    </g>
    <g id="xtick_8">
     <g id="line2d_8">
      <g>
       <use style="stroke:#000000;stroke-width:0.8;" x="943.5" xlink:href="#mca70d81810" y="315"/>
      </g>
     </g>
     <g id="text_8">
      <!-- 3 -->
      <g transform="translate(940.31875 329.598437)scale(0.1 -0.1)">
       <use xlink:href="#DejaVuSans-51"/>
      </g>
     </g>
    </g>
    <g id="xtick_9">
     <g id="line2d_9">
      <g>
       <use style="stroke:#000000;stroke-width:0.8;" x="1048.9" xlink:href="#mca70d81810" y="315"/>
      </g>
     </g>
     <g id="text_9">
      <!-- 4 -->
      <g transform="translate(1045.71875 329.598437)scale(0.1 -0.1)">
       <use xlink:href="#DejaVuSans-52"/>
      </g>
     </g>
    </g>
   </g>
   <g id="matplotlib.axis_2">
    <g id="ytick_1">
     <g id="line2d_10">
      <defs>
       <path d="M 0 0 
L -3.5 0 
" id="m67b7ef0f22" style="stroke:#000000;stroke-width:0.8;"/>
      </defs>
      <g>
       <use style="stroke:#000000;stroke-width:0.8;" x="153" xlink:href="#m67b7ef0f22" y="302.645455"/>
      </g>
     </g>
     <g id="text_10">
      <!-- 0.0 -->
      <defs>
       <path d="M 10.6875 12.40625 
L 21 12.40625 
L 21 0 
L 10.6875 0 
z
" id="DejaVuSans-46"/>
      </defs>
      <g transform="translate(130.096875 306.444673)scale(0.1 -0.1)">
       <use xlink:href="#DejaVuSans-48"/>
       <use x="63.623047" xlink:href="#DejaVuSans-46"/>
       <use x="95.410156" xlink:href="#DejaVuSans-48"/>
      </g>
     </g>
    </g>
    <g id="ytick_2">
     <g id="line2d_11">
      <g>
       <use style="stroke:#000000;stroke-width:0.8;" x="153" xlink:href="#m67b7ef0f22" y="271.676977"/>
      </g>
     </g>
     <g id="text_11">
      <!-- 0.1 -->
      <g transform="translate(130.096875 275.476195)scale(0.1 -0.1)">
       <use xlink:href="#DejaVuSans-48"/>
       <use x="63.623047" xlink:href="#DejaVuSans-46"/>
       <use x="95.410156" xlink:href="#DejaVuSans-49"/>
      </g>
     </g>
    </g>
    <g id="ytick_3">
     <g id="line2d_12">
      <g>
       <use style="stroke:#000000;stroke-width:0.8;" x="153" xlink:href="#m67b7ef0f22" y="240.708499"/>
      </g>
     </g>
     <g id="text_12">
      <!-- 0.2 -->
      <g transform="translate(130.096875 244.507718)scale(0.1 -0.1)">
       <use xlink:href="#DejaVuSans-48"/>
       <use x="63.623047" xlink:href="#DejaVuSans-46"/>
       <use x="95.410156" xlink:href="#DejaVuSans-50"/>
      </g>
     </g>
    </g>
    <g id="ytick_4">
     <g id="line2d_13">
      <g>
       <use style="stroke:#000000;stroke-width:0.8;" x="153" xlink:href="#m67b7ef0f22" y="209.740021"/>
      </g>
     </g>
     <g id="text_13">
      <!-- 0.3 -->
      <g transform="translate(130.096875 213.53924)scale(0.1 -0.1)">
       <use xlink:href="#DejaVuSans-48"/>
       <use x="63.623047" xlink:href="#DejaVuSans-46"/>
       <use x="95.410156" xlink:href="#DejaVuSans-51"/>
      </g>
     </g>
    </g>
    <g id="ytick_5">
     <g id="line2d_14">
      <g>
       <use style="stroke:#000000;stroke-width:0.8;" x="153" xlink:href="#m67b7ef0f22" y="178.771543"/>
      </g>
     </g>
     <g id="text_14">
      <!-- 0.4 -->
      <g transform="translate(130.096875 182.570762)scale(0.1 -0.1)">
       <use xlink:href="#DejaVuSans-48"/>
       <use x="63.623047" xlink:href="#DejaVuSans-46"/>
       <use x="95.410156" xlink:href="#DejaVuSans-52"/>
      </g>
     </g>
    </g>
    <g id="ytick_6">
     <g id="line2d_15">
      <g>
       <use style="stroke:#000000;stroke-width:0.8;" x="153" xlink:href="#m67b7ef0f22" y="147.803065"/>
      </g>
     </g>
     <g id="text_15">
      <!-- 0.5 -->
      <defs>
       <path d="M 10.796875 72.90625 
L 49.515625 72.90625 
L 49.515625 64.59375 
L 19.828125 64.59375 
L 19.828125 46.734375 
Q 21.96875 47.46875 24.109375 47.828125 
Q 26.265625 48.1875 28.421875 48.1875 
Q 40.625 48.1875 47.75 41.5 
Q 54.890625 34.8125 54.890625 23.390625 
Q 54.890625 11.625 47.5625 5.09375 
Q 40.234375 -1.421875 26.90625 -1.421875 
Q 22.3125 -1.421875 17.546875 -0.640625 
Q 12.796875 0.140625 7.71875 1.703125 
L 7.71875 11.625 
Q 12.109375 9.234375 16.796875 8.0625 
Q 21.484375 6.890625 26.703125 6.890625 
Q 35.15625 6.890625 40.078125 11.328125 
Q 45.015625 15.765625 45.015625 23.390625 
Q 45.015625 31 40.078125 35.4375 
Q 35.15625 39.890625 26.703125 39.890625 
Q 22.75 39.890625 18.8125 39.015625 
Q 14.890625 38.140625 10.796875 36.28125 
z
" id="DejaVuSans-53"/>
      </defs>
      <g transform="translate(130.096875 151.602284)scale(0.1 -0.1)">
       <use xlink:href="#DejaVuSans-48"/>
       <use x="63.623047" xlink:href="#DejaVuSans-46"/>
       <use x="95.410156" xlink:href="#DejaVuSans-53"/>
      </g>
     </g>
    </g>
    <g id="ytick_7">
     <g id="line2d_16">
      <g>
       <use style="stroke:#000000;stroke-width:0.8;" x="153" xlink:href="#m67b7ef0f22" y="116.834588"/>
      </g>
     </g>
     <g id="text_16">
      <!-- 0.6 -->
      <defs>
       <path d="M 33.015625 40.375 
Q 26.375 40.375 22.484375 35.828125 
Q 18.609375 31.296875 18.609375 23.390625 
Q 18.609375 15.53125 22.484375 10.953125 
Q 26.375 6.390625 33.015625 6.390625 
Q 39.65625 6.390625 43.53125 10.953125 
Q 47.40625 15.53125 47.40625 23.390625 
Q 47.40625 31.296875 43.53125 35.828125 
Q 39.65625 40.375 33.015625 40.375 
z
M 52.59375 71.296875 
L 52.59375 62.3125 
Q 48.875 64.0625 45.09375 64.984375 
Q 41.3125 65.921875 37.59375 65.921875 
Q 27.828125 65.921875 22.671875 59.328125 
Q 17.53125 52.734375 16.796875 39.40625 
Q 19.671875 43.65625 24.015625 45.921875 
Q 28.375 48.1875 33.59375 48.1875 
Q 44.578125 48.1875 50.953125 41.515625 
Q 57.328125 34.859375 57.328125 23.390625 
Q 57.328125 12.15625 50.6875 5.359375 
Q 44.046875 -1.421875 33.015625 -1.421875 
Q 20.359375 -1.421875 13.671875 8.265625 
Q 6.984375 17.96875 6.984375 36.375 
Q 6.984375 53.65625 15.1875 63.9375 
Q 23.390625 74.21875 37.203125 74.21875 
Q 40.921875 74.21875 44.703125 73.484375 
Q 48.484375 72.75 52.59375 71.296875 
z
" id="DejaVuSans-54"/>
      </defs>
      <g transform="translate(130.096875 120.633806)scale(0.1 -0.1)">
       <use xlink:href="#DejaVuSans-48"/>
       <use x="63.623047" xlink:href="#DejaVuSans-46"/>
       <use x="95.410156" xlink:href="#DejaVuSans-54"/>
      </g>
     </g>
    </g>
    <g id="ytick_8">
     <g id="line2d_17">
      <g>
       <use style="stroke:#000000;stroke-width:0.8;" x="153" xlink:href="#m67b7ef0f22" y="85.86611"/>
      </g>
     </g>
     <g id="text_17">
      <!-- 0.7 -->
      <defs>
       <path d="M 8.203125 72.90625 
L 55.078125 72.90625 
L 55.078125 68.703125 
L 28.609375 0 
L 18.3125 0 
L 43.21875 64.59375 
L 8.203125 64.59375 
z
" id="DejaVuSans-55"/>
      </defs>
      <g transform="translate(130.096875 89.665329)scale(0.1 -0.1)">
       <use xlink:href="#DejaVuSans-48"/>
       <use x="63.623047" xlink:href="#DejaVuSans-46"/>
       <use x="95.410156" xlink:href="#DejaVuSans-55"/>
      </g>
     </g>
    </g>
    <g id="ytick_9">
     <g id="line2d_18">
      <g>
       <use style="stroke:#000000;stroke-width:0.8;" x="153" xlink:href="#m67b7ef0f22" y="54.897632"/>
      </g>
     </g>
     <g id="text_18">
      <!-- 0.8 -->
      <defs>
       <path d="M 31.78125 34.625 
Q 24.75 34.625 20.71875 30.859375 
Q 16.703125 27.09375 16.703125 20.515625 
Q 16.703125 13.921875 20.71875 10.15625 
Q 24.75 6.390625 31.78125 6.390625 
Q 38.8125 6.390625 42.859375 10.171875 
Q 46.921875 13.96875 46.921875 20.515625 
Q 46.921875 27.09375 42.890625 30.859375 
Q 38.875 34.625 31.78125 34.625 
z
M 21.921875 38.8125 
Q 15.578125 40.375 12.03125 44.71875 
Q 8.5 49.078125 8.5 55.328125 
Q 8.5 64.0625 14.71875 69.140625 
Q 20.953125 74.21875 31.78125 74.21875 
Q 42.671875 74.21875 48.875 69.140625 
Q 55.078125 64.0625 55.078125 55.328125 
Q 55.078125 49.078125 51.53125 44.71875 
Q 48 40.375 41.703125 38.8125 
Q 48.828125 37.15625 52.796875 32.3125 
Q 56.78125 27.484375 56.78125 20.515625 
Q 56.78125 9.90625 50.3125 4.234375 
Q 43.84375 -1.421875 31.78125 -1.421875 
Q 19.734375 -1.421875 13.25 4.234375 
Q 6.78125 9.90625 6.78125 20.515625 
Q 6.78125 27.484375 10.78125 32.3125 
Q 14.796875 37.15625 21.921875 38.8125 
z
M 18.3125 54.390625 
Q 18.3125 48.734375 21.84375 45.5625 
Q 25.390625 42.390625 31.78125 42.390625 
Q 38.140625 42.390625 41.71875 45.5625 
Q 45.3125 48.734375 45.3125 54.390625 
Q 45.3125 60.0625 41.71875 63.234375 
Q 38.140625 66.40625 31.78125 66.40625 
Q 25.390625 66.40625 21.84375 63.234375 
Q 18.3125 60.0625 18.3125 54.390625 
z
" id="DejaVuSans-56"/>
      </defs>
      <g transform="translate(130.096875 58.696851)scale(0.1 -0.1)">
       <use xlink:href="#DejaVuSans-48"/>
       <use x="63.623047" xlink:href="#DejaVuSans-46"/>
       <use x="95.410156" xlink:href="#DejaVuSans-56"/>
      </g>
     </g>
    </g>
   </g>
   <g id="line2d_19">
    <path clip-path="url(#p250d5eb53b)" d="M -1 302.645449 
L 102.362289 302.548593 
L 119.014533 302.323335 
L 130.116029 301.966504 
L 138.44215 301.491853 
L 143.992898 301.025465 
L 149.543646 300.39562 
L 155.094394 299.555367 
L 160.645142 298.448126 
L 166.19589 297.007036 
L 171.746638 295.154734 
L 174.522012 294.047405 
L 177.297385 292.803715 
L 180.072759 291.411329 
L 182.848133 289.857468 
L 185.623507 288.129 
L 188.398881 286.212545 
L 191.174255 284.094602 
L 193.949629 281.76169 
L 196.725003 279.200511 
L 199.500377 276.398126 
L 202.275751 273.342156 
L 205.051125 270.020987 
L 207.826499 266.424003 
L 210.601873 262.541817 
L 213.377247 258.366517 
L 216.152621 253.891919 
L 218.927995 249.113816 
L 221.703368 244.030226 
L 224.478742 238.641634 
L 227.254116 232.951224 
L 230.02949 226.965082 
L 235.580238 214.145584 
L 241.130986 200.296358 
L 246.681734 185.585755 
L 252.232482 170.237889 
L 268.884725 123.369915 
L 274.435473 108.666566 
L 277.210847 101.706363 
L 279.986221 95.072913 
L 282.761595 88.814353 
L 285.536969 82.977176 
L 288.312343 77.60566 
L 291.087717 72.741311 
L 293.863091 68.422326 
L 296.638465 64.683099 
L 299.413839 61.553764 
L 302.189213 59.059789 
L 304.964587 57.221633 
L 307.73996 56.054465 
L 310.515334 55.567957 
L 313.290708 55.766149 
L 316.066082 56.647395 
L 318.841456 58.204383 
L 321.61683 60.42424 
L 324.392204 63.288705 
L 327.167578 66.774383 
L 329.942952 70.853058 
L 332.718326 75.492081 
L 335.4937 80.654795 
L 338.269074 86.301028 
L 341.044448 92.387602 
L 343.819822 98.868889 
L 346.595196 105.697373 
L 352.145943 120.199897 
L 357.696691 135.499126 
L 374.348935 182.396993 
L 379.899683 197.262321 
L 385.450431 211.308885 
L 391.001179 224.356537 
L 393.776552 230.464713 
L 396.551926 236.280639 
L 399.3273 241.796945 
L 402.102674 247.009249 
L 404.878048 251.915957 
L 407.653422 256.518039 
L 410.428796 260.818795 
L 413.20417 264.823607 
L 415.979544 268.539688 
L 418.754918 271.975836 
L 421.530292 275.142177 
L 424.305666 278.049934 
L 427.08104 280.711189 
L 429.856414 283.138671 
L 432.631788 285.345548 
L 435.407162 287.345247 
L 438.182535 289.151277 
L 440.957909 290.777087 
L 443.733283 292.235926 
L 446.508657 293.540733 
L 449.284031 294.704042 
L 454.834779 296.653804 
L 460.385527 298.174738 
L 465.936275 299.346397 
L 471.487023 300.237853 
L 477.037771 300.907809 
L 485.363892 301.601954 
L 493.690014 302.034254 
L 504.79151 302.357334 
L 521.443754 302.559647 
L 551.972867 302.638269 
L 762.901286 302.645455 
L 1225 302.645455 
L 1225 302.645455 
" style="fill:none;stroke:#377eb8;stroke-linecap:square;stroke-width:3;"/>
   </g>
   <g id="line2d_20">
    <path clip-path="url(#p250d5eb53b)" d="M -1 302.645455 
L 734.976461 302.547022 
L 751.4547 302.322439 
L 762.440193 301.969852 
L 770.679313 301.503477 
L 778.918433 300.761768 
L 784.411179 300.051203 
L 789.903926 299.111201 
L 795.396672 297.88262 
L 800.889418 296.296307 
L 803.635792 295.344641 
L 806.382165 294.273101 
L 809.128538 293.070329 
L 811.874911 291.724467 
L 814.621285 290.223216 
L 817.367658 288.553917 
L 820.114031 286.703652 
L 822.860404 284.659353 
L 825.606777 282.40794 
L 828.353151 279.936462 
L 831.099524 277.23227 
L 833.845897 274.283193 
L 836.59227 271.077738 
L 839.338644 267.605299 
L 842.085017 263.856379 
L 844.83139 259.822821 
L 847.577763 255.498043 
L 850.324137 250.877276 
L 853.07051 245.957804 
L 855.816883 240.739195 
L 858.563256 235.223518 
L 861.309629 229.415558 
L 864.056003 223.322997 
L 869.548749 210.330242 
L 875.041496 196.370102 
L 880.534242 181.620756 
L 888.773362 158.536735 
L 899.758855 127.5535 
L 905.251601 112.766245 
L 910.744348 98.954938 
L 913.490721 92.534682 
L 916.237094 86.499867 
L 918.983467 80.894769 
L 921.72984 75.761329 
L 924.476214 71.138633 
L 927.222587 67.062416 
L 929.96896 63.564607 
L 932.715333 60.672907 
L 935.461707 58.410427 
L 938.20808 56.795379 
L 940.954453 55.840834 
L 943.700826 55.554545 
L 946.447199 55.938841 
L 949.193573 56.990595 
L 951.939946 58.70127 
L 954.686319 61.05703 
L 957.432692 64.038928 
L 960.179066 67.623163 
L 962.925439 71.78139 
L 965.671812 76.481098 
L 968.418185 81.686031 
L 971.164559 87.356654 
L 973.910932 93.450652 
L 976.657305 99.923453 
L 982.150051 113.819146 
L 987.642798 128.662664 
L 995.881918 151.871596 
L 1004.121037 175.139435 
L 1009.613784 190.15824 
L 1015.10653 204.480198 
L 1020.599277 217.904252 
L 1026.092023 230.282946 
L 1028.838396 236.048569 
L 1031.58477 241.521032 
L 1034.331143 246.695961 
L 1037.077516 251.571663 
L 1039.823889 256.148921 
L 1042.570262 260.430765 
L 1045.316636 264.422244 
L 1048.063009 268.130185 
L 1050.809382 271.562956 
L 1053.555755 274.730231 
L 1056.302129 277.642758 
L 1059.048502 280.312143 
L 1061.794875 282.750637 
L 1064.541248 284.970947 
L 1067.287622 286.986051 
L 1070.033995 288.809037 
L 1072.780368 290.452957 
L 1075.526741 291.930701 
L 1078.273114 293.254878 
L 1081.019488 294.437728 
L 1086.512234 296.426094 
L 1092.004981 297.983685 
L 1097.497727 299.188943 
L 1102.990473 300.110283 
L 1108.48322 300.806128 
L 1116.72234 301.531698 
L 1124.961459 301.987332 
L 1135.946952 302.331296 
L 1152.425192 302.549949 
L 1182.635297 302.637104 
L 1225 302.645296 
L 1225 302.645296 
" style="fill:none;stroke:#ff7f00;stroke-linecap:square;stroke-width:3;"/>
   </g>
   <g id="line2d_21">
    <path clip-path="url(#p250d5eb53b)" d="M 74.415354 302.645392 
L 157.595923 302.540115 
L 172.918659 302.330451 
L 183.863471 301.991363 
L 192.61932 301.507801 
L 199.186207 300.953372 
L 205.753094 300.167521 
L 210.131019 299.477429 
L 214.508944 298.623005 
L 218.886868 297.573266 
L 223.264793 296.293563 
L 227.642718 294.745698 
L 232.020642 292.888208 
L 236.398567 290.676844 
L 240.776492 288.065267 
L 245.154417 285.005991 
L 249.532341 281.45157 
L 253.910266 277.356047 
L 258.288191 272.676633 
L 262.666115 267.375606 
L 267.04404 261.422376 
L 271.421965 254.79565 
L 275.799889 247.485637 
L 280.177814 239.496177 
L 284.555739 230.846708 
L 288.933663 221.573947 
L 293.311588 211.733176 
L 297.689513 201.399017 
L 304.2564 185.183825 
L 323.957061 135.5425 
L 328.334986 125.323825 
L 332.71291 115.774326 
L 337.090835 107.064926 
L 339.279797 103.076304 
L 341.46876 99.357366 
L 343.657722 95.92608 
L 345.846684 92.79923 
L 348.035647 89.992282 
L 350.224609 87.519258 
L 352.413571 85.392616 
L 354.602534 83.623148 
L 356.791496 82.219888 
L 358.980458 81.190037 
L 361.169421 80.538897 
L 363.358383 80.26983 
L 365.547345 80.384227 
L 367.736308 80.881497 
L 369.92527 81.75907 
L 372.114232 83.012422 
L 374.303195 84.635113 
L 376.492157 86.618839 
L 378.681119 88.953508 
L 380.870082 91.627321 
L 383.059044 94.626875 
L 385.248006 97.937271 
L 387.436969 101.542242 
L 389.625931 105.42428 
L 391.814893 109.564783 
L 396.192818 118.542184 
L 400.570743 128.309438 
L 404.948667 138.69386 
L 411.515554 155.044594 
L 426.838291 193.902298 
L 431.216216 204.527626 
L 435.59414 214.723602 
L 439.972065 224.401888 
L 444.34999 233.493674 
L 448.727914 241.949325 
L 453.105839 249.73743 
L 457.483764 256.843396 
L 461.861688 263.267662 
L 466.239613 269.023679 
L 470.617538 274.135742 
L 474.995462 278.636794 
L 479.373387 282.566276 
L 483.751312 285.968111 
L 488.129236 288.888867 
L 492.507161 291.376141 
L 496.885086 293.477191 
L 501.26301 295.237818 
L 505.640935 296.701505 
L 510.01886 297.90878 
L 514.396785 298.896805 
L 518.774709 299.699141 
L 525.341596 300.618865 
L 531.908483 301.272965 
L 540.664333 301.848665 
L 549.420182 302.195478 
L 562.553956 302.46412 
L 582.254617 302.604164 
L 619.466977 302.643688 
L 619.466977 302.643688 
" style="fill:none;stroke:#377eb8;stroke-linecap:square;stroke-opacity:0.8;stroke-width:2;"/>
   </g>
   <g id="line2d_22">
    <path clip-path="url(#p250d5eb53b)" d="M 621.655939 302.643993 
L 715.78132 302.545941 
L 735.481981 302.324305 
L 748.615755 301.996508 
L 759.560567 301.533241 
L 768.316416 300.986308 
L 777.072265 300.237807 
L 785.828115 299.246755 
L 794.583964 297.978386 
L 801.150851 296.831449 
L 809.906701 295.03821 
L 818.66255 292.96288 
L 827.418399 290.656922 
L 858.063872 282.271713 
L 864.630759 280.8023 
L 871.197646 279.587728 
L 877.764533 278.680635 
L 882.142458 278.26737 
L 886.520383 278.017524 
L 890.898307 277.936227 
L 895.276232 278.025156 
L 899.654157 278.282476 
L 904.032081 278.702907 
L 910.598968 279.619864 
L 917.165855 280.842881 
L 923.732742 282.319016 
L 932.488592 284.574705 
L 947.811328 288.881912 
L 958.75614 291.885989 
L 967.511989 294.079966 
L 976.267839 296.012222 
L 982.834726 297.267864 
L 989.401613 298.35299 
L 998.157462 299.542975 
L 1006.913311 300.464117 
L 1015.669161 301.153525 
L 1026.613972 301.752824 
L 1039.747746 302.190201 
L 1055.070483 302.453585 
L 1079.149069 302.603849 
L 1136.062089 302.644965 
L 1166.707562 302.645427 
L 1166.707562 302.645427 
" style="fill:none;stroke:#ff7f00;stroke-linecap:square;stroke-opacity:0.2;stroke-width:2;"/>
   </g>
   <g id="line2d_23">
    <path clip-path="url(#p250d5eb53b)" d="M 182.277101 302.645391 
L 266.00188 302.543203 
L 282.382815 302.322464 
L 293.303438 301.986445 
L 302.403957 301.490058 
L 309.684373 300.873396 
L 315.144685 300.233612 
L 320.604996 299.397891 
L 326.065308 298.31928 
L 331.52562 296.943967 
L 335.165827 295.832731 
L 338.806035 294.54366 
L 342.446243 293.056537 
L 346.086451 291.350465 
L 349.726658 289.404176 
L 353.366866 287.1964 
L 357.007074 284.706309 
L 360.647282 281.914013 
L 364.28749 278.801126 
L 367.927697 275.351366 
L 371.567905 271.551213 
L 375.208113 267.390577 
L 378.848321 262.863481 
L 382.488528 257.96873 
L 386.128736 252.710552 
L 389.768944 247.099177 
L 393.409152 241.151334 
L 397.04936 234.890649 
L 402.509671 224.98237 
L 407.969983 214.575678 
L 417.070502 196.601305 
L 426.171022 178.709942 
L 431.631333 168.491082 
L 435.271541 162.055576 
L 438.911749 156.012645 
L 442.551957 150.437925 
L 446.192165 145.403298 
L 449.832372 140.975348 
L 451.652476 139.007875 
L 453.47258 137.213906 
L 455.292684 135.599641 
L 457.112788 134.170703 
L 458.932892 132.932098 
L 460.752996 131.888189 
L 462.5731 131.042671 
L 464.393203 130.398546 
L 466.213307 129.95811 
L 468.033411 129.722934 
L 469.853515 129.69386 
L 471.673619 129.87099 
L 473.493723 130.253692 
L 475.313827 130.840599 
L 477.133931 131.629619 
L 478.954035 132.617946 
L 480.774138 133.80208 
L 482.594242 135.177843 
L 484.414346 136.740408 
L 486.23445 138.484322 
L 488.054554 140.403544 
L 491.694762 144.740997 
L 495.33497 149.694 
L 498.975177 155.196832 
L 502.615385 161.178267 
L 506.255593 167.563101 
L 511.715905 177.726653 
L 518.99632 191.962383 
L 531.737047 217.102875 
L 537.197359 227.404014 
L 542.657671 237.170955 
L 546.297878 243.321798 
L 549.938086 249.150266 
L 553.578294 254.635172 
L 557.218502 259.762074 
L 560.85871 264.522834 
L 564.498917 268.915079 
L 568.139125 272.941593 
L 571.779333 276.60965 
L 575.419541 279.930326 
L 579.059748 282.917807 
L 582.699956 285.588702 
L 586.340164 287.961389 
L 589.980372 290.055402 
L 593.62058 291.890864 
L 597.260787 293.487981 
L 600.900995 294.866597 
L 604.541203 296.045807 
L 608.181411 297.043639 
L 611.821618 297.876788 
L 617.28193 298.850433 
L 622.742242 299.531178 
L 628.202553 299.953711 
L 633.662865 300.14322 
L 635.482969 300.1576 
L 635.482969 300.1576 
" style="fill:none;stroke:#377eb8;stroke-dasharray:7.4,3.2;stroke-dashoffset:0;stroke-opacity:0.65;stroke-width:2;"/>
   </g>
   <g id="line2d_24">
    <path clip-path="url(#p250d5eb53b)" d="M 637.303073 300.148275 
L 642.763385 299.98005 
L 648.223696 299.601338 
L 653.684008 299.005742 
L 659.14432 298.18036 
L 664.604631 297.107157 
L 670.064943 295.764588 
L 675.525255 294.129454 
L 680.985566 292.179 
L 686.445878 289.893194 
L 691.90619 287.25715 
L 697.366501 284.263585 
L 702.826813 280.915199 
L 708.287125 277.226821 
L 713.747436 273.227172 
L 719.207748 268.960061 
L 726.488163 262.959341 
L 746.509306 246.187373 
L 751.969618 242.027522 
L 755.609826 239.463295 
L 759.250033 237.104047 
L 762.890241 234.980313 
L 766.530449 233.120271 
L 770.170657 231.549124 
L 773.810865 230.288526 
L 777.451072 229.356091 
L 781.09128 228.764983 
L 784.731488 228.523605 
L 788.371696 228.635401 
L 792.011903 229.098775 
L 795.652111 229.907129 
L 799.292319 231.049018 
L 802.932527 232.508421 
L 806.572734 234.265114 
L 810.212942 236.295138 
L 813.85315 238.571339 
L 817.493358 241.063975 
L 822.953669 245.139061 
L 828.413981 249.517894 
L 837.514501 257.185169 
L 848.435124 266.39513 
L 855.715539 272.208272 
L 861.175851 276.280045 
L 866.636163 280.050975 
L 872.096474 283.48932 
L 877.556786 286.57785 
L 883.017098 289.312324 
L 888.477409 291.699571 
L 893.937721 293.755342 
L 899.398033 295.502113 
L 904.858344 296.966959 
L 910.318656 298.179617 
L 915.778968 299.170811 
L 921.239279 299.970876 
L 928.519695 300.789946 
L 935.800111 301.382516 
L 944.90063 301.885346 
L 955.821253 302.248105 
L 970.382084 302.488939 
L 994.043435 302.616189 
L 1061.387279 302.645372 
L 1090.508941 302.645451 
L 1090.508941 302.645451 
" style="fill:none;stroke:#ff7f00;stroke-dasharray:7.4,3.2;stroke-dashoffset:0;stroke-opacity:0.35;stroke-width:2;"/>
   </g>
   <g id="line2d_25">
    <path clip-path="url(#p250d5eb53b)" d="M 298.318723 302.645322 
L 377.375773 302.533097 
L 394.31657 302.290103 
L 405.610434 301.922501 
L 414.080832 301.450444 
L 421.139497 300.864322 
L 428.198163 300.03785 
L 433.845095 299.153408 
L 439.492027 298.022231 
L 443.727226 296.981998 
L 447.962425 295.752207 
L 452.197624 294.309145 
L 456.432824 292.628551 
L 460.668023 290.686165 
L 464.903222 288.45839 
L 469.138421 285.923062 
L 473.37362 283.060297 
L 477.608819 279.853406 
L 481.844018 276.289857 
L 486.079218 272.362225 
L 490.314417 268.069113 
L 494.549616 263.415983 
L 498.784815 258.415855 
L 503.020014 253.089817 
L 507.255213 247.467314 
L 512.902145 239.575983 
L 519.960811 229.238725 
L 539.725073 199.818978 
L 545.372005 191.982629 
L 549.607205 186.452471 
L 553.842404 181.282819 
L 558.077603 176.521089 
L 562.312802 172.204345 
L 565.136268 169.586798 
L 567.959734 167.183064 
L 570.7832 164.995094 
L 573.606666 163.022306 
L 576.430133 161.261627 
L 579.253599 159.707583 
L 582.077065 158.352438 
L 584.900531 157.186382 
L 587.723997 156.197759 
L 591.959196 155.018207 
L 596.194395 154.158115 
L 600.429594 153.563904 
L 604.664793 153.18084 
L 610.311726 152.907335 
L 618.782124 152.784619 
L 639.95812 152.817089 
L 647.016785 153.011906 
L 649.840251 153.174255 
L 649.840251 153.174255 
" style="fill:none;stroke:#377eb8;stroke-dasharray:12.8,3.2,2,3.2;stroke-dashoffset:0;stroke-opacity:0.5;stroke-width:2;"/>
   </g>
   <g id="line2d_26">
    <path clip-path="url(#p250d5eb53b)" d="M 651.251984 153.280585 
L 655.487183 153.723478 
L 659.722382 154.394491 
L 663.957581 155.348296 
L 666.781047 156.167443 
L 669.604514 157.15032 
L 672.42798 158.31021 
L 675.251446 159.658825 
L 678.074912 161.206043 
L 680.898378 162.95967 
L 683.721844 164.925261 
L 686.54531 167.105971 
L 689.368776 169.502466 
L 692.192242 172.112881 
L 696.427441 176.419311 
L 700.662641 181.171429 
L 704.89784 186.332419 
L 709.133039 191.85508 
L 714.779971 199.68354 
L 720.426903 207.904333 
L 731.720768 224.86768 
L 740.191166 237.406593 
L 745.838098 245.402499 
L 751.48503 252.966881 
L 755.720229 258.299919 
L 759.955428 263.307616 
L 764.190628 267.968698 
L 768.425827 272.269969 
L 772.661026 276.205804 
L 776.896225 279.777456 
L 781.131424 282.992223 
L 785.366623 285.862535 
L 789.601822 288.404996 
L 793.837022 290.63943 
L 798.072221 292.587961 
L 802.30742 294.274159 
L 806.542619 295.722279 
L 810.777818 296.95659 
L 815.013017 298.000819 
L 820.659949 299.13656 
L 826.306882 300.024764 
L 831.953814 300.710436 
L 839.012479 301.342223 
L 847.482877 301.853402 
L 857.365009 302.216635 
L 871.482339 302.477529 
L 892.658335 302.609482 
L 947.715923 302.645147 
L 1002.773512 302.645454 
L 1002.773512 302.645454 
" style="fill:none;stroke:#ff7f00;stroke-dasharray:12.8,3.2,2,3.2;stroke-dashoffset:0;stroke-opacity:0.5;stroke-width:2;"/>
   </g>
   <g id="line2d_27">
    <path clip-path="url(#p250d5eb53b)" d="M 178.931348 302.645435 
L 277.93072 302.543219 
L 295.930606 302.312307 
L 308.530526 301.93487 
L 317.530469 301.46676 
L 324.730424 300.9152 
L 331.930378 300.152511 
L 339.130332 299.120052 
L 344.530298 298.12938 
L 349.930264 296.920741 
L 355.330229 295.464427 
L 360.730195 293.731722 
L 366.130161 291.696495 
L 371.530127 289.337041 
L 376.930092 286.638086 
L 382.330058 283.592873 
L 387.730024 280.205194 
L 393.12999 276.49121 
L 398.529955 272.480918 
L 403.929921 268.219075 
L 411.129875 262.250734 
L 429.129761 247.126322 
L 434.529727 242.942126 
L 439.929693 239.113148 
L 443.52967 236.810159 
L 447.129647 234.741295 
L 450.729624 232.933478 
L 454.329601 231.410715 
L 457.929579 230.193566 
L 461.529556 229.298682 
L 465.129533 228.738428 
L 468.72951 228.520595 
L 472.329487 228.648225 
L 475.929464 229.119534 
L 479.529442 229.92796 
L 483.129419 231.062309 
L 486.729396 232.507016 
L 490.329373 234.242502 
L 493.92935 236.245611 
L 497.529327 238.490125 
L 501.129305 240.947338 
L 506.52927 244.964686 
L 511.929236 249.283614 
L 520.929179 256.855919 
L 531.72911 265.976483 
L 538.929065 271.751792 
L 544.32903 275.807697 
L 549.728996 279.572964 
L 555.128962 283.014537 
L 560.528928 286.113145 
L 565.928893 288.861826 
L 571.328859 291.264017 
L 576.728825 293.331371 
L 582.128791 295.08145 
L 587.528756 296.535404 
L 592.928722 297.715747 
L 598.328688 298.644291 
L 603.728654 299.340286 
L 609.128619 299.818772 
L 614.528585 300.089178 
L 619.928551 300.154135 
L 625.328517 300.008527 
L 627.128505 299.911105 
L 627.128505 299.911105 
" style="fill:none;stroke:#377eb8;stroke-dasharray:2,3.3;stroke-dashoffset:0;stroke-opacity:0.35;stroke-width:2;"/>
   </g>
   <g id="line2d_28">
    <path clip-path="url(#p250d5eb53b)" d="M 628.928494 299.788131 
L 634.32846 299.256998 
L 639.728425 298.45914 
L 645.128391 297.356955 
L 648.728368 296.430615 
L 652.328345 295.333017 
L 655.928323 294.047175 
L 659.5283 292.55498 
L 663.128277 290.837483 
L 666.728254 288.87523 
L 670.328231 286.648668 
L 673.928208 284.138596 
L 677.528186 281.326677 
L 681.128163 278.196001 
L 684.72814 274.731689 
L 688.328117 270.921528 
L 691.928094 266.756625 
L 695.528071 262.232064 
L 699.128048 257.347551 
L 702.728026 252.108012 
L 706.328003 246.524152 
L 709.92798 240.612913 
L 715.327946 231.185605 
L 720.727911 221.184772 
L 727.927866 207.210927 
L 744.127763 175.361055 
L 749.527729 165.448053 
L 753.127706 159.25293 
L 756.727683 153.475766 
L 760.32766 148.188279 
L 763.927637 143.457929 
L 767.527615 139.346499 
L 769.327603 137.540301 
L 771.127592 135.908752 
L 772.92758 134.457401 
L 774.727569 133.191215 
L 776.527557 132.114552 
L 778.327546 131.231136 
L 780.127535 130.544032 
L 781.927523 130.055632 
L 783.727512 129.767642 
L 785.5275 129.681067 
L 787.327489 129.796211 
L 789.127478 130.112671 
L 790.927466 130.629341 
L 792.727455 131.344418 
L 794.527443 132.255414 
L 796.327432 133.359168 
L 798.12742 134.651866 
L 799.927409 136.129062 
L 801.727398 137.785705 
L 803.527386 139.616166 
L 807.127363 143.773332 
L 810.727341 148.54526 
L 814.327318 153.86972 
L 817.927295 159.678902 
L 821.527272 165.900846 
L 826.927238 175.844058 
L 832.327204 186.292325 
L 850.327089 221.66883 
L 855.727055 231.646068 
L 861.127021 241.044175 
L 864.726998 246.933729 
L 868.326975 252.494765 
L 871.926952 257.71088 
L 875.526929 262.571908 
L 879.126907 267.073449 
L 882.726884 271.216325 
L 886.326861 275.00598 
L 889.926838 278.451847 
L 893.526815 281.566702 
L 897.126792 284.366026 
L 900.72677 286.867389 
L 904.326747 289.089869 
L 907.926724 291.053511 
L 911.526701 292.778851 
L 915.126678 294.286489 
L 918.726655 295.596726 
L 922.326633 296.72926 
L 927.726598 298.135833 
L 933.126564 299.243895 
L 938.52653 300.106493 
L 943.926496 300.770138 
L 951.12645 301.413657 
L 960.126393 301.935925 
L 970.926324 302.293271 
L 985.326233 302.515798 
L 1010.526073 302.626604 
L 1077.125651 302.645416 
L 1077.125651 302.645416 
" style="fill:none;stroke:#ff7f00;stroke-dasharray:2,3.3;stroke-dashoffset:0;stroke-opacity:0.65;stroke-width:2;"/>
   </g>
   <g id="line2d_29">
    <path clip-path="url(#p250d5eb53b)" d="M 58.643315 302.645453 
L 189.434504 302.541768 
L 209.729689 302.301192 
L 223.259812 301.939867 
L 234.534915 301.425337 
L 243.554997 300.815801 
L 252.575079 299.98097 
L 261.595161 298.877249 
L 268.360222 297.851693 
L 275.125284 296.646694 
L 281.890345 295.261481 
L 290.910427 293.151166 
L 299.930509 290.790174 
L 315.715653 286.349342 
L 326.990755 283.284663 
L 333.755817 281.642305 
L 340.520878 280.233014 
L 347.28594 279.12004 
L 351.795981 278.568947 
L 356.306022 278.184749 
L 360.816063 277.975761 
L 365.326104 277.946542 
L 369.836145 278.097733 
L 374.346186 278.426029 
L 378.856227 278.924303 
L 383.366268 279.58186 
L 390.13133 280.835738 
L 396.896391 282.35852 
L 405.916473 284.690988 
L 421.701617 289.133092 
L 432.976719 292.205378 
L 441.996801 294.427412 
L 448.761863 295.908439 
L 455.526924 297.212825 
L 462.291986 298.33626 
L 469.057047 299.28324 
L 478.07713 300.291496 
L 487.097212 301.044978 
L 496.117294 301.588693 
L 507.392396 302.04186 
L 520.922519 302.355302 
L 541.217704 302.559993 
L 577.298032 302.638705 
L 620.143422 302.644858 
L 620.143422 302.644858 
" style="fill:none;stroke:#377eb8;stroke-linecap:square;stroke-opacity:0.2;stroke-width:2;"/>
   </g>
   <g id="line2d_30">
    <path clip-path="url(#p250d5eb53b)" d="M 622.398442 302.64479 
L 685.539016 302.532492 
L 701.32416 302.298627 
L 712.599262 301.913906 
L 721.619344 301.359474 
L 728.384406 300.719579 
L 735.149468 299.808414 
L 739.659509 299.005904 
L 744.16955 298.010459 
L 748.679591 296.785824 
L 753.189632 295.291678 
L 757.699673 293.483885 
L 762.209714 291.314966 
L 766.719755 288.734828 
L 771.229796 285.691773 
L 775.739837 282.133802 
L 780.249878 278.010228 
L 782.504898 275.72132 
L 787.014939 270.661909 
L 791.52498 264.929011 
L 796.035021 258.493069 
L 800.545062 251.33606 
L 805.055103 243.454015 
L 809.565144 234.859425 
L 814.075185 225.583364 
L 818.585226 215.677217 
L 823.095267 205.213853 
L 827.605308 194.288123 
L 834.37037 177.293197 
L 847.900493 142.980322 
L 852.410534 132.086455 
L 856.920575 121.778808 
L 861.430616 112.247787 
L 863.685636 107.831338 
L 865.940657 103.677082 
L 868.195678 99.805971 
L 870.450698 96.237816 
L 872.705719 92.991115 
L 874.960739 90.082895 
L 877.21576 87.528566 
L 879.47078 85.341782 
L 881.725801 83.53432 
L 883.980821 82.115975 
L 886.235842 81.094472 
L 888.490862 80.475396 
L 890.745883 80.262139 
L 893.000903 80.455871 
L 895.255924 81.055529 
L 897.510944 82.057826 
L 899.765965 83.457283 
L 902.020985 85.246276 
L 904.276006 87.415108 
L 906.531026 89.952093 
L 908.786047 92.843666 
L 911.041067 96.074498 
L 913.296088 99.627635 
L 915.551108 103.484647 
L 917.806129 107.625783 
L 922.31617 116.675848 
L 926.826211 126.600001 
L 931.336252 137.210626 
L 938.101313 153.994976 
L 953.886457 194.021163 
L 958.396498 204.956642 
L 962.906539 215.432301 
L 967.41658 225.352761 
L 971.926621 234.644629 
L 976.436662 243.256016 
L 980.946703 251.155377 
L 985.456744 258.329801 
L 989.966785 264.782887 
L 994.476826 270.532353 
L 998.986867 275.607506 
L 1003.496908 280.0467 
L 1008.006949 283.89488 
L 1012.51699 287.201308 
L 1017.027031 290.017513 
L 1021.537072 292.395534 
L 1026.047113 294.38645 
L 1030.557154 296.039216 
L 1035.067195 297.399796 
L 1039.577236 298.510553 
L 1044.087277 299.409894 
L 1048.597318 300.132103 
L 1055.36238 300.948208 
L 1062.127441 301.51805 
L 1071.147523 302.00857 
L 1082.422626 302.346128 
L 1098.207769 302.549146 
L 1127.523036 302.636214 
L 1183.898549 302.645412 
L 1183.898549 302.645412 
" style="fill:none;stroke:#ff7f00;stroke-linecap:square;stroke-opacity:0.8;stroke-width:2;"/>
   </g>
  </g>
 </g>
 <defs>
  <clipPath id="p250d5eb53b">
   <rect height="271.8" width="948.6" x="153" y="43.2"/>
  </clipPath>
 </defs>
</svg>
