<?xml version="1.0" encoding="utf-8" standalone="no"?>
<!DOCTYPE svg PUBLIC "-//W3C//DTD SVG 1.1//EN"
  "http://www.w3.org/Graphics/SVG/1.1/DTD/svg11.dtd">
<!-- Created with matplotlib (https://matplotlib.org/) -->
<svg height="360pt" version="1.1" viewBox="0 0 1224 360" width="1224pt" xmlns="http://www.w3.org/2000/svg" xmlns:xlink="http://www.w3.org/1999/xlink">
 <defs>
  <style type="text/css">
*{stroke-linecap:butt;stroke-linejoin:round;white-space:pre;}
  </style>
 </defs>
 <g id="figure_1">
  <g id="patch_1">
   <path d="M 0 360 
L 1224 360 
L 1224 0 
L 0 0 
z
" style="fill:#ffffff;"/>
  </g>
  <g id="axes_1">
   <g id="patch_2">
    <path d="M 153 315 
L 1101.6 315 
L 1101.6 43.2 
L 153 43.2 
z
" style="fill:#ffffff;"/>
   </g>
   <g id="PolyCollection_1">
    <path clip-path="url(#p262085ff8c)" d="M -32.202705 302.645455 
L -32.202705 302.645454 
L -29.504009 302.645454 
L -26.805314 302.645454 
L -24.106618 302.645454 
L -21.407922 302.645454 
L -18.709226 302.645454 
L -16.01053 302.645453 
L -13.311834 302.645453 
L -10.613138 302.645453 
L -7.914443 302.645452 
L -5.215747 302.645451 
L -2.517051 302.64545 
L 0.181645 302.645448 
L 2.880341 302.645445 
L 5.579037 302.645442 
L 8.277732 302.645438 
L 10.976428 302.645432 
L 13.675124 302.645425 
L 16.37382 302.645415 
L 19.072516 302.645401 
L 21.771212 302.645384 
L 24.469908 302.645361 
L 27.168603 302.645332 
L 29.867299 302.645293 
L 32.565995 302.645242 
L 35.264691 302.645177 
L 37.963387 302.645092 
L 40.662083 302.644982 
L 43.360778 302.644841 
L 46.059474 302.644659 
L 48.75817 302.644427 
L 51.456866 302.64413 
L 54.155562 302.643753 
L 56.854258 302.643273 
L 59.552953 302.642665 
L 62.251649 302.641897 
L 64.950345 302.64093 
L 67.649041 302.639715 
L 70.347737 302.638193 
L 73.046433 302.636291 
L 75.745129 302.633921 
L 78.443824 302.630976 
L 81.14252 302.627327 
L 83.841216 302.622818 
L 86.539912 302.617262 
L 89.238608 302.610433 
L 91.937304 302.602064 
L 94.635999 302.591836 
L 97.334695 302.579371 
L 100.033391 302.564222 
L 102.732087 302.54586 
L 105.430783 302.523669 
L 108.129479 302.496922 
L 110.828175 302.464776 
L 113.52687 302.426249 
L 116.225566 302.380202 
L 118.924262 302.325324 
L 121.622958 302.260103 
L 124.321654 302.18281 
L 127.02035 302.091467 
L 129.719045 301.983828 
L 132.417741 301.857345 
L 135.116437 301.709139 
L 137.815133 301.535977 
L 140.513829 301.334233 
L 143.212525 301.099863 
L 145.91122 300.828373 
L 148.609916 300.514788 
L 151.308612 300.153629 
L 154.007308 299.738884 
L 156.706004 299.263987 
L 159.4047 298.7218 
L 162.103396 298.104602 
L 164.802091 297.40408 
L 167.500787 296.611332 
L 170.199483 295.716875 
L 172.898179 294.710665 
L 175.596875 293.582125 
L 178.295571 292.320188 
L 180.994266 290.913351 
L 183.692962 289.349741 
L 186.391658 287.617199 
L 189.090354 285.703379 
L 191.78905 283.595858 
L 194.487746 281.282264 
L 197.186441 278.750425 
L 199.885137 275.988523 
L 202.583833 272.985267 
L 205.282529 269.730082 
L 207.981225 266.213306 
L 210.679921 262.426393 
L 213.378617 258.362129 
L 216.077312 254.014852 
L 218.776008 249.380665 
L 221.474704 244.457657 
L 224.1734 239.246111 
L 226.872096 233.748703 
L 229.570792 227.97069 
L 232.269487 221.920071 
L 234.968183 215.607733 
L 237.666879 209.047567 
L 240.365575 202.256549 
L 243.064271 195.25479 
L 245.762967 188.065544 
L 248.461663 180.715176 
L 251.160358 173.233084 
L 253.859054 165.651577 
L 256.55775 158.005706 
L 259.256446 150.333041 
L 261.955142 142.673416 
L 264.653838 135.068614 
L 267.352533 127.562022 
L 270.051229 120.198236 
L 272.749925 113.022644 
L 275.448621 106.08097 
L 278.147317 99.418803 
L 280.846013 93.081103 
L 283.544708 87.1117 
L 286.243404 81.552797 
L 288.9421 76.444474 
L 291.640796 71.824207 
L 294.339492 67.726411 
L 297.038188 64.182016 
L 299.736884 61.218076 
L 302.435579 58.857428 
L 305.134275 57.118393 
L 307.832971 56.014549 
L 310.531667 55.554545 
L 313.230363 55.741995 
L 315.929059 56.575425 
L 318.627754 58.048296 
L 321.32645 60.149091 
L 324.025146 62.861459 
L 326.723842 66.164433 
L 329.422538 70.032696 
L 332.121234 74.436907 
L 334.81993 79.344066 
L 337.518625 84.717935 
L 340.217321 90.519471 
L 342.916017 96.707308 
L 345.614713 103.23824 
L 348.313409 110.067719 
L 351.012105 117.150364 
L 353.7108 124.440447 
L 356.409496 131.892382 
L 359.108192 139.461187 
L 361.806888 147.102915 
L 364.505584 154.775063 
L 367.20428 162.436937 
L 369.902975 170.049977 
L 372.601671 177.578042 
L 375.300367 184.987646 
L 377.999063 192.248146 
L 380.697759 199.331888 
L 383.396455 206.214302 
L 386.095151 212.87395 
L 388.793846 219.292541 
L 391.492542 225.454892 
L 394.191238 231.348863 
L 396.889934 236.965255 
L 399.58863 242.297674 
L 402.287326 247.34238 
L 404.986021 252.098105 
L 407.684717 256.565861 
L 410.383413 260.748734 
L 413.082109 264.65167 
L 415.780805 268.281256 
L 418.479501 271.645502 
L 421.178197 274.753627 
L 423.876892 277.615846 
L 426.575588 280.243172 
L 429.274284 282.647221 
L 431.97298 284.840039 
L 434.671676 286.83393 
L 437.370372 288.641312 
L 440.069067 290.274579 
L 442.767763 291.745982 
L 445.466459 293.067524 
L 448.165155 294.250874 
L 450.863851 295.30729 
L 453.562547 296.24756 
L 456.261242 297.081958 
L 458.959938 297.820206 
L 461.658634 298.471452 
L 464.35733 299.044258 
L 467.056026 299.546593 
L 469.754722 299.985841 
L 472.453418 300.368805 
L 475.152113 300.701729 
L 477.850809 300.990315 
L 480.549505 301.239745 
L 483.248201 301.454712 
L 485.946897 301.639447 
L 488.645593 301.797748 
L 491.344288 301.93301 
L 494.042984 302.048257 
L 496.74168 302.146173 
L 499.440376 302.229128 
L 502.139072 302.299209 
L 504.837768 302.358247 
L 507.536464 302.407843 
L 510.235159 302.449389 
L 512.933855 302.484094 
L 515.632551 302.513004 
L 518.331247 302.53702 
L 521.029943 302.556913 
L 523.728639 302.573346 
L 526.427334 302.586883 
L 529.12603 302.598003 
L 531.824726 302.607113 
L 534.523422 302.614555 
L 537.222118 302.620618 
L 539.920814 302.625543 
L 542.619509 302.629533 
L 545.318205 302.632758 
L 548.016901 302.635355 
L 550.715597 302.637443 
L 553.414293 302.639115 
L 556.112989 302.640452 
L 558.811685 302.641517 
L 561.51038 302.642363 
L 564.209076 302.643034 
L 566.907772 302.643564 
L 569.606468 302.643982 
L 572.305164 302.644311 
L 575.00386 302.644568 
L 577.702555 302.64477 
L 580.401251 302.644927 
L 583.099947 302.645049 
L 585.798643 302.645143 
L 588.497339 302.645217 
L 591.196035 302.645273 
L 593.894731 302.645316 
L 596.593426 302.64535 
L 599.292122 302.645375 
L 601.990818 302.645395 
L 604.689514 302.64541 
L 607.38821 302.645421 
L 610.086906 302.645429 
L 612.785601 302.645436 
L 615.484297 302.64544 
L 618.182993 302.645444 
L 620.881689 302.645447 
L 623.580385 302.645449 
L 626.279081 302.64545 
L 628.977776 302.645451 
L 631.676472 302.645452 
L 634.375168 302.645453 
L 637.073864 302.645453 
L 639.77256 302.645454 
L 642.471256 302.645454 
L 645.169952 302.645454 
L 647.868647 302.645454 
L 650.567343 302.645454 
L 653.266039 302.645454 
L 655.964735 302.645454 
L 658.663431 302.645454 
L 661.362127 302.645454 
L 664.060822 302.645455 
L 666.759518 302.645455 
L 669.458214 302.645455 
L 672.15691 302.645455 
L 674.855606 302.645455 
L 677.554302 302.645455 
L 680.252998 302.645455 
L 682.951693 302.645455 
L 685.650389 302.645455 
L 688.349085 302.645455 
L 691.047781 302.645455 
L 693.746477 302.645455 
L 696.445173 302.645455 
L 699.143868 302.645455 
L 701.842564 302.645455 
L 704.54126 302.645455 
L 707.239956 302.645455 
L 709.938652 302.645455 
L 712.637348 302.645455 
L 715.336043 302.645455 
L 718.034739 302.645455 
L 720.733435 302.645455 
L 723.432131 302.645455 
L 726.130827 302.645455 
L 728.829523 302.645455 
L 731.528219 302.645455 
L 734.226914 302.645455 
L 736.92561 302.645455 
L 739.624306 302.645455 
L 742.323002 302.645455 
L 745.021698 302.645455 
L 747.720394 302.645455 
L 750.419089 302.645455 
L 753.117785 302.645455 
L 755.816481 302.645455 
L 758.515177 302.645455 
L 761.213873 302.645455 
L 763.912569 302.645455 
L 766.611264 302.645455 
L 769.30996 302.645455 
L 772.008656 302.645455 
L 774.707352 302.645455 
L 777.406048 302.645455 
L 780.104744 302.645455 
L 782.80344 302.645455 
L 785.502135 302.645455 
L 788.200831 302.645455 
L 790.899527 302.645455 
L 793.598223 302.645455 
L 796.296919 302.645455 
L 798.995615 302.645455 
L 801.69431 302.645455 
L 804.393006 302.645455 
L 807.091702 302.645455 
L 809.790398 302.645455 
L 812.489094 302.645455 
L 815.18779 302.645455 
L 817.886486 302.645455 
L 820.585181 302.645455 
L 823.283877 302.645455 
L 825.982573 302.645455 
L 828.681269 302.645455 
L 831.379965 302.645455 
L 834.078661 302.645455 
L 836.777356 302.645455 
L 839.476052 302.645455 
L 842.174748 302.645455 
L 844.873444 302.645455 
L 847.57214 302.645455 
L 850.270836 302.645455 
L 852.969531 302.645455 
L 855.668227 302.645455 
L 858.366923 302.645455 
L 861.065619 302.645455 
L 863.764315 302.645455 
L 866.463011 302.645455 
L 869.161707 302.645455 
L 871.860402 302.645455 
L 874.559098 302.645455 
L 877.257794 302.645455 
L 879.95649 302.645455 
L 882.655186 302.645455 
L 885.353882 302.645455 
L 888.052577 302.645455 
L 890.751273 302.645455 
L 893.449969 302.645455 
L 896.148665 302.645455 
L 898.847361 302.645455 
L 901.546057 302.645455 
L 904.244753 302.645455 
L 906.943448 302.645455 
L 909.642144 302.645455 
L 912.34084 302.645455 
L 915.039536 302.645455 
L 917.738232 302.645455 
L 920.436928 302.645455 
L 923.135623 302.645455 
L 925.834319 302.645455 
L 928.533015 302.645455 
L 931.231711 302.645455 
L 933.930407 302.645455 
L 936.629103 302.645455 
L 939.327798 302.645455 
L 942.026494 302.645455 
L 944.72519 302.645455 
L 947.423886 302.645455 
L 950.122582 302.645455 
L 952.821278 302.645455 
L 955.519974 302.645455 
L 958.218669 302.645455 
L 960.917365 302.645455 
L 963.616061 302.645455 
L 966.314757 302.645455 
L 969.013453 302.645455 
L 971.712149 302.645455 
L 974.410844 302.645455 
L 977.10954 302.645455 
L 979.808236 302.645455 
L 982.506932 302.645455 
L 985.205628 302.645455 
L 987.904324 302.645455 
L 990.60302 302.645455 
L 993.301715 302.645455 
L 996.000411 302.645455 
L 998.699107 302.645455 
L 1001.397803 302.645455 
L 1004.096499 302.645455 
L 1006.795195 302.645455 
L 1009.49389 302.645455 
L 1012.192586 302.645455 
L 1014.891282 302.645455 
L 1017.589978 302.645455 
L 1020.288674 302.645455 
L 1022.98737 302.645455 
L 1025.686065 302.645455 
L 1028.384761 302.645455 
L 1031.083457 302.645455 
L 1033.782153 302.645455 
L 1036.480849 302.645455 
L 1039.179545 302.645455 
L 1041.878241 302.645455 
L 1044.576936 302.645455 
L 1047.275632 302.645455 
L 1049.974328 302.645455 
L 1052.673024 302.645455 
L 1055.37172 302.645455 
L 1058.070416 302.645455 
L 1060.769111 302.645455 
L 1063.467807 302.645455 
L 1066.166503 302.645455 
L 1068.865199 302.645455 
L 1071.563895 302.645455 
L 1074.262591 302.645455 
L 1076.961287 302.645455 
L 1079.659982 302.645455 
L 1082.358678 302.645455 
L 1085.057374 302.645455 
L 1087.75607 302.645455 
L 1090.454766 302.645455 
L 1093.153462 302.645455 
L 1095.852157 302.645455 
L 1098.550853 302.645455 
L 1101.249549 302.645455 
L 1103.948245 302.645455 
L 1106.646941 302.645455 
L 1109.345637 302.645455 
L 1112.044332 302.645455 
L 1114.743028 302.645455 
L 1117.441724 302.645455 
L 1120.14042 302.645455 
L 1122.839116 302.645455 
L 1125.537812 302.645455 
L 1128.236508 302.645455 
L 1130.935203 302.645455 
L 1133.633899 302.645455 
L 1136.332595 302.645455 
L 1139.031291 302.645455 
L 1141.729987 302.645455 
L 1144.428683 302.645455 
L 1147.127378 302.645455 
L 1149.826074 302.645455 
L 1152.52477 302.645455 
L 1155.223466 302.645455 
L 1157.922162 302.645455 
L 1160.620858 302.645455 
L 1163.319554 302.645455 
L 1166.018249 302.645455 
L 1168.716945 302.645455 
L 1171.415641 302.645455 
L 1174.114337 302.645455 
L 1176.813033 302.645455 
L 1179.511729 302.645455 
L 1182.210424 302.645455 
L 1184.90912 302.645455 
L 1187.607816 302.645455 
L 1190.306512 302.645455 
L 1193.005208 302.645455 
L 1195.703904 302.645455 
L 1198.402599 302.645455 
L 1201.101295 302.645455 
L 1203.799991 302.645455 
L 1206.498687 302.645455 
L 1209.197383 302.645455 
L 1211.896079 302.645455 
L 1214.594775 302.645455 
L 1217.29347 302.645455 
L 1219.992166 302.645455 
L 1222.690862 302.645455 
L 1225.389558 302.645455 
L 1228.088254 302.645455 
L 1230.78695 302.645455 
L 1233.485645 302.645455 
L 1236.184341 302.645455 
L 1238.883037 302.645455 
L 1241.581733 302.645455 
L 1244.280429 302.645455 
L 1246.979125 302.645455 
L 1249.67782 302.645455 
L 1252.376516 302.645455 
L 1255.075212 302.645455 
L 1257.773908 302.645455 
L 1260.472604 302.645455 
L 1263.1713 302.645455 
L 1265.869996 302.645455 
L 1268.568691 302.645455 
L 1271.267387 302.645455 
L 1273.966083 302.645455 
L 1276.664779 302.645455 
L 1279.363475 302.645455 
L 1282.062171 302.645455 
L 1284.760866 302.645455 
L 1287.459562 302.645455 
L 1290.158258 302.645455 
L 1292.856954 302.645455 
L 1295.55565 302.645455 
L 1298.254346 302.645455 
L 1300.953042 302.645455 
L 1303.651737 302.645455 
L 1306.350433 302.645455 
L 1309.049129 302.645455 
L 1311.747825 302.645455 
L 1314.446521 302.645455 
L 1314.446521 302.645455 
L 1314.446521 302.645455 
L 1311.747825 302.645455 
L 1309.049129 302.645455 
L 1306.350433 302.645455 
L 1303.651737 302.645455 
L 1300.953042 302.645455 
L 1298.254346 302.645455 
L 1295.55565 302.645455 
L 1292.856954 302.645455 
L 1290.158258 302.645455 
L 1287.459562 302.645455 
L 1284.760866 302.645455 
L 1282.062171 302.645455 
L 1279.363475 302.645455 
L 1276.664779 302.645455 
L 1273.966083 302.645455 
L 1271.267387 302.645455 
L 1268.568691 302.645455 
L 1265.869996 302.645455 
L 1263.1713 302.645455 
L 1260.472604 302.645455 
L 1257.773908 302.645455 
L 1255.075212 302.645455 
L 1252.376516 302.645455 
L 1249.67782 302.645455 
L 1246.979125 302.645455 
L 1244.280429 302.645455 
L 1241.581733 302.645455 
L 1238.883037 302.645455 
L 1236.184341 302.645455 
L 1233.485645 302.645455 
L 1230.78695 302.645455 
L 1228.088254 302.645455 
L 1225.389558 302.645455 
L 1222.690862 302.645455 
L 1219.992166 302.645455 
L 1217.29347 302.645455 
L 1214.594775 302.645455 
L 1211.896079 302.645455 
L 1209.197383 302.645455 
L 1206.498687 302.645455 
L 1203.799991 302.645455 
L 1201.101295 302.645455 
L 1198.402599 302.645455 
L 1195.703904 302.645455 
L 1193.005208 302.645455 
L 1190.306512 302.645455 
L 1187.607816 302.645455 
L 1184.90912 302.645455 
L 1182.210424 302.645455 
L 1179.511729 302.645455 
L 1176.813033 302.645455 
L 1174.114337 302.645455 
L 1171.415641 302.645455 
L 1168.716945 302.645455 
L 1166.018249 302.645455 
L 1163.319554 302.645455 
L 1160.620858 302.645455 
L 1157.922162 302.645455 
L 1155.223466 302.645455 
L 1152.52477 302.645455 
L 1149.826074 302.645455 
L 1147.127378 302.645455 
L 1144.428683 302.645455 
L 1141.729987 302.645455 
L 1139.031291 302.645455 
L 1136.332595 302.645455 
L 1133.633899 302.645455 
L 1130.935203 302.645455 
L 1128.236508 302.645455 
L 1125.537812 302.645455 
L 1122.839116 302.645455 
L 1120.14042 302.645455 
L 1117.441724 302.645455 
L 1114.743028 302.645455 
L 1112.044332 302.645455 
L 1109.345637 302.645455 
L 1106.646941 302.645455 
L 1103.948245 302.645455 
L 1101.249549 302.645455 
L 1098.550853 302.645455 
L 1095.852157 302.645455 
L 1093.153462 302.645455 
L 1090.454766 302.645455 
L 1087.75607 302.645455 
L 1085.057374 302.645455 
L 1082.358678 302.645455 
L 1079.659982 302.645455 
L 1076.961287 302.645455 
L 1074.262591 302.645455 
L 1071.563895 302.645455 
L 1068.865199 302.645455 
L 1066.166503 302.645455 
L 1063.467807 302.645455 
L 1060.769111 302.645455 
L 1058.070416 302.645455 
L 1055.37172 302.645455 
L 1052.673024 302.645455 
L 1049.974328 302.645455 
L 1047.275632 302.645455 
L 1044.576936 302.645455 
L 1041.878241 302.645455 
L 1039.179545 302.645455 
L 1036.480849 302.645455 
L 1033.782153 302.645455 
L 1031.083457 302.645455 
L 1028.384761 302.645455 
L 1025.686065 302.645455 
L 1022.98737 302.645455 
L 1020.288674 302.645455 
L 1017.589978 302.645455 
L 1014.891282 302.645455 
L 1012.192586 302.645455 
L 1009.49389 302.645455 
L 1006.795195 302.645455 
L 1004.096499 302.645455 
L 1001.397803 302.645455 
L 998.699107 302.645455 
L 996.000411 302.645455 
L 993.301715 302.645455 
L 990.60302 302.645455 
L 987.904324 302.645455 
L 985.205628 302.645455 
L 982.506932 302.645455 
L 979.808236 302.645455 
L 977.10954 302.645455 
L 974.410844 302.645455 
L 971.712149 302.645455 
L 969.013453 302.645455 
L 966.314757 302.645455 
L 963.616061 302.645455 
L 960.917365 302.645455 
L 958.218669 302.645455 
L 955.519974 302.645455 
L 952.821278 302.645455 
L 950.122582 302.645455 
L 947.423886 302.645455 
L 944.72519 302.645455 
L 942.026494 302.645455 
L 939.327798 302.645455 
L 936.629103 302.645455 
L 933.930407 302.645455 
L 931.231711 302.645455 
L 928.533015 302.645455 
L 925.834319 302.645455 
L 923.135623 302.645455 
L 920.436928 302.645455 
L 917.738232 302.645455 
L 915.039536 302.645455 
L 912.34084 302.645455 
L 909.642144 302.645455 
L 906.943448 302.645455 
L 904.244753 302.645455 
L 901.546057 302.645455 
L 898.847361 302.645455 
L 896.148665 302.645455 
L 893.449969 302.645455 
L 890.751273 302.645455 
L 888.052577 302.645455 
L 885.353882 302.645455 
L 882.655186 302.645455 
L 879.95649 302.645455 
L 877.257794 302.645455 
L 874.559098 302.645455 
L 871.860402 302.645455 
L 869.161707 302.645455 
L 866.463011 302.645455 
L 863.764315 302.645455 
L 861.065619 302.645455 
L 858.366923 302.645455 
L 855.668227 302.645455 
L 852.969531 302.645455 
L 850.270836 302.645455 
L 847.57214 302.645455 
L 844.873444 302.645455 
L 842.174748 302.645455 
L 839.476052 302.645455 
L 836.777356 302.645455 
L 834.078661 302.645455 
L 831.379965 302.645455 
L 828.681269 302.645455 
L 825.982573 302.645455 
L 823.283877 302.645455 
L 820.585181 302.645455 
L 817.886486 302.645455 
L 815.18779 302.645455 
L 812.489094 302.645455 
L 809.790398 302.645455 
L 807.091702 302.645455 
L 804.393006 302.645455 
L 801.69431 302.645455 
L 798.995615 302.645455 
L 796.296919 302.645455 
L 793.598223 302.645455 
L 790.899527 302.645455 
L 788.200831 302.645455 
L 785.502135 302.645455 
L 782.80344 302.645455 
L 780.104744 302.645455 
L 777.406048 302.645455 
L 774.707352 302.645455 
L 772.008656 302.645455 
L 769.30996 302.645455 
L 766.611264 302.645455 
L 763.912569 302.645455 
L 761.213873 302.645455 
L 758.515177 302.645455 
L 755.816481 302.645455 
L 753.117785 302.645455 
L 750.419089 302.645455 
L 747.720394 302.645455 
L 745.021698 302.645455 
L 742.323002 302.645455 
L 739.624306 302.645455 
L 736.92561 302.645455 
L 734.226914 302.645455 
L 731.528219 302.645455 
L 728.829523 302.645455 
L 726.130827 302.645455 
L 723.432131 302.645455 
L 720.733435 302.645455 
L 718.034739 302.645455 
L 715.336043 302.645455 
L 712.637348 302.645455 
L 709.938652 302.645455 
L 707.239956 302.645455 
L 704.54126 302.645455 
L 701.842564 302.645455 
L 699.143868 302.645455 
L 696.445173 302.645455 
L 693.746477 302.645455 
L 691.047781 302.645455 
L 688.349085 302.645455 
L 685.650389 302.645455 
L 682.951693 302.645455 
L 680.252998 302.645455 
L 677.554302 302.645455 
L 674.855606 302.645455 
L 672.15691 302.645455 
L 669.458214 302.645455 
L 666.759518 302.645455 
L 664.060822 302.645455 
L 661.362127 302.645455 
L 658.663431 302.645455 
L 655.964735 302.645455 
L 653.266039 302.645455 
L 650.567343 302.645455 
L 647.868647 302.645455 
L 645.169952 302.645455 
L 642.471256 302.645455 
L 639.77256 302.645455 
L 637.073864 302.645455 
L 634.375168 302.645455 
L 631.676472 302.645455 
L 628.977776 302.645455 
L 626.279081 302.645455 
L 623.580385 302.645455 
L 620.881689 302.645455 
L 618.182993 302.645455 
L 615.484297 302.645455 
L 612.785601 302.645455 
L 610.086906 302.645455 
L 607.38821 302.645455 
L 604.689514 302.645455 
L 601.990818 302.645455 
L 599.292122 302.645455 
L 596.593426 302.645455 
L 593.894731 302.645455 
L 591.196035 302.645455 
L 588.497339 302.645455 
L 585.798643 302.645455 
L 583.099947 302.645455 
L 580.401251 302.645455 
L 577.702555 302.645455 
L 575.00386 302.645455 
L 572.305164 302.645455 
L 569.606468 302.645455 
L 566.907772 302.645455 
L 564.209076 302.645455 
L 561.51038 302.645455 
L 558.811685 302.645455 
L 556.112989 302.645455 
L 553.414293 302.645455 
L 550.715597 302.645455 
L 548.016901 302.645455 
L 545.318205 302.645455 
L 542.619509 302.645455 
L 539.920814 302.645455 
L 537.222118 302.645455 
L 534.523422 302.645455 
L 531.824726 302.645455 
L 529.12603 302.645455 
L 526.427334 302.645455 
L 523.728639 302.645455 
L 521.029943 302.645455 
L 518.331247 302.645455 
L 515.632551 302.645455 
L 512.933855 302.645455 
L 510.235159 302.645455 
L 507.536464 302.645455 
L 504.837768 302.645455 
L 502.139072 302.645455 
L 499.440376 302.645455 
L 496.74168 302.645455 
L 494.042984 302.645455 
L 491.344288 302.645455 
L 488.645593 302.645455 
L 485.946897 302.645455 
L 483.248201 302.645455 
L 480.549505 302.645455 
L 477.850809 302.645455 
L 475.152113 302.645455 
L 472.453418 302.645455 
L 469.754722 302.645455 
L 467.056026 302.645455 
L 464.35733 302.645455 
L 461.658634 302.645455 
L 458.959938 302.645455 
L 456.261242 302.645455 
L 453.562547 302.645455 
L 450.863851 302.645455 
L 448.165155 302.645455 
L 445.466459 302.645455 
L 442.767763 302.645455 
L 440.069067 302.645455 
L 437.370372 302.645455 
L 434.671676 302.645455 
L 431.97298 302.645455 
L 429.274284 302.645455 
L 426.575588 302.645455 
L 423.876892 302.645455 
L 421.178197 302.645455 
L 418.479501 302.645455 
L 415.780805 302.645455 
L 413.082109 302.645455 
L 410.383413 302.645455 
L 407.684717 302.645455 
L 404.986021 302.645455 
L 402.287326 302.645455 
L 399.58863 302.645455 
L 396.889934 302.645455 
L 394.191238 302.645455 
L 391.492542 302.645455 
L 388.793846 302.645455 
L 386.095151 302.645455 
L 383.396455 302.645455 
L 380.697759 302.645455 
L 377.999063 302.645455 
L 375.300367 302.645455 
L 372.601671 302.645455 
L 369.902975 302.645455 
L 367.20428 302.645455 
L 364.505584 302.645455 
L 361.806888 302.645455 
L 359.108192 302.645455 
L 356.409496 302.645455 
L 353.7108 302.645455 
L 351.012105 302.645455 
L 348.313409 302.645455 
L 345.614713 302.645455 
L 342.916017 302.645455 
L 340.217321 302.645455 
L 337.518625 302.645455 
L 334.81993 302.645455 
L 332.121234 302.645455 
L 329.422538 302.645455 
L 326.723842 302.645455 
L 324.025146 302.645455 
L 321.32645 302.645455 
L 318.627754 302.645455 
L 315.929059 302.645455 
L 313.230363 302.645455 
L 310.531667 302.645455 
L 307.832971 302.645455 
L 305.134275 302.645455 
L 302.435579 302.645455 
L 299.736884 302.645455 
L 297.038188 302.645455 
L 294.339492 302.645455 
L 291.640796 302.645455 
L 288.9421 302.645455 
L 286.243404 302.645455 
L 283.544708 302.645455 
L 280.846013 302.645455 
L 278.147317 302.645455 
L 275.448621 302.645455 
L 272.749925 302.645455 
L 270.051229 302.645455 
L 267.352533 302.645455 
L 264.653838 302.645455 
L 261.955142 302.645455 
L 259.256446 302.645455 
L 256.55775 302.645455 
L 253.859054 302.645455 
L 251.160358 302.645455 
L 248.461663 302.645455 
L 245.762967 302.645455 
L 243.064271 302.645455 
L 240.365575 302.645455 
L 237.666879 302.645455 
L 234.968183 302.645455 
L 232.269487 302.645455 
L 229.570792 302.645455 
L 226.872096 302.645455 
L 224.1734 302.645455 
L 221.474704 302.645455 
L 218.776008 302.645455 
L 216.077312 302.645455 
L 213.378617 302.645455 
L 210.679921 302.645455 
L 207.981225 302.645455 
L 205.282529 302.645455 
L 202.583833 302.645455 
L 199.885137 302.645455 
L 197.186441 302.645455 
L 194.487746 302.645455 
L 191.78905 302.645455 
L 189.090354 302.645455 
L 186.391658 302.645455 
L 183.692962 302.645455 
L 180.994266 302.645455 
L 178.295571 302.645455 
L 175.596875 302.645455 
L 172.898179 302.645455 
L 170.199483 302.645455 
L 167.500787 302.645455 
L 164.802091 302.645455 
L 162.103396 302.645455 
L 159.4047 302.645455 
L 156.706004 302.645455 
L 154.007308 302.645455 
L 151.308612 302.645455 
L 148.609916 302.645455 
L 145.91122 302.645455 
L 143.212525 302.645455 
L 140.513829 302.645455 
L 137.815133 302.645455 
L 135.116437 302.645455 
L 132.417741 302.645455 
L 129.719045 302.645455 
L 127.02035 302.645455 
L 124.321654 302.645455 
L 121.622958 302.645455 
L 118.924262 302.645455 
L 116.225566 302.645455 
L 113.52687 302.645455 
L 110.828175 302.645455 
L 108.129479 302.645455 
L 105.430783 302.645455 
L 102.732087 302.645455 
L 100.033391 302.645455 
L 97.334695 302.645455 
L 94.635999 302.645455 
L 91.937304 302.645455 
L 89.238608 302.645455 
L 86.539912 302.645455 
L 83.841216 302.645455 
L 81.14252 302.645455 
L 78.443824 302.645455 
L 75.745129 302.645455 
L 73.046433 302.645455 
L 70.347737 302.645455 
L 67.649041 302.645455 
L 64.950345 302.645455 
L 62.251649 302.645455 
L 59.552953 302.645455 
L 56.854258 302.645455 
L 54.155562 302.645455 
L 51.456866 302.645455 
L 48.75817 302.645455 
L 46.059474 302.645455 
L 43.360778 302.645455 
L 40.662083 302.645455 
L 37.963387 302.645455 
L 35.264691 302.645455 
L 32.565995 302.645455 
L 29.867299 302.645455 
L 27.168603 302.645455 
L 24.469908 302.645455 
L 21.771212 302.645455 
L 19.072516 302.645455 
L 16.37382 302.645455 
L 13.675124 302.645455 
L 10.976428 302.645455 
L 8.277732 302.645455 
L 5.579037 302.645455 
L 2.880341 302.645455 
L 0.181645 302.645455 
L -2.517051 302.645455 
L -5.215747 302.645455 
L -7.914443 302.645455 
L -10.613138 302.645455 
L -13.311834 302.645455 
L -16.01053 302.645455 
L -18.709226 302.645455 
L -21.407922 302.645455 
L -24.106618 302.645455 
L -26.805314 302.645455 
L -29.504009 302.645455 
L -32.202705 302.645455 
z
" style="fill:#377eb8;fill-opacity:0.1;stroke:#377eb8;stroke-opacity:0.1;"/>
   </g>
   <g id="PolyCollection_2">
    <path clip-path="url(#p262085ff8c)" d="M -32.202705 302.645455 
L -32.202705 302.645455 
L -29.504009 302.645455 
L -26.805314 302.645455 
L -24.106618 302.645455 
L -21.407922 302.645455 
L -18.709226 302.645455 
L -16.01053 302.645455 
L -13.311834 302.645455 
L -10.613138 302.645455 
L -7.914443 302.645455 
L -5.215747 302.645455 
L -2.517051 302.645455 
L 0.181645 302.645455 
L 2.880341 302.645455 
L 5.579037 302.645455 
L 8.277732 302.645455 
L 10.976428 302.645455 
L 13.675124 302.645455 
L 16.37382 302.645455 
L 19.072516 302.645455 
L 21.771212 302.645455 
L 24.469908 302.645455 
L 27.168603 302.645455 
L 29.867299 302.645455 
L 32.565995 302.645455 
L 35.264691 302.645455 
L 37.963387 302.645455 
L 40.662083 302.645455 
L 43.360778 302.645455 
L 46.059474 302.645455 
L 48.75817 302.645455 
L 51.456866 302.645455 
L 54.155562 302.645455 
L 56.854258 302.645455 
L 59.552953 302.645455 
L 62.251649 302.645455 
L 64.950345 302.645455 
L 67.649041 302.645455 
L 70.347737 302.645455 
L 73.046433 302.645455 
L 75.745129 302.645455 
L 78.443824 302.645455 
L 81.14252 302.645455 
L 83.841216 302.645455 
L 86.539912 302.645455 
L 89.238608 302.645455 
L 91.937304 302.645455 
L 94.635999 302.645455 
L 97.334695 302.645455 
L 100.033391 302.645455 
L 102.732087 302.645455 
L 105.430783 302.645455 
L 108.129479 302.645455 
L 110.828175 302.645455 
L 113.52687 302.645455 
L 116.225566 302.645455 
L 118.924262 302.645455 
L 121.622958 302.645455 
L 124.321654 302.645455 
L 127.02035 302.645455 
L 129.719045 302.645455 
L 132.417741 302.645455 
L 135.116437 302.645455 
L 137.815133 302.645455 
L 140.513829 302.645455 
L 143.212525 302.645455 
L 145.91122 302.645455 
L 148.609916 302.645455 
L 151.308612 302.645455 
L 154.007308 302.645455 
L 156.706004 302.645455 
L 159.4047 302.645455 
L 162.103396 302.645455 
L 164.802091 302.645455 
L 167.500787 302.645455 
L 170.199483 302.645455 
L 172.898179 302.645455 
L 175.596875 302.645455 
L 178.295571 302.645455 
L 180.994266 302.645455 
L 183.692962 302.645455 
L 186.391658 302.645455 
L 189.090354 302.645455 
L 191.78905 302.645455 
L 194.487746 302.645455 
L 197.186441 302.645455 
L 199.885137 302.645455 
L 202.583833 302.645455 
L 205.282529 302.645455 
L 207.981225 302.645455 
L 210.679921 302.645455 
L 213.378617 302.645455 
L 216.077312 302.645455 
L 218.776008 302.645455 
L 221.474704 302.645455 
L 224.1734 302.645455 
L 226.872096 302.645455 
L 229.570792 302.645455 
L 232.269487 302.645455 
L 234.968183 302.645455 
L 237.666879 302.645455 
L 240.365575 302.645455 
L 243.064271 302.645455 
L 245.762967 302.645455 
L 248.461663 302.645455 
L 251.160358 302.645455 
L 253.859054 302.645455 
L 256.55775 302.645455 
L 259.256446 302.645455 
L 261.955142 302.645455 
L 264.653838 302.645455 
L 267.352533 302.645455 
L 270.051229 302.645455 
L 272.749925 302.645455 
L 275.448621 302.645455 
L 278.147317 302.645455 
L 280.846013 302.645455 
L 283.544708 302.645455 
L 286.243404 302.645455 
L 288.9421 302.645455 
L 291.640796 302.645455 
L 294.339492 302.645455 
L 297.038188 302.645455 
L 299.736884 302.645455 
L 302.435579 302.645455 
L 305.134275 302.645455 
L 307.832971 302.645455 
L 310.531667 302.645455 
L 313.230363 302.645455 
L 315.929059 302.645455 
L 318.627754 302.645455 
L 321.32645 302.645455 
L 324.025146 302.645455 
L 326.723842 302.645455 
L 329.422538 302.645455 
L 332.121234 302.645455 
L 334.81993 302.645455 
L 337.518625 302.645455 
L 340.217321 302.645455 
L 342.916017 302.645455 
L 345.614713 302.645455 
L 348.313409 302.645455 
L 351.012105 302.645455 
L 353.7108 302.645455 
L 356.409496 302.645455 
L 359.108192 302.645455 
L 361.806888 302.645455 
L 364.505584 302.645455 
L 367.20428 302.645455 
L 369.902975 302.645455 
L 372.601671 302.645455 
L 375.300367 302.645455 
L 377.999063 302.645455 
L 380.697759 302.645455 
L 383.396455 302.645455 
L 386.095151 302.645455 
L 388.793846 302.645455 
L 391.492542 302.645455 
L 394.191238 302.645455 
L 396.889934 302.645455 
L 399.58863 302.645455 
L 402.287326 302.645455 
L 404.986021 302.645455 
L 407.684717 302.645455 
L 410.383413 302.645455 
L 413.082109 302.645455 
L 415.780805 302.645455 
L 418.479501 302.645455 
L 421.178197 302.645455 
L 423.876892 302.645455 
L 426.575588 302.645455 
L 429.274284 302.645455 
L 431.97298 302.645455 
L 434.671676 302.645455 
L 437.370372 302.645455 
L 440.069067 302.645455 
L 442.767763 302.645455 
L 445.466459 302.645455 
L 448.165155 302.645455 
L 450.863851 302.645455 
L 453.562547 302.645455 
L 456.261242 302.645455 
L 458.959938 302.645455 
L 461.658634 302.645455 
L 464.35733 302.645455 
L 467.056026 302.645455 
L 469.754722 302.645455 
L 472.453418 302.645455 
L 475.152113 302.645455 
L 477.850809 302.645455 
L 480.549505 302.645455 
L 483.248201 302.645455 
L 485.946897 302.645455 
L 488.645593 302.645455 
L 491.344288 302.645455 
L 494.042984 302.645455 
L 496.74168 302.645455 
L 499.440376 302.645455 
L 502.139072 302.645455 
L 504.837768 302.645455 
L 507.536464 302.645455 
L 510.235159 302.645455 
L 512.933855 302.645455 
L 515.632551 302.645455 
L 518.331247 302.645455 
L 521.029943 302.645455 
L 523.728639 302.645455 
L 526.427334 302.645455 
L 529.12603 302.645455 
L 531.824726 302.645455 
L 534.523422 302.645455 
L 537.222118 302.645455 
L 539.920814 302.645455 
L 542.619509 302.645455 
L 545.318205 302.645455 
L 548.016901 302.645455 
L 550.715597 302.645455 
L 553.414293 302.645455 
L 556.112989 302.645455 
L 558.811685 302.645455 
L 561.51038 302.645455 
L 564.209076 302.645455 
L 566.907772 302.645455 
L 569.606468 302.645455 
L 572.305164 302.645455 
L 575.00386 302.645455 
L 577.702555 302.645455 
L 580.401251 302.645455 
L 583.099947 302.645455 
L 585.798643 302.645455 
L 588.497339 302.645455 
L 591.196035 302.645454 
L 593.894731 302.645454 
L 596.593426 302.645454 
L 599.292122 302.645454 
L 601.990818 302.645454 
L 604.689514 302.645454 
L 607.38821 302.645454 
L 610.086906 302.645454 
L 612.785601 302.645454 
L 615.484297 302.645454 
L 618.182993 302.645453 
L 620.881689 302.645453 
L 623.580385 302.645452 
L 626.279081 302.645451 
L 628.977776 302.64545 
L 631.676472 302.645448 
L 634.375168 302.645446 
L 637.073864 302.645443 
L 639.77256 302.645439 
L 642.471256 302.645434 
L 645.169952 302.645427 
L 647.868647 302.645418 
L 650.567343 302.645406 
L 653.266039 302.64539 
L 655.964735 302.64537 
L 658.663431 302.645342 
L 661.362127 302.645307 
L 664.060822 302.645261 
L 666.759518 302.6452 
L 669.458214 302.645123 
L 672.15691 302.645022 
L 674.855606 302.644892 
L 677.554302 302.644725 
L 680.252998 302.644511 
L 682.951693 302.644238 
L 685.650389 302.64389 
L 688.349085 302.643447 
L 691.047781 302.642885 
L 693.746477 302.642175 
L 696.445173 302.641279 
L 699.143868 302.640154 
L 701.842564 302.638742 
L 704.54126 302.636976 
L 707.239956 302.634774 
L 709.938652 302.632035 
L 712.637348 302.628639 
L 715.336043 302.624437 
L 718.034739 302.619255 
L 720.733435 302.612881 
L 723.432131 302.605061 
L 726.130827 302.595496 
L 728.829523 302.583828 
L 731.528219 302.569633 
L 734.226914 302.552413 
L 736.92561 302.531581 
L 739.624306 302.506451 
L 742.323002 302.476218 
L 745.021698 302.43995 
L 747.720394 302.396562 
L 750.419089 302.344804 
L 753.117785 302.283234 
L 755.816481 302.210197 
L 758.515177 302.123804 
L 761.213873 302.021899 
L 763.912569 301.90204 
L 766.611264 301.761462 
L 769.30996 301.597055 
L 772.008656 301.405327 
L 774.707352 301.182378 
L 777.406048 300.923868 
L 780.104744 300.624988 
L 782.80344 300.280429 
L 785.502135 299.884361 
L 788.200831 299.430407 
L 790.899527 298.911621 
L 793.598223 298.320479 
L 796.296919 297.648868 
L 798.995615 296.888082 
L 801.69431 296.028832 
L 804.393006 295.061258 
L 807.091702 293.974959 
L 809.790398 292.759027 
L 812.489094 291.402097 
L 815.18779 289.892413 
L 817.886486 288.217902 
L 820.585181 286.366268 
L 823.283877 284.325101 
L 825.982573 282.081996 
L 828.681269 279.624697 
L 831.379965 276.941248 
L 834.078661 274.020163 
L 836.777356 270.850605 
L 839.476052 267.422581 
L 842.174748 263.72715 
L 844.873444 259.756625 
L 847.57214 255.5048 
L 850.270836 250.967162 
L 852.969531 246.141109 
L 855.668227 241.026166 
L 858.366923 235.624186 
L 861.065619 229.939539 
L 863.764315 223.979287 
L 866.463011 217.753335 
L 869.161707 211.274556 
L 871.860402 204.558883 
L 874.559098 197.625372 
L 877.257794 190.496226 
L 879.95649 183.196772 
L 882.655186 175.755402 
L 885.353882 168.203466 
L 888.052577 160.575116 
L 890.751273 152.907104 
L 893.449969 145.238538 
L 896.148665 137.610585 
L 898.847361 130.066133 
L 901.546057 122.649419 
L 904.244753 115.405616 
L 906.943448 108.380386 
L 909.642144 101.619417 
L 912.34084 95.167935 
L 915.039536 89.070206 
L 917.738232 83.369035 
L 920.436928 78.105267 
L 923.135623 73.317303 
L 925.834319 69.040636 
L 928.533015 65.307409 
L 931.231711 62.146017 
L 933.930407 59.580746 
L 936.629103 57.631463 
L 939.327798 56.313357 
L 942.026494 55.636748 
L 944.72519 55.606946 
L 947.423886 56.224185 
L 950.122582 57.48362 
L 952.821278 59.375389 
L 955.519974 61.884742 
L 958.218669 64.992232 
L 960.917365 68.673969 
L 963.616061 72.901921 
L 966.314757 77.644273 
L 969.013453 82.865824 
L 971.712149 88.528421 
L 974.410844 94.591423 
L 977.10954 101.012186 
L 979.808236 107.746556 
L 982.506932 114.749376 
L 985.205628 121.974979 
L 987.904324 129.37768 
L 990.60302 136.912244 
L 993.301715 144.534329 
L 996.000411 152.200907 
L 998.699107 159.870636 
L 1001.397803 167.504209 
L 1004.096499 175.064644 
L 1006.795195 182.517541 
L 1009.49389 189.831285 
L 1012.192586 196.977207 
L 1014.891282 203.929694 
L 1017.589978 210.666254 
L 1020.288674 217.167544 
L 1022.98737 223.417343 
L 1025.686065 229.402501 
L 1028.384761 235.112844 
L 1031.083457 240.541056 
L 1033.782153 245.682524 
L 1036.480849 250.535173 
L 1039.179545 255.099271 
L 1041.878241 259.377234 
L 1044.576936 263.373407 
L 1047.275632 267.09385 
L 1049.974328 270.546123 
L 1052.673024 273.73906 
L 1055.37172 276.682567 
L 1058.070416 279.38741 
L 1060.769111 281.865024 
L 1063.467807 284.127329 
L 1066.166503 286.18656 
L 1068.865199 288.055115 
L 1071.563895 289.745407 
L 1074.262591 291.269749 
L 1076.961287 292.640237 
L 1079.659982 293.868662 
L 1082.358678 294.966426 
L 1085.057374 295.944481 
L 1087.75607 296.813279 
L 1090.454766 297.582728 
L 1093.153462 298.262172 
L 1095.852157 298.86037 
L 1098.550853 299.38549 
L 1101.249549 299.845111 
L 1103.948245 300.24623 
L 1106.646941 300.595276 
L 1109.345637 300.898131 
L 1112.044332 301.160147 
L 1114.743028 301.38618 
L 1117.441724 301.580611 
L 1120.14042 301.747381 
L 1122.839116 301.890015 
L 1125.537812 302.01166 
L 1128.236508 302.11511 
L 1130.935203 302.202837 
L 1133.633899 302.277019 
L 1136.332595 302.339572 
L 1139.031291 302.39217 
L 1141.729987 302.436273 
L 1144.428683 302.473148 
L 1147.127378 302.503895 
L 1149.826074 302.52946 
L 1152.52477 302.550657 
L 1155.223466 302.568183 
L 1157.922162 302.582634 
L 1160.620858 302.594516 
L 1163.319554 302.604259 
L 1166.018249 302.612226 
L 1168.716945 302.618722 
L 1171.415641 302.624004 
L 1174.114337 302.628288 
L 1176.813033 302.631752 
L 1179.511729 302.634546 
L 1182.210424 302.636793 
L 1184.90912 302.638595 
L 1187.607816 302.640037 
L 1190.306512 302.641186 
L 1193.005208 302.642101 
L 1195.703904 302.642826 
L 1198.402599 302.6434 
L 1201.101295 302.643853 
L 1203.799991 302.644209 
L 1206.498687 302.644489 
L 1209.197383 302.644708 
L 1211.896079 302.644878 
L 1214.594775 302.645011 
L 1217.29347 302.645114 
L 1219.992166 302.645194 
L 1222.690862 302.645256 
L 1225.389558 302.645303 
L 1228.088254 302.64534 
L 1230.78695 302.645367 
L 1233.485645 302.645389 
L 1236.184341 302.645405 
L 1238.883037 302.645417 
L 1241.581733 302.645427 
L 1244.280429 302.645434 
L 1246.979125 302.645439 
L 1249.67782 302.645443 
L 1252.376516 302.645446 
L 1255.075212 302.645448 
L 1257.773908 302.64545 
L 1260.472604 302.645451 
L 1263.1713 302.645452 
L 1265.869996 302.645453 
L 1268.568691 302.645453 
L 1271.267387 302.645454 
L 1273.966083 302.645454 
L 1276.664779 302.645454 
L 1279.363475 302.645454 
L 1282.062171 302.645454 
L 1284.760866 302.645454 
L 1287.459562 302.645454 
L 1290.158258 302.645454 
L 1292.856954 302.645454 
L 1295.55565 302.645454 
L 1298.254346 302.645455 
L 1300.953042 302.645455 
L 1303.651737 302.645455 
L 1306.350433 302.645455 
L 1309.049129 302.645455 
L 1311.747825 302.645455 
L 1314.446521 302.645455 
L 1314.446521 302.645455 
L 1314.446521 302.645455 
L 1311.747825 302.645455 
L 1309.049129 302.645455 
L 1306.350433 302.645455 
L 1303.651737 302.645455 
L 1300.953042 302.645455 
L 1298.254346 302.645455 
L 1295.55565 302.645455 
L 1292.856954 302.645455 
L 1290.158258 302.645455 
L 1287.459562 302.645455 
L 1284.760866 302.645455 
L 1282.062171 302.645455 
L 1279.363475 302.645455 
L 1276.664779 302.645455 
L 1273.966083 302.645455 
L 1271.267387 302.645455 
L 1268.568691 302.645455 
L 1265.869996 302.645455 
L 1263.1713 302.645455 
L 1260.472604 302.645455 
L 1257.773908 302.645455 
L 1255.075212 302.645455 
L 1252.376516 302.645455 
L 1249.67782 302.645455 
L 1246.979125 302.645455 
L 1244.280429 302.645455 
L 1241.581733 302.645455 
L 1238.883037 302.645455 
L 1236.184341 302.645455 
L 1233.485645 302.645455 
L 1230.78695 302.645455 
L 1228.088254 302.645455 
L 1225.389558 302.645455 
L 1222.690862 302.645455 
L 1219.992166 302.645455 
L 1217.29347 302.645455 
L 1214.594775 302.645455 
L 1211.896079 302.645455 
L 1209.197383 302.645455 
L 1206.498687 302.645455 
L 1203.799991 302.645455 
L 1201.101295 302.645455 
L 1198.402599 302.645455 
L 1195.703904 302.645455 
L 1193.005208 302.645455 
L 1190.306512 302.645455 
L 1187.607816 302.645455 
L 1184.90912 302.645455 
L 1182.210424 302.645455 
L 1179.511729 302.645455 
L 1176.813033 302.645455 
L 1174.114337 302.645455 
L 1171.415641 302.645455 
L 1168.716945 302.645455 
L 1166.018249 302.645455 
L 1163.319554 302.645455 
L 1160.620858 302.645455 
L 1157.922162 302.645455 
L 1155.223466 302.645455 
L 1152.52477 302.645455 
L 1149.826074 302.645455 
L 1147.127378 302.645455 
L 1144.428683 302.645455 
L 1141.729987 302.645455 
L 1139.031291 302.645455 
L 1136.332595 302.645455 
L 1133.633899 302.645455 
L 1130.935203 302.645455 
L 1128.236508 302.645455 
L 1125.537812 302.645455 
L 1122.839116 302.645455 
L 1120.14042 302.645455 
L 1117.441724 302.645455 
L 1114.743028 302.645455 
L 1112.044332 302.645455 
L 1109.345637 302.645455 
L 1106.646941 302.645455 
L 1103.948245 302.645455 
L 1101.249549 302.645455 
L 1098.550853 302.645455 
L 1095.852157 302.645455 
L 1093.153462 302.645455 
L 1090.454766 302.645455 
L 1087.75607 302.645455 
L 1085.057374 302.645455 
L 1082.358678 302.645455 
L 1079.659982 302.645455 
L 1076.961287 302.645455 
L 1074.262591 302.645455 
L 1071.563895 302.645455 
L 1068.865199 302.645455 
L 1066.166503 302.645455 
L 1063.467807 302.645455 
L 1060.769111 302.645455 
L 1058.070416 302.645455 
L 1055.37172 302.645455 
L 1052.673024 302.645455 
L 1049.974328 302.645455 
L 1047.275632 302.645455 
L 1044.576936 302.645455 
L 1041.878241 302.645455 
L 1039.179545 302.645455 
L 1036.480849 302.645455 
L 1033.782153 302.645455 
L 1031.083457 302.645455 
L 1028.384761 302.645455 
L 1025.686065 302.645455 
L 1022.98737 302.645455 
L 1020.288674 302.645455 
L 1017.589978 302.645455 
L 1014.891282 302.645455 
L 1012.192586 302.645455 
L 1009.49389 302.645455 
L 1006.795195 302.645455 
L 1004.096499 302.645455 
L 1001.397803 302.645455 
L 998.699107 302.645455 
L 996.000411 302.645455 
L 993.301715 302.645455 
L 990.60302 302.645455 
L 987.904324 302.645455 
L 985.205628 302.645455 
L 982.506932 302.645455 
L 979.808236 302.645455 
L 977.10954 302.645455 
L 974.410844 302.645455 
L 971.712149 302.645455 
L 969.013453 302.645455 
L 966.314757 302.645455 
L 963.616061 302.645455 
L 960.917365 302.645455 
L 958.218669 302.645455 
L 955.519974 302.645455 
L 952.821278 302.645455 
L 950.122582 302.645455 
L 947.423886 302.645455 
L 944.72519 302.645455 
L 942.026494 302.645455 
L 939.327798 302.645455 
L 936.629103 302.645455 
L 933.930407 302.645455 
L 931.231711 302.645455 
L 928.533015 302.645455 
L 925.834319 302.645455 
L 923.135623 302.645455 
L 920.436928 302.645455 
L 917.738232 302.645455 
L 915.039536 302.645455 
L 912.34084 302.645455 
L 909.642144 302.645455 
L 906.943448 302.645455 
L 904.244753 302.645455 
L 901.546057 302.645455 
L 898.847361 302.645455 
L 896.148665 302.645455 
L 893.449969 302.645455 
L 890.751273 302.645455 
L 888.052577 302.645455 
L 885.353882 302.645455 
L 882.655186 302.645455 
L 879.95649 302.645455 
L 877.257794 302.645455 
L 874.559098 302.645455 
L 871.860402 302.645455 
L 869.161707 302.645455 
L 866.463011 302.645455 
L 863.764315 302.645455 
L 861.065619 302.645455 
L 858.366923 302.645455 
L 855.668227 302.645455 
L 852.969531 302.645455 
L 850.270836 302.645455 
L 847.57214 302.645455 
L 844.873444 302.645455 
L 842.174748 302.645455 
L 839.476052 302.645455 
L 836.777356 302.645455 
L 834.078661 302.645455 
L 831.379965 302.645455 
L 828.681269 302.645455 
L 825.982573 302.645455 
L 823.283877 302.645455 
L 820.585181 302.645455 
L 817.886486 302.645455 
L 815.18779 302.645455 
L 812.489094 302.645455 
L 809.790398 302.645455 
L 807.091702 302.645455 
L 804.393006 302.645455 
L 801.69431 302.645455 
L 798.995615 302.645455 
L 796.296919 302.645455 
L 793.598223 302.645455 
L 790.899527 302.645455 
L 788.200831 302.645455 
L 785.502135 302.645455 
L 782.80344 302.645455 
L 780.104744 302.645455 
L 777.406048 302.645455 
L 774.707352 302.645455 
L 772.008656 302.645455 
L 769.30996 302.645455 
L 766.611264 302.645455 
L 763.912569 302.645455 
L 761.213873 302.645455 
L 758.515177 302.645455 
L 755.816481 302.645455 
L 753.117785 302.645455 
L 750.419089 302.645455 
L 747.720394 302.645455 
L 745.021698 302.645455 
L 742.323002 302.645455 
L 739.624306 302.645455 
L 736.92561 302.645455 
L 734.226914 302.645455 
L 731.528219 302.645455 
L 728.829523 302.645455 
L 726.130827 302.645455 
L 723.432131 302.645455 
L 720.733435 302.645455 
L 718.034739 302.645455 
L 715.336043 302.645455 
L 712.637348 302.645455 
L 709.938652 302.645455 
L 707.239956 302.645455 
L 704.54126 302.645455 
L 701.842564 302.645455 
L 699.143868 302.645455 
L 696.445173 302.645455 
L 693.746477 302.645455 
L 691.047781 302.645455 
L 688.349085 302.645455 
L 685.650389 302.645455 
L 682.951693 302.645455 
L 680.252998 302.645455 
L 677.554302 302.645455 
L 674.855606 302.645455 
L 672.15691 302.645455 
L 669.458214 302.645455 
L 666.759518 302.645455 
L 664.060822 302.645455 
L 661.362127 302.645455 
L 658.663431 302.645455 
L 655.964735 302.645455 
L 653.266039 302.645455 
L 650.567343 302.645455 
L 647.868647 302.645455 
L 645.169952 302.645455 
L 642.471256 302.645455 
L 639.77256 302.645455 
L 637.073864 302.645455 
L 634.375168 302.645455 
L 631.676472 302.645455 
L 628.977776 302.645455 
L 626.279081 302.645455 
L 623.580385 302.645455 
L 620.881689 302.645455 
L 618.182993 302.645455 
L 615.484297 302.645455 
L 612.785601 302.645455 
L 610.086906 302.645455 
L 607.38821 302.645455 
L 604.689514 302.645455 
L 601.990818 302.645455 
L 599.292122 302.645455 
L 596.593426 302.645455 
L 593.894731 302.645455 
L 591.196035 302.645455 
L 588.497339 302.645455 
L 585.798643 302.645455 
L 583.099947 302.645455 
L 580.401251 302.645455 
L 577.702555 302.645455 
L 575.00386 302.645455 
L 572.305164 302.645455 
L 569.606468 302.645455 
L 566.907772 302.645455 
L 564.209076 302.645455 
L 561.51038 302.645455 
L 558.811685 302.645455 
L 556.112989 302.645455 
L 553.414293 302.645455 
L 550.715597 302.645455 
L 548.016901 302.645455 
L 545.318205 302.645455 
L 542.619509 302.645455 
L 539.920814 302.645455 
L 537.222118 302.645455 
L 534.523422 302.645455 
L 531.824726 302.645455 
L 529.12603 302.645455 
L 526.427334 302.645455 
L 523.728639 302.645455 
L 521.029943 302.645455 
L 518.331247 302.645455 
L 515.632551 302.645455 
L 512.933855 302.645455 
L 510.235159 302.645455 
L 507.536464 302.645455 
L 504.837768 302.645455 
L 502.139072 302.645455 
L 499.440376 302.645455 
L 496.74168 302.645455 
L 494.042984 302.645455 
L 491.344288 302.645455 
L 488.645593 302.645455 
L 485.946897 302.645455 
L 483.248201 302.645455 
L 480.549505 302.645455 
L 477.850809 302.645455 
L 475.152113 302.645455 
L 472.453418 302.645455 
L 469.754722 302.645455 
L 467.056026 302.645455 
L 464.35733 302.645455 
L 461.658634 302.645455 
L 458.959938 302.645455 
L 456.261242 302.645455 
L 453.562547 302.645455 
L 450.863851 302.645455 
L 448.165155 302.645455 
L 445.466459 302.645455 
L 442.767763 302.645455 
L 440.069067 302.645455 
L 437.370372 302.645455 
L 434.671676 302.645455 
L 431.97298 302.645455 
L 429.274284 302.645455 
L 426.575588 302.645455 
L 423.876892 302.645455 
L 421.178197 302.645455 
L 418.479501 302.645455 
L 415.780805 302.645455 
L 413.082109 302.645455 
L 410.383413 302.645455 
L 407.684717 302.645455 
L 404.986021 302.645455 
L 402.287326 302.645455 
L 399.58863 302.645455 
L 396.889934 302.645455 
L 394.191238 302.645455 
L 391.492542 302.645455 
L 388.793846 302.645455 
L 386.095151 302.645455 
L 383.396455 302.645455 
L 380.697759 302.645455 
L 377.999063 302.645455 
L 375.300367 302.645455 
L 372.601671 302.645455 
L 369.902975 302.645455 
L 367.20428 302.645455 
L 364.505584 302.645455 
L 361.806888 302.645455 
L 359.108192 302.645455 
L 356.409496 302.645455 
L 353.7108 302.645455 
L 351.012105 302.645455 
L 348.313409 302.645455 
L 345.614713 302.645455 
L 342.916017 302.645455 
L 340.217321 302.645455 
L 337.518625 302.645455 
L 334.81993 302.645455 
L 332.121234 302.645455 
L 329.422538 302.645455 
L 326.723842 302.645455 
L 324.025146 302.645455 
L 321.32645 302.645455 
L 318.627754 302.645455 
L 315.929059 302.645455 
L 313.230363 302.645455 
L 310.531667 302.645455 
L 307.832971 302.645455 
L 305.134275 302.645455 
L 302.435579 302.645455 
L 299.736884 302.645455 
L 297.038188 302.645455 
L 294.339492 302.645455 
L 291.640796 302.645455 
L 288.9421 302.645455 
L 286.243404 302.645455 
L 283.544708 302.645455 
L 280.846013 302.645455 
L 278.147317 302.645455 
L 275.448621 302.645455 
L 272.749925 302.645455 
L 270.051229 302.645455 
L 267.352533 302.645455 
L 264.653838 302.645455 
L 261.955142 302.645455 
L 259.256446 302.645455 
L 256.55775 302.645455 
L 253.859054 302.645455 
L 251.160358 302.645455 
L 248.461663 302.645455 
L 245.762967 302.645455 
L 243.064271 302.645455 
L 240.365575 302.645455 
L 237.666879 302.645455 
L 234.968183 302.645455 
L 232.269487 302.645455 
L 229.570792 302.645455 
L 226.872096 302.645455 
L 224.1734 302.645455 
L 221.474704 302.645455 
L 218.776008 302.645455 
L 216.077312 302.645455 
L 213.378617 302.645455 
L 210.679921 302.645455 
L 207.981225 302.645455 
L 205.282529 302.645455 
L 202.583833 302.645455 
L 199.885137 302.645455 
L 197.186441 302.645455 
L 194.487746 302.645455 
L 191.78905 302.645455 
L 189.090354 302.645455 
L 186.391658 302.645455 
L 183.692962 302.645455 
L 180.994266 302.645455 
L 178.295571 302.645455 
L 175.596875 302.645455 
L 172.898179 302.645455 
L 170.199483 302.645455 
L 167.500787 302.645455 
L 164.802091 302.645455 
L 162.103396 302.645455 
L 159.4047 302.645455 
L 156.706004 302.645455 
L 154.007308 302.645455 
L 151.308612 302.645455 
L 148.609916 302.645455 
L 145.91122 302.645455 
L 143.212525 302.645455 
L 140.513829 302.645455 
L 137.815133 302.645455 
L 135.116437 302.645455 
L 132.417741 302.645455 
L 129.719045 302.645455 
L 127.02035 302.645455 
L 124.321654 302.645455 
L 121.622958 302.645455 
L 118.924262 302.645455 
L 116.225566 302.645455 
L 113.52687 302.645455 
L 110.828175 302.645455 
L 108.129479 302.645455 
L 105.430783 302.645455 
L 102.732087 302.645455 
L 100.033391 302.645455 
L 97.334695 302.645455 
L 94.635999 302.645455 
L 91.937304 302.645455 
L 89.238608 302.645455 
L 86.539912 302.645455 
L 83.841216 302.645455 
L 81.14252 302.645455 
L 78.443824 302.645455 
L 75.745129 302.645455 
L 73.046433 302.645455 
L 70.347737 302.645455 
L 67.649041 302.645455 
L 64.950345 302.645455 
L 62.251649 302.645455 
L 59.552953 302.645455 
L 56.854258 302.645455 
L 54.155562 302.645455 
L 51.456866 302.645455 
L 48.75817 302.645455 
L 46.059474 302.645455 
L 43.360778 302.645455 
L 40.662083 302.645455 
L 37.963387 302.645455 
L 35.264691 302.645455 
L 32.565995 302.645455 
L 29.867299 302.645455 
L 27.168603 302.645455 
L 24.469908 302.645455 
L 21.771212 302.645455 
L 19.072516 302.645455 
L 16.37382 302.645455 
L 13.675124 302.645455 
L 10.976428 302.645455 
L 8.277732 302.645455 
L 5.579037 302.645455 
L 2.880341 302.645455 
L 0.181645 302.645455 
L -2.517051 302.645455 
L -5.215747 302.645455 
L -7.914443 302.645455 
L -10.613138 302.645455 
L -13.311834 302.645455 
L -16.01053 302.645455 
L -18.709226 302.645455 
L -21.407922 302.645455 
L -24.106618 302.645455 
L -26.805314 302.645455 
L -29.504009 302.645455 
L -32.202705 302.645455 
z
" style="fill:#ff7f00;fill-opacity:0.1;stroke:#ff7f00;stroke-opacity:0.1;"/>
   </g>
   <g id="matplotlib.axis_1">
    <g id="xtick_1">
     <g id="line2d_1">
      <defs>
       <path d="M 0 0 
L 0 3.5 
" id="m2518ecf58a" style="stroke:#000000;stroke-width:0.8;"/>
      </defs>
      <g>
       <use style="stroke:#000000;stroke-width:0.8;" x="205.7" xlink:href="#m2518ecf58a" y="315"/>
      </g>
     </g>
     <g id="text_1">
      <!-- 4 -->
      <defs>
       <path d="M 10.59375 35.5 
L 73.1875 35.5 
L 73.1875 27.203125 
L 10.59375 27.203125 
z
" id="DejaVuSans-8722"/>
       <path d="M 37.796875 64.3125 
L 12.890625 25.390625 
L 37.796875 25.390625 
z
M 35.203125 72.90625 
L 47.609375 72.90625 
L 47.609375 25.390625 
L 58.015625 25.390625 
L 58.015625 17.1875 
L 47.609375 17.1875 
L 47.609375 0 
L 37.796875 0 
L 37.796875 17.1875 
L 4.890625 17.1875 
L 4.890625 26.703125 
z
" id="DejaVuSans-52"/>
      </defs>
      <g transform="translate(198.328906 329.598437)scale(0.1 -0.1)">
       <use xlink:href="#DejaVuSans-8722"/>
       <use x="83.789062" xlink:href="#DejaVuSans-52"/>
      </g>
     </g>
    </g>
    <g id="xtick_2">
     <g id="line2d_2">
      <g>
       <use style="stroke:#000000;stroke-width:0.8;" x="311.1" xlink:href="#m2518ecf58a" y="315"/>
      </g>
     </g>
     <g id="text_2">
      <!-- 3 -->
      <defs>
       <path d="M 40.578125 39.3125 
Q 47.65625 37.796875 51.625 33 
Q 55.609375 28.21875 55.609375 21.1875 
Q 55.609375 10.40625 48.1875 4.484375 
Q 40.765625 -1.421875 27.09375 -1.421875 
Q 22.515625 -1.421875 17.65625 -0.515625 
Q 12.796875 0.390625 7.625 2.203125 
L 7.625 11.71875 
Q 11.71875 9.328125 16.59375 8.109375 
Q 21.484375 6.890625 26.8125 6.890625 
Q 36.078125 6.890625 40.9375 10.546875 
Q 45.796875 14.203125 45.796875 21.1875 
Q 45.796875 27.640625 41.28125 31.265625 
Q 36.765625 34.90625 28.71875 34.90625 
L 20.21875 34.90625 
L 20.21875 43.015625 
L 29.109375 43.015625 
Q 36.375 43.015625 40.234375 45.921875 
Q 44.09375 48.828125 44.09375 54.296875 
Q 44.09375 59.90625 40.109375 62.90625 
Q 36.140625 65.921875 28.71875 65.921875 
Q 24.65625 65.921875 20.015625 65.03125 
Q 15.375 64.15625 9.8125 62.3125 
L 9.8125 71.09375 
Q 15.4375 72.65625 20.34375 73.4375 
Q 25.25 74.21875 29.59375 74.21875 
Q 40.828125 74.21875 47.359375 69.109375 
Q 53.90625 64.015625 53.90625 55.328125 
Q 53.90625 49.265625 50.4375 45.09375 
Q 46.96875 40.921875 40.578125 39.3125 
z
" id="DejaVuSans-51"/>
      </defs>
      <g transform="translate(303.728906 329.598437)scale(0.1 -0.1)">
       <use xlink:href="#DejaVuSans-8722"/>
       <use x="83.789062" xlink:href="#DejaVuSans-51"/>
      </g>
     </g>
    </g>
    <g id="xtick_3">
     <g id="line2d_3">
      <g>
       <use style="stroke:#000000;stroke-width:0.8;" x="416.5" xlink:href="#m2518ecf58a" y="315"/>
      </g>
     </g>
     <g id="text_3">
      <!-- 2 -->
      <defs>
       <path d="M 19.1875 8.296875 
L 53.609375 8.296875 
L 53.609375 0 
L 7.328125 0 
L 7.328125 8.296875 
Q 12.9375 14.109375 22.625 23.890625 
Q 32.328125 33.6875 34.8125 36.53125 
Q 39.546875 41.84375 41.421875 45.53125 
Q 43.3125 49.21875 43.3125 52.78125 
Q 43.3125 58.59375 39.234375 62.25 
Q 35.15625 65.921875 28.609375 65.921875 
Q 23.96875 65.921875 18.8125 64.3125 
Q 13.671875 62.703125 7.8125 59.421875 
L 7.8125 69.390625 
Q 13.765625 71.78125 18.9375 73 
Q 24.125 74.21875 28.421875 74.21875 
Q 39.75 74.21875 46.484375 68.546875 
Q 53.21875 62.890625 53.21875 53.421875 
Q 53.21875 48.921875 51.53125 44.890625 
Q 49.859375 40.875 45.40625 35.40625 
Q 44.1875 33.984375 37.640625 27.21875 
Q 31.109375 20.453125 19.1875 8.296875 
z
" id="DejaVuSans-50"/>
      </defs>
      <g transform="translate(409.128906 329.598437)scale(0.1 -0.1)">
       <use xlink:href="#DejaVuSans-8722"/>
       <use x="83.789062" xlink:href="#DejaVuSans-50"/>
      </g>
     </g>
    </g>
    <g id="xtick_4">
     <g id="line2d_4">
      <g>
       <use style="stroke:#000000;stroke-width:0.8;" x="521.9" xlink:href="#m2518ecf58a" y="315"/>
      </g>
     </g>
     <g id="text_4">
      <!-- 1 -->
      <defs>
       <path d="M 12.40625 8.296875 
L 28.515625 8.296875 
L 28.515625 63.921875 
L 10.984375 60.40625 
L 10.984375 69.390625 
L 28.421875 72.90625 
L 38.28125 72.90625 
L 38.28125 8.296875 
L 54.390625 8.296875 
L 54.390625 0 
L 12.40625 0 
z
" id="DejaVuSans-49"/>
      </defs>
      <g transform="translate(514.528906 329.598437)scale(0.1 -0.1)">
       <use xlink:href="#DejaVuSans-8722"/>
       <use x="83.789062" xlink:href="#DejaVuSans-49"/>
      </g>
     </g>
    </g>
    <g id="xtick_5">
     <g id="line2d_5">
      <g>
       <use style="stroke:#000000;stroke-width:0.8;" x="627.3" xlink:href="#m2518ecf58a" y="315"/>
      </g>
     </g>
     <g id="text_5">
      <!-- 0 -->
      <defs>
       <path d="M 31.78125 66.40625 
Q 24.171875 66.40625 20.328125 58.90625 
Q 16.5 51.421875 16.5 36.375 
Q 16.5 21.390625 20.328125 13.890625 
Q 24.171875 6.390625 31.78125 6.390625 
Q 39.453125 6.390625 43.28125 13.890625 
Q 47.125 21.390625 47.125 36.375 
Q 47.125 51.421875 43.28125 58.90625 
Q 39.453125 66.40625 31.78125 66.40625 
z
M 31.78125 74.21875 
Q 44.046875 74.21875 50.515625 64.515625 
Q 56.984375 54.828125 56.984375 36.375 
Q 56.984375 17.96875 50.515625 8.265625 
Q 44.046875 -1.421875 31.78125 -1.421875 
Q 19.53125 -1.421875 13.0625 8.265625 
Q 6.59375 17.96875 6.59375 36.375 
Q 6.59375 54.828125 13.0625 64.515625 
Q 19.53125 74.21875 31.78125 74.21875 
z
" id="DejaVuSans-48"/>
      </defs>
      <g transform="translate(624.11875 329.598437)scale(0.1 -0.1)">
       <use xlink:href="#DejaVuSans-48"/>
      </g>
     </g>
    </g>
    <g id="xtick_6">
     <g id="line2d_6">
      <g>
       <use style="stroke:#000000;stroke-width:0.8;" x="732.7" xlink:href="#m2518ecf58a" y="315"/>
      </g>
     </g>
     <g id="text_6">
      <!-- 1 -->
      <g transform="translate(729.51875 329.598437)scale(0.1 -0.1)">
       <use xlink:href="#DejaVuSans-49"/>
      </g>
     </g>
    </g>
    <g id="xtick_7">
     <g id="line2d_7">
      <g>
       <use style="stroke:#000000;stroke-width:0.8;" x="838.1" xlink:href="#m2518ecf58a" y="315"/>
      </g>
     </g>
     <g id="text_7">
      <!-- 2 -->
      <g transform="translate(834.91875 329.598437)scale(0.1 -0.1)">
       <use xlink:href="#DejaVuSans-50"/>
      </g>
     </g>
    </g>
    <g id="xtick_8">
     <g id="line2d_8">
      <g>
       <use style="stroke:#000000;stroke-width:0.8;" x="943.5" xlink:href="#m2518ecf58a" y="315"/>
      </g>
     </g>
     <g id="text_8">
      <!-- 3 -->
      <g transform="translate(940.31875 329.598437)scale(0.1 -0.1)">
       <use xlink:href="#DejaVuSans-51"/>
      </g>
     </g>
    </g>
    <g id="xtick_9">
     <g id="line2d_9">
      <g>
       <use style="stroke:#000000;stroke-width:0.8;" x="1048.9" xlink:href="#m2518ecf58a" y="315"/>
      </g>
     </g>
     <g id="text_9">
      <!-- 4 -->
      <g transform="translate(1045.71875 329.598437)scale(0.1 -0.1)">
       <use xlink:href="#DejaVuSans-52"/>
      </g>
     </g>
    </g>
   </g>
   <g id="matplotlib.axis_2">
    <g id="ytick_1">
     <g id="line2d_10">
      <defs>
       <path d="M 0 0 
L -3.5 0 
" id="maa30bb0783" style="stroke:#000000;stroke-width:0.8;"/>
      </defs>
      <g>
       <use style="stroke:#000000;stroke-width:0.8;" x="153" xlink:href="#maa30bb0783" y="302.645455"/>
      </g>
     </g>
     <g id="text_10">
      <!-- 0.0 -->
      <defs>
       <path d="M 10.6875 12.40625 
L 21 12.40625 
L 21 0 
L 10.6875 0 
z
" id="DejaVuSans-46"/>
      </defs>
      <g transform="translate(130.096875 306.444673)scale(0.1 -0.1)">
       <use xlink:href="#DejaVuSans-48"/>
       <use x="63.623047" xlink:href="#DejaVuSans-46"/>
       <use x="95.410156" xlink:href="#DejaVuSans-48"/>
      </g>
     </g>
    </g>
    <g id="ytick_2">
     <g id="line2d_11">
      <g>
       <use style="stroke:#000000;stroke-width:0.8;" x="153" xlink:href="#maa30bb0783" y="271.675401"/>
      </g>
     </g>
     <g id="text_11">
      <!-- 0.1 -->
      <g transform="translate(130.096875 275.474619)scale(0.1 -0.1)">
       <use xlink:href="#DejaVuSans-48"/>
       <use x="63.623047" xlink:href="#DejaVuSans-46"/>
       <use x="95.410156" xlink:href="#DejaVuSans-49"/>
      </g>
     </g>
    </g>
    <g id="ytick_3">
     <g id="line2d_12">
      <g>
       <use style="stroke:#000000;stroke-width:0.8;" x="153" xlink:href="#maa30bb0783" y="240.705347"/>
      </g>
     </g>
     <g id="text_12">
      <!-- 0.2 -->
      <g transform="translate(130.096875 244.504566)scale(0.1 -0.1)">
       <use xlink:href="#DejaVuSans-48"/>
       <use x="63.623047" xlink:href="#DejaVuSans-46"/>
       <use x="95.410156" xlink:href="#DejaVuSans-50"/>
      </g>
     </g>
    </g>
    <g id="ytick_4">
     <g id="line2d_13">
      <g>
       <use style="stroke:#000000;stroke-width:0.8;" x="153" xlink:href="#maa30bb0783" y="209.735293"/>
      </g>
     </g>
     <g id="text_13">
      <!-- 0.3 -->
      <g transform="translate(130.096875 213.534512)scale(0.1 -0.1)">
       <use xlink:href="#DejaVuSans-48"/>
       <use x="63.623047" xlink:href="#DejaVuSans-46"/>
       <use x="95.410156" xlink:href="#DejaVuSans-51"/>
      </g>
     </g>
    </g>
    <g id="ytick_5">
     <g id="line2d_14">
      <g>
       <use style="stroke:#000000;stroke-width:0.8;" x="153" xlink:href="#maa30bb0783" y="178.765239"/>
      </g>
     </g>
     <g id="text_14">
      <!-- 0.4 -->
      <g transform="translate(130.096875 182.564458)scale(0.1 -0.1)">
       <use xlink:href="#DejaVuSans-48"/>
       <use x="63.623047" xlink:href="#DejaVuSans-46"/>
       <use x="95.410156" xlink:href="#DejaVuSans-52"/>
      </g>
     </g>
    </g>
    <g id="ytick_6">
     <g id="line2d_15">
      <g>
       <use style="stroke:#000000;stroke-width:0.8;" x="153" xlink:href="#maa30bb0783" y="147.795185"/>
      </g>
     </g>
     <g id="text_15">
      <!-- 0.5 -->
      <defs>
       <path d="M 10.796875 72.90625 
L 49.515625 72.90625 
L 49.515625 64.59375 
L 19.828125 64.59375 
L 19.828125 46.734375 
Q 21.96875 47.46875 24.109375 47.828125 
Q 26.265625 48.1875 28.421875 48.1875 
Q 40.625 48.1875 47.75 41.5 
Q 54.890625 34.8125 54.890625 23.390625 
Q 54.890625 11.625 47.5625 5.09375 
Q 40.234375 -1.421875 26.90625 -1.421875 
Q 22.3125 -1.421875 17.546875 -0.640625 
Q 12.796875 0.140625 7.71875 1.703125 
L 7.71875 11.625 
Q 12.109375 9.234375 16.796875 8.0625 
Q 21.484375 6.890625 26.703125 6.890625 
Q 35.15625 6.890625 40.078125 11.328125 
Q 45.015625 15.765625 45.015625 23.390625 
Q 45.015625 31 40.078125 35.4375 
Q 35.15625 39.890625 26.703125 39.890625 
Q 22.75 39.890625 18.8125 39.015625 
Q 14.890625 38.140625 10.796875 36.28125 
z
" id="DejaVuSans-53"/>
      </defs>
      <g transform="translate(130.096875 151.594404)scale(0.1 -0.1)">
       <use xlink:href="#DejaVuSans-48"/>
       <use x="63.623047" xlink:href="#DejaVuSans-46"/>
       <use x="95.410156" xlink:href="#DejaVuSans-53"/>
      </g>
     </g>
    </g>
    <g id="ytick_7">
     <g id="line2d_16">
      <g>
       <use style="stroke:#000000;stroke-width:0.8;" x="153" xlink:href="#maa30bb0783" y="116.825132"/>
      </g>
     </g>
     <g id="text_16">
      <!-- 0.6 -->
      <defs>
       <path d="M 33.015625 40.375 
Q 26.375 40.375 22.484375 35.828125 
Q 18.609375 31.296875 18.609375 23.390625 
Q 18.609375 15.53125 22.484375 10.953125 
Q 26.375 6.390625 33.015625 6.390625 
Q 39.65625 6.390625 43.53125 10.953125 
Q 47.40625 15.53125 47.40625 23.390625 
Q 47.40625 31.296875 43.53125 35.828125 
Q 39.65625 40.375 33.015625 40.375 
z
M 52.59375 71.296875 
L 52.59375 62.3125 
Q 48.875 64.0625 45.09375 64.984375 
Q 41.3125 65.921875 37.59375 65.921875 
Q 27.828125 65.921875 22.671875 59.328125 
Q 17.53125 52.734375 16.796875 39.40625 
Q 19.671875 43.65625 24.015625 45.921875 
Q 28.375 48.1875 33.59375 48.1875 
Q 44.578125 48.1875 50.953125 41.515625 
Q 57.328125 34.859375 57.328125 23.390625 
Q 57.328125 12.15625 50.6875 5.359375 
Q 44.046875 -1.421875 33.015625 -1.421875 
Q 20.359375 -1.421875 13.671875 8.265625 
Q 6.984375 17.96875 6.984375 36.375 
Q 6.984375 53.65625 15.1875 63.9375 
Q 23.390625 74.21875 37.203125 74.21875 
Q 40.921875 74.21875 44.703125 73.484375 
Q 48.484375 72.75 52.59375 71.296875 
z
" id="DejaVuSans-54"/>
      </defs>
      <g transform="translate(130.096875 120.62435)scale(0.1 -0.1)">
       <use xlink:href="#DejaVuSans-48"/>
       <use x="63.623047" xlink:href="#DejaVuSans-46"/>
       <use x="95.410156" xlink:href="#DejaVuSans-54"/>
      </g>
     </g>
    </g>
    <g id="ytick_8">
     <g id="line2d_17">
      <g>
       <use style="stroke:#000000;stroke-width:0.8;" x="153" xlink:href="#maa30bb0783" y="85.855078"/>
      </g>
     </g>
     <g id="text_17">
      <!-- 0.7 -->
      <defs>
       <path d="M 8.203125 72.90625 
L 55.078125 72.90625 
L 55.078125 68.703125 
L 28.609375 0 
L 18.3125 0 
L 43.21875 64.59375 
L 8.203125 64.59375 
z
" id="DejaVuSans-55"/>
      </defs>
      <g transform="translate(130.096875 89.654296)scale(0.1 -0.1)">
       <use xlink:href="#DejaVuSans-48"/>
       <use x="63.623047" xlink:href="#DejaVuSans-46"/>
       <use x="95.410156" xlink:href="#DejaVuSans-55"/>
      </g>
     </g>
    </g>
    <g id="ytick_9">
     <g id="line2d_18">
      <g>
       <use style="stroke:#000000;stroke-width:0.8;" x="153" xlink:href="#maa30bb0783" y="54.885024"/>
      </g>
     </g>
     <g id="text_18">
      <!-- 0.8 -->
      <defs>
       <path d="M 31.78125 34.625 
Q 24.75 34.625 20.71875 30.859375 
Q 16.703125 27.09375 16.703125 20.515625 
Q 16.703125 13.921875 20.71875 10.15625 
Q 24.75 6.390625 31.78125 6.390625 
Q 38.8125 6.390625 42.859375 10.171875 
Q 46.921875 13.96875 46.921875 20.515625 
Q 46.921875 27.09375 42.890625 30.859375 
Q 38.875 34.625 31.78125 34.625 
z
M 21.921875 38.8125 
Q 15.578125 40.375 12.03125 44.71875 
Q 8.5 49.078125 8.5 55.328125 
Q 8.5 64.0625 14.71875 69.140625 
Q 20.953125 74.21875 31.78125 74.21875 
Q 42.671875 74.21875 48.875 69.140625 
Q 55.078125 64.0625 55.078125 55.328125 
Q 55.078125 49.078125 51.53125 44.71875 
Q 48 40.375 41.703125 38.8125 
Q 48.828125 37.15625 52.796875 32.3125 
Q 56.78125 27.484375 56.78125 20.515625 
Q 56.78125 9.90625 50.3125 4.234375 
Q 43.84375 -1.421875 31.78125 -1.421875 
Q 19.734375 -1.421875 13.25 4.234375 
Q 6.78125 9.90625 6.78125 20.515625 
Q 6.78125 27.484375 10.78125 32.3125 
Q 14.796875 37.15625 21.921875 38.8125 
z
M 18.3125 54.390625 
Q 18.3125 48.734375 21.84375 45.5625 
Q 25.390625 42.390625 31.78125 42.390625 
Q 38.140625 42.390625 41.71875 45.5625 
Q 45.3125 48.734375 45.3125 54.390625 
Q 45.3125 60.0625 41.71875 63.234375 
Q 38.140625 66.40625 31.78125 66.40625 
Q 25.390625 66.40625 21.84375 63.234375 
Q 18.3125 60.0625 18.3125 54.390625 
z
" id="DejaVuSans-56"/>
      </defs>
      <g transform="translate(130.096875 58.684243)scale(0.1 -0.1)">
       <use xlink:href="#DejaVuSans-48"/>
       <use x="63.623047" xlink:href="#DejaVuSans-46"/>
       <use x="95.410156" xlink:href="#DejaVuSans-56"/>
      </g>
     </g>
    </g>
   </g>
   <g id="line2d_19">
    <path clip-path="url(#p262085ff8c)" d="M -1 302.645448 
L 102.732087 302.54586 
L 118.924262 302.325324 
L 129.719045 301.983828 
L 137.815133 301.535977 
L 145.91122 300.828373 
L 151.308612 300.153629 
L 156.706004 299.263987 
L 162.103396 298.104602 
L 167.500787 296.611332 
L 172.898179 294.710665 
L 175.596875 293.582125 
L 178.295571 292.320188 
L 180.994266 290.913351 
L 183.692962 289.349741 
L 186.391658 287.617199 
L 189.090354 285.703379 
L 191.78905 283.595858 
L 194.487746 281.282264 
L 197.186441 278.750425 
L 199.885137 275.988523 
L 202.583833 272.985267 
L 205.282529 269.730082 
L 207.981225 266.213306 
L 210.679921 262.426393 
L 213.378617 258.362129 
L 216.077312 254.014852 
L 218.776008 249.380665 
L 221.474704 244.457657 
L 224.1734 239.246111 
L 226.872096 233.748703 
L 229.570792 227.97069 
L 234.968183 215.607733 
L 240.365575 202.256549 
L 245.762967 188.065544 
L 251.160358 173.233084 
L 270.051229 120.198236 
L 275.448621 106.08097 
L 278.147317 99.418803 
L 280.846013 93.081103 
L 283.544708 87.1117 
L 286.243404 81.552797 
L 288.9421 76.444474 
L 291.640796 71.824207 
L 294.339492 67.726411 
L 297.038188 64.182016 
L 299.736884 61.218076 
L 302.435579 58.857428 
L 305.134275 57.118393 
L 307.832971 56.014549 
L 310.531667 55.554545 
L 313.230363 55.741995 
L 315.929059 56.575425 
L 318.627754 58.048296 
L 321.32645 60.149091 
L 324.025146 62.861459 
L 326.723842 66.164433 
L 329.422538 70.032696 
L 332.121234 74.436907 
L 334.81993 79.344066 
L 337.518625 84.717935 
L 340.217321 90.519471 
L 342.916017 96.707308 
L 345.614713 103.23824 
L 351.012105 117.150364 
L 356.409496 131.892382 
L 377.999063 192.248146 
L 383.396455 206.214302 
L 388.793846 219.292541 
L 394.191238 231.348863 
L 396.889934 236.965255 
L 399.58863 242.297674 
L 402.287326 247.34238 
L 404.986021 252.098105 
L 407.684717 256.565861 
L 410.383413 260.748734 
L 413.082109 264.65167 
L 415.780805 268.281256 
L 418.479501 271.645502 
L 421.178197 274.753627 
L 423.876892 277.615846 
L 426.575588 280.243172 
L 429.274284 282.647221 
L 431.97298 284.840039 
L 434.671676 286.83393 
L 437.370372 288.641312 
L 440.069067 290.274579 
L 442.767763 291.745982 
L 445.466459 293.067524 
L 448.165155 294.250874 
L 453.562547 296.24756 
L 458.959938 297.820206 
L 464.35733 299.044258 
L 469.754722 299.985841 
L 475.152113 300.701729 
L 480.549505 301.239745 
L 488.645593 301.797748 
L 499.440376 302.229128 
L 512.933855 302.484094 
L 534.523422 302.614555 
L 596.593426 302.64535 
L 1225 302.645455 
L 1225 302.645455 
" style="fill:none;stroke:#377eb8;stroke-linecap:square;stroke-width:3;"/>
   </g>
   <g id="line2d_20">
    <path clip-path="url(#p262085ff8c)" d="M -1 302.645455 
L 734.226914 302.552413 
L 750.419089 302.344804 
L 761.213873 302.021899 
L 769.30996 301.597055 
L 777.406048 300.923868 
L 782.80344 300.280429 
L 788.200831 299.430407 
L 793.598223 298.320479 
L 798.995615 296.888082 
L 804.393006 295.061258 
L 807.091702 293.974959 
L 809.790398 292.759027 
L 812.489094 291.402097 
L 815.18779 289.892413 
L 817.886486 288.217902 
L 820.585181 286.366268 
L 823.283877 284.325101 
L 825.982573 282.081996 
L 828.681269 279.624697 
L 831.379965 276.941248 
L 834.078661 274.020163 
L 836.777356 270.850605 
L 839.476052 267.422581 
L 842.174748 263.72715 
L 844.873444 259.756625 
L 847.57214 255.5048 
L 850.270836 250.967162 
L 852.969531 246.141109 
L 855.668227 241.026166 
L 858.366923 235.624186 
L 861.065619 229.939539 
L 866.463011 217.753335 
L 871.860402 204.558883 
L 877.257794 190.496226 
L 882.655186 175.755402 
L 893.449969 145.238538 
L 901.546057 122.649419 
L 906.943448 108.380386 
L 909.642144 101.619417 
L 912.34084 95.167935 
L 915.039536 89.070206 
L 917.738232 83.369035 
L 920.436928 78.105267 
L 923.135623 73.317303 
L 925.834319 69.040636 
L 928.533015 65.307409 
L 931.231711 62.146017 
L 933.930407 59.580746 
L 936.629103 57.631463 
L 939.327798 56.313357 
L 942.026494 55.636748 
L 944.72519 55.606946 
L 947.423886 56.224185 
L 950.122582 57.48362 
L 952.821278 59.375389 
L 955.519974 61.884742 
L 958.218669 64.992232 
L 960.917365 68.673969 
L 963.616061 72.901921 
L 966.314757 77.644273 
L 969.013453 82.865824 
L 971.712149 88.528421 
L 974.410844 94.591423 
L 977.10954 101.012186 
L 982.506932 114.749376 
L 987.904324 129.37768 
L 996.000411 152.200907 
L 1004.096499 175.064644 
L 1009.49389 189.831285 
L 1014.891282 203.929694 
L 1020.288674 217.167544 
L 1025.686065 229.402501 
L 1028.384761 235.112844 
L 1031.083457 240.541056 
L 1033.782153 245.682524 
L 1036.480849 250.535173 
L 1039.179545 255.099271 
L 1041.878241 259.377234 
L 1044.576936 263.373407 
L 1047.275632 267.09385 
L 1049.974328 270.546123 
L 1052.673024 273.73906 
L 1055.37172 276.682567 
L 1058.070416 279.38741 
L 1060.769111 281.865024 
L 1063.467807 284.127329 
L 1066.166503 286.18656 
L 1068.865199 288.055115 
L 1071.563895 289.745407 
L 1074.262591 291.269749 
L 1076.961287 292.640237 
L 1079.659982 293.868662 
L 1085.057374 295.944481 
L 1090.454766 297.582728 
L 1095.852157 298.86037 
L 1101.249549 299.845111 
L 1106.646941 300.595276 
L 1112.044332 301.160147 
L 1120.14042 301.747381 
L 1128.236508 302.11511 
L 1139.031291 302.39217 
L 1155.223466 302.568183 
L 1187.607816 302.640037 
L 1225 302.645296 
L 1225 302.645296 
" style="fill:none;stroke:#ff7f00;stroke-linecap:square;stroke-width:3;"/>
   </g>
   <g id="line2d_21">
    <path clip-path="url(#p262085ff8c)" d="M 46.81637 302.645451 
L 157.835264 302.538222 
L 173.377909 302.320346 
L 184.479798 301.964728 
L 193.36131 301.454621 
L 200.022443 300.867524 
L 206.683577 300.033051 
L 211.124333 299.298863 
L 215.565088 298.388673 
L 220.005844 297.269245 
L 224.4466 295.903476 
L 228.887356 294.250569 
L 233.328111 292.266384 
L 237.768867 289.904017 
L 242.209623 287.114626 
L 246.650378 283.848516 
L 251.091134 280.056514 
L 255.53189 275.6916 
L 259.972646 270.710804 
L 264.413401 265.077312 
L 268.854157 258.762735 
L 273.294913 251.749458 
L 277.735669 244.032992 
L 282.176424 235.624195 
L 286.61718 226.55127 
L 291.057936 216.86139 
L 295.498692 206.621844 
L 299.939447 195.920565 
L 306.600581 179.245433 
L 322.143226 139.922763 
L 326.583982 129.331553 
L 331.024738 119.357069 
L 335.465493 110.180014 
L 337.685871 105.945045 
L 339.906249 101.973428 
L 342.126627 98.28471 
L 344.347005 94.897296 
L 346.567383 91.828296 
L 348.78776 89.09338 
L 351.008138 86.706646 
L 353.228516 84.680499 
L 355.448894 83.025543 
L 357.669272 81.750489 
L 359.88965 80.862078 
L 362.110028 80.365024 
L 364.330406 80.261968 
L 366.550783 80.553459 
L 368.771161 81.237946 
L 370.991539 82.311793 
L 373.211917 83.769314 
L 375.432295 85.602815 
L 377.652673 87.802673 
L 379.873051 90.357409 
L 382.093429 93.253796 
L 384.313806 96.476968 
L 386.534184 100.010551 
L 388.754562 103.836798 
L 390.97494 107.936737 
L 395.415696 116.876642 
L 399.856451 126.660119 
L 404.297207 137.107943 
L 410.958341 153.625531 
L 428.721364 198.513417 
L 433.16212 209.113493 
L 437.602875 219.228951 
L 442.043631 228.7768 
L 446.484387 237.694631 
L 450.925142 245.939926 
L 455.365898 253.48879 
L 459.806654 260.334222 
L 464.24741 266.484056 
L 468.688165 271.958696 
L 473.128921 276.788755 
L 477.569677 281.01272 
L 482.010433 284.674711 
L 486.451188 287.822427 
L 490.891944 290.505305 
L 495.3327 292.772948 
L 499.773456 294.673825 
L 504.214211 296.254245 
L 508.654967 297.557593 
L 513.095723 298.62381 
L 517.536479 299.489081 
L 524.197612 300.479828 
L 530.858746 301.183142 
L 537.519879 301.673696 
L 546.401391 302.095758 
L 557.50328 302.386345 
L 575.266303 302.574534 
L 599.69046 302.635529 
L 599.69046 302.635529 
" style="fill:none;stroke:#377eb8;stroke-linecap:square;stroke-opacity:0.8;stroke-width:2;"/>
   </g>
   <g id="line2d_22">
    <path clip-path="url(#p262085ff8c)" d="M 601.910838 302.63724 
L 704.04822 302.599107 
L 730.692754 302.400764 
L 746.235399 302.071519 
L 757.337288 301.645001 
L 768.439178 300.977221 
L 777.320689 300.213093 
L 786.202201 299.198271 
L 795.083712 297.896852 
L 801.744846 296.718971 
L 808.405979 295.36615 
L 817.287491 293.305303 
L 826.169002 290.996604 
L 839.49127 287.262182 
L 852.813537 283.58818 
L 859.47467 281.93645 
L 866.135804 280.498232 
L 872.796938 279.335528 
L 877.237693 278.739799 
L 881.678449 278.30231 
L 886.119205 278.032205 
L 890.559961 277.935183 
L 895.000716 278.013304 
L 899.441472 278.264909 
L 903.882228 278.684684 
L 908.322983 279.263845 
L 914.984117 280.404531 
L 921.645251 281.824873 
L 928.306384 283.463428 
L 937.187896 285.871444 
L 959.391674 292.052242 
L 968.273186 294.258625 
L 977.154697 296.191393 
L 983.815831 297.440527 
L 990.476965 298.514429 
L 999.358476 299.684336 
L 1008.239988 300.582362 
L 1017.121499 301.248292 
L 1028.223388 301.820726 
L 1041.545656 302.232267 
L 1057.088301 302.475286 
L 1081.512457 302.610044 
L 1145.903415 302.645253 
L 1154.784927 302.645367 
L 1154.784927 302.645367 
" style="fill:none;stroke:#ff7f00;stroke-linecap:square;stroke-opacity:0.2;stroke-width:2;"/>
   </g>
   <g id="line2d_23">
    <path clip-path="url(#p262085ff8c)" d="M 164.171263 302.645445 
L 266.392031 302.54024 
L 282.820369 302.312811 
L 293.772594 301.966562 
L 302.899448 301.455151 
L 310.200932 300.820028 
L 315.677044 300.161329 
L 321.153157 299.301245 
L 326.629269 298.191722 
L 332.105382 296.777787 
L 335.756124 295.635941 
L 339.406865 294.311979 
L 343.057607 292.785378 
L 346.708349 291.034972 
L 350.359091 289.039277 
L 354.009832 286.776882 
L 357.660574 284.226903 
L 361.311316 281.369506 
L 364.962057 278.186479 
L 368.612799 274.661862 
L 372.263541 270.78261 
L 375.914282 266.53928 
L 379.565024 261.926719 
L 383.215766 256.944743 
L 386.866508 251.598774 
L 390.517249 245.900414 
L 394.167991 239.86793 
L 399.644104 230.250074 
L 405.120216 220.055311 
L 412.4217 205.834705 
L 427.024666 177.070011 
L 432.500779 166.915533 
L 436.151521 160.548636 
L 439.802262 154.595263 
L 443.453004 149.130933 
L 447.103746 144.226982 
L 450.754487 139.949016 
L 452.579858 138.063351 
L 454.405229 136.355452 
L 456.2306 134.831282 
L 458.055971 133.496195 
L 459.881342 132.354911 
L 461.706713 131.411484 
L 463.532083 130.669277 
L 465.357454 130.130946 
L 467.182825 129.798424 
L 469.008196 129.672904 
L 470.833567 129.754839 
L 472.658938 130.043933 
L 474.484309 130.539147 
L 476.309679 131.238704 
L 478.13505 132.1401 
L 479.960421 133.240117 
L 481.785792 134.534844 
L 483.611163 136.0197 
L 485.436534 137.689461 
L 487.261905 139.53829 
L 490.912646 143.746947 
L 494.563388 148.588087 
L 498.21413 153.996793 
L 501.864871 159.902259 
L 505.515613 166.229328 
L 510.991726 176.339601 
L 518.293209 190.562495 
L 532.896176 219.322509 
L 538.372288 229.551881 
L 543.848401 239.21359 
L 547.499143 245.279085 
L 551.149884 251.012519 
L 554.800626 256.394816 
L 558.451368 261.413587 
L 562.10211 266.062649 
L 565.752851 270.341451 
L 569.403593 274.25443 
L 573.054335 277.81033 
L 576.705076 281.021498 
L 580.355818 283.903178 
L 584.00656 286.472833 
L 587.657302 288.749486 
L 591.308043 290.753119 
L 594.958785 292.504117 
L 598.609527 294.022779 
L 602.260268 295.328884 
L 605.91101 296.441329 
L 609.561752 297.377823 
L 615.037864 298.487824 
L 618.688606 299.052076 
L 618.688606 299.052076 
" style="fill:none;stroke:#377eb8;stroke-dasharray:7.4,3.2;stroke-dashoffset:0;stroke-opacity:0.65;stroke-width:2;"/>
   </g>
   <g id="line2d_24">
    <path clip-path="url(#p262085ff8c)" d="M 620.513977 299.286144 
L 625.990089 299.811649 
L 631.466202 300.093649 
L 636.942315 300.151866 
L 642.418427 299.996744 
L 647.89454 299.630059 
L 653.370652 299.045805 
L 658.846765 298.231316 
L 664.322877 297.168652 
L 669.79899 295.836221 
L 675.275103 294.21066 
L 680.751215 292.268943 
L 686.227328 289.990691 
L 691.70344 287.360626 
L 697.179553 284.371062 
L 702.655665 281.024323 
L 708.131778 277.33494 
L 713.60789 273.331447 
L 719.084003 269.057613 
L 726.385486 263.043729 
L 746.464566 246.219881 
L 751.940678 242.045559 
L 755.59142 239.472557 
L 759.242162 237.10557 
L 762.892903 234.975409 
L 766.543645 233.110501 
L 770.194387 231.536261 
L 773.845129 230.274512 
L 777.49587 229.34299 
L 781.146612 228.754921 
L 784.797354 228.518715 
L 788.448095 228.637762 
L 792.098837 229.110353 
L 795.749579 229.929719 
L 799.400321 231.084195 
L 803.051062 232.557495 
L 806.701804 234.329093 
L 810.352546 236.374701 
L 814.003287 238.666822 
L 817.654029 241.175362 
L 823.130142 245.273521 
L 828.606254 249.673523 
L 837.733109 257.369354 
L 848.685334 266.598981 
L 855.986817 272.415467 
L 861.46293 276.484806 
L 866.939042 280.249492 
L 872.415155 283.678322 
L 877.891267 286.754707 
L 883.36738 289.475094 
L 888.843492 291.846997 
L 894.319605 293.886819 
L 899.795718 295.617614 
L 905.27183 297.066946 
L 910.747943 298.264942 
L 916.224055 299.242607 
L 921.700168 300.03046 
L 929.001651 300.835446 
L 936.303135 301.416449 
L 945.429989 301.908107 
L 956.382214 302.261552 
L 970.985181 302.495103 
L 994.715002 302.61763 
L 1064.079094 302.645392 
L 1075.03132 302.645434 
L 1075.03132 302.645434 
" style="fill:none;stroke:#ff7f00;stroke-dasharray:7.4,3.2;stroke-dashoffset:0;stroke-opacity:0.35;stroke-width:2;"/>
   </g>
   <g id="line2d_25">
    <path clip-path="url(#p262085ff8c)" d="M 303.63992 302.64523 
L 376.782112 302.537737 
L 394.390417 302.288377 
L 405.226298 301.939188 
L 414.707693 301.406369 
L 421.480118 300.830418 
L 428.252543 300.03023 
L 433.670483 299.184032 
L 439.088423 298.112077 
L 444.506364 296.770378 
L 448.569819 295.558553 
L 452.633274 294.147214 
L 456.696729 292.514898 
L 460.760184 290.640196 
L 464.823639 288.502301 
L 468.887094 286.081628 
L 472.950549 283.360513 
L 477.014005 280.323954 
L 481.07746 276.960386 
L 485.140915 273.262461 
L 489.20437 269.227804 
L 493.267825 264.859706 
L 497.33128 260.167724 
L 501.394735 255.168141 
L 506.812675 248.064855 
L 512.230616 240.531851 
L 519.003041 230.660207 
L 542.029287 196.559999 
L 547.447227 189.225416 
L 551.510682 184.075319 
L 555.574137 179.277864 
L 559.637592 174.871182 
L 563.701047 170.884145 
L 567.764502 167.335452 
L 570.473472 165.217576 
L 573.182442 163.297982 
L 575.891413 161.574236 
L 578.600383 160.041856 
L 581.309353 158.694417 
L 584.018323 157.523697 
L 586.727293 156.519851 
L 590.790748 155.302021 
L 594.854203 154.391392 
L 598.917658 153.741387 
L 602.981113 153.303705 
L 608.399053 152.968226 
L 615.171479 152.803074 
L 630.070814 152.768623 
L 640.906694 152.823054 
L 640.906694 152.823054 
" style="fill:none;stroke:#377eb8;stroke-dasharray:12.8,3.2,2,3.2;stroke-dashoffset:0;stroke-opacity:0.5;stroke-width:2;"/>
   </g>
   <g id="line2d_26">
    <path clip-path="url(#p262085ff8c)" d="M 642.261179 152.847933 
L 649.033605 153.113821 
L 654.451545 153.588621 
L 658.515 154.169195 
L 662.578455 154.995843 
L 666.64191 156.115899 
L 669.35088 157.047569 
L 672.05985 158.141161 
L 674.76882 159.407188 
L 677.47779 160.854633 
L 680.186761 162.490759 
L 682.895731 164.320944 
L 685.604701 166.348565 
L 688.313671 168.574905 
L 692.377126 172.284551 
L 696.440581 176.426958 
L 700.504036 180.979643 
L 704.567491 185.910244 
L 708.630946 191.17755 
L 714.048887 198.639267 
L 719.466827 206.481002 
L 728.948222 220.686155 
L 738.429617 234.838519 
L 745.202042 244.51849 
L 750.619983 251.837526 
L 754.683438 257.02113 
L 758.746893 261.911139 
L 762.810348 266.486823 
L 766.873803 270.734389 
L 770.937258 274.646621 
L 775.000713 278.222364 
L 779.064168 281.465887 
L 783.127624 284.38616 
L 787.191079 286.99609 
L 791.254534 289.311735 
L 795.317989 291.351543 
L 799.381444 293.135619 
L 803.444899 294.685059 
L 807.508354 296.021349 
L 811.571809 297.165854 
L 816.98975 298.429371 
L 822.40769 299.435543 
L 827.82563 300.227222 
L 834.598055 300.973164 
L 842.724965 301.594376 
L 852.206361 302.05211 
L 864.396726 302.374193 
L 880.650546 302.557546 
L 911.803702 302.63768 
L 979.527954 302.645443 
L 979.527954 302.645443 
" style="fill:none;stroke:#ff7f00;stroke-dasharray:12.8,3.2,2,3.2;stroke-dashoffset:0;stroke-opacity:0.5;stroke-width:2;"/>
   </g>
   <g id="line2d_27">
    <path clip-path="url(#p262085ff8c)" d="M 176.227014 302.64544 
L 277.585928 302.545615 
L 296.014821 302.310535 
L 308.915047 301.918869 
L 318.129493 301.427581 
L 325.501051 300.844532 
L 332.872608 300.033952 
L 338.401276 299.238545 
L 343.929944 298.249521 
L 349.458612 297.035468 
L 354.98728 295.564483 
L 360.515948 293.805621 
L 366.044616 291.730659 
L 371.573284 289.316153 
L 377.101952 286.545693 
L 382.63062 283.412246 
L 388.159288 279.920433 
L 393.687956 276.08857 
L 399.216624 271.950272 
L 404.745292 267.555438 
L 412.11685 261.413598 
L 428.702854 247.466235 
L 434.231522 243.161892 
L 437.9173 240.48858 
L 441.603079 238.012049 
L 445.288858 235.76479 
L 448.974636 233.777086 
L 452.660415 232.076338 
L 456.346194 230.686434 
L 460.031973 229.627196 
L 463.717751 228.913902 
L 467.40353 228.556928 
L 471.089309 228.561491 
L 474.775087 228.927524 
L 478.460866 229.649677 
L 482.146645 230.717448 
L 485.832423 232.115436 
L 489.518202 233.823714 
L 493.203981 235.818293 
L 496.889759 238.071693 
L 500.575538 240.553562 
L 506.104206 244.63314 
L 511.632874 249.037878 
L 519.004431 255.213938 
L 533.747546 267.629081 
L 539.276214 272.018869 
L 544.804882 276.150408 
L 550.33355 279.973674 
L 555.862218 283.454715 
L 561.390886 286.574574 
L 566.919554 289.327551 
L 572.448222 291.719006 
L 577.97689 293.762867 
L 583.505558 295.479021 
L 589.034226 296.890724 
L 594.562894 298.022136 
L 600.091562 298.896051 
L 605.62023 299.531875 
L 611.148898 299.943863 
L 616.677566 300.139616 
L 622.206234 300.118852 
L 627.734902 299.872429 
L 633.26357 299.381653 
L 635.10646 299.159102 
L 635.10646 299.159102 
" style="fill:none;stroke:#377eb8;stroke-dasharray:2,3.3;stroke-dashoffset:0;stroke-opacity:0.35;stroke-width:2;"/>
   </g>
   <g id="line2d_28">
    <path clip-path="url(#p262085ff8c)" d="M 636.949349 298.904994 
L 642.478017 297.938421 
L 646.163796 297.106848 
L 649.849574 296.107572 
L 653.535353 294.923359 
L 657.221132 293.53556 
L 660.906911 291.924391 
L 664.592689 290.06927 
L 668.278468 287.949224 
L 671.964247 285.543365 
L 675.650025 282.831427 
L 679.335804 279.794371 
L 683.021583 276.415037 
L 686.707361 272.678842 
L 690.39314 268.574513 
L 694.078919 264.094821 
L 697.764697 259.237315 
L 701.450476 254.005026 
L 705.136255 248.407105 
L 708.822033 242.459395 
L 712.507812 236.184874 
L 718.03648 226.228991 
L 723.565148 215.742911 
L 730.936705 201.240303 
L 741.994041 179.428461 
L 747.522709 169.045407 
L 751.208488 162.501214 
L 754.894267 156.353785 
L 758.580046 150.681837 
L 762.265824 145.560231 
L 765.951603 141.05834 
L 767.794492 139.059581 
L 769.637382 137.23849 
L 771.480271 135.601523 
L 773.32316 134.154522 
L 775.16605 132.902686 
L 777.008939 131.850535 
L 778.851828 131.001887 
L 780.694718 130.359832 
L 782.537607 129.926715 
L 784.380496 129.704123 
L 786.223386 129.69287 
L 788.066275 129.892998 
L 789.909164 130.303773 
L 791.752054 130.923691 
L 793.594943 131.750489 
L 795.437832 132.781153 
L 797.280722 134.011943 
L 799.123611 135.438411 
L 800.9665 137.05543 
L 802.80939 138.857224 
L 804.652279 140.837403 
L 808.338058 145.304508 
L 812.023836 150.394837 
L 815.709615 156.039356 
L 819.395394 162.163454 
L 823.081172 168.688581 
L 828.60984 179.051177 
L 835.981398 193.516239 
L 847.038734 215.36388 
L 852.567402 225.866227 
L 858.09607 235.844116 
L 861.781849 242.135889 
L 865.467627 248.10251 
L 869.153406 253.720684 
L 872.839185 258.974298 
L 876.524963 263.853983 
L 880.210742 268.35656 
L 883.896521 272.484409 
L 887.582299 276.244783 
L 891.268078 279.649088 
L 894.953857 282.712158 
L 898.639635 285.451541 
L 902.325414 287.886826 
L 906.011193 290.039001 
L 909.696971 291.929878 
L 913.38275 293.581581 
L 917.068529 295.0161 
L 920.754307 296.254917 
L 924.440086 297.3187 
L 929.968754 298.628772 
L 935.497422 299.649794 
L 941.02609 300.435731 
L 948.397648 301.197694 
L 955.769205 301.715294 
L 964.983652 302.124937 
L 977.883877 302.426094 
L 996.31277 302.587923 
L 1036.856336 302.643486 
L 1095.828795 302.645449 
L 1095.828795 302.645449 
" style="fill:none;stroke:#ff7f00;stroke-dasharray:2,3.3;stroke-dashoffset:0;stroke-opacity:0.65;stroke-width:2;"/>
   </g>
   <g id="line2d_29">
    <path clip-path="url(#p262085ff8c)" d="M 107.231926 302.645278 
L 189.698374 302.540032 
L 209.229902 302.310604 
L 222.25092 301.975074 
L 233.101768 301.504433 
L 241.782447 300.951835 
L 250.463126 300.198905 
L 259.143805 299.205846 
L 267.824484 297.939144 
L 276.505162 296.378325 
L 285.185841 294.523259 
L 293.86652 292.400859 
L 304.717369 289.464371 
L 326.419066 283.430958 
L 332.929575 281.830696 
L 339.440084 280.438675 
L 345.950593 279.312399 
L 352.461102 278.500327 
L 356.801441 278.151864 
L 361.141781 277.966342 
L 365.48212 277.947511 
L 369.82246 278.095755 
L 374.162799 278.408071 
L 378.503138 278.878177 
L 385.013648 279.857963 
L 391.524157 281.12827 
L 398.034666 282.635495 
L 406.715345 284.908322 
L 437.09772 293.252128 
L 445.778399 295.276068 
L 454.459078 297.018675 
L 463.139757 298.464215 
L 471.820436 299.621559 
L 480.501115 300.517094 
L 489.181793 301.187513 
L 500.032642 301.770897 
L 513.05366 302.197594 
L 528.244848 302.455545 
L 552.116715 302.603755 
L 608.541127 302.644811 
L 647.604182 302.64016 
L 647.604182 302.64016 
" style="fill:none;stroke:#377eb8;stroke-linecap:square;stroke-opacity:0.2;stroke-width:2;"/>
   </g>
   <g id="line2d_30">
    <path clip-path="url(#p262085ff8c)" d="M 649.774351 302.639062 
L 686.667236 302.522691 
L 701.858424 302.285753 
L 712.709273 301.908688 
L 721.389952 301.377267 
L 727.900461 300.773303 
L 734.41097 299.923567 
L 738.751309 299.181751 
L 743.091649 298.26756 
L 747.431988 297.149488 
L 751.772327 295.792513 
L 756.112667 294.15826 
L 760.453006 292.205337 
L 764.793346 289.889857 
L 769.133685 287.166189 
L 773.474025 283.987929 
L 777.814364 280.309121 
L 782.154703 276.08571 
L 786.495043 271.277222 
L 790.835382 265.848629 
L 795.175722 259.772362 
L 799.516061 253.030407 
L 803.8564 245.6164 
L 808.19674 237.537645 
L 812.537079 228.816938 
L 816.877419 219.494095 
L 821.217758 209.627086 
L 825.558097 199.292659 
L 832.068607 183.128633 
L 849.429964 139.223837 
L 853.770304 128.89938 
L 858.110643 119.171404 
L 862.450982 110.208513 
L 864.621152 106.064856 
L 866.791322 102.172221 
L 868.961491 98.548898 
L 871.131661 95.212145 
L 873.301831 92.178046 
L 875.472001 89.461385 
L 877.64217 87.075525 
L 879.81234 85.032297 
L 881.98251 83.341906 
L 884.152679 82.012844 
L 886.322849 81.051817 
L 888.493019 80.463691 
L 890.663189 80.251454 
L 892.833358 80.416182 
L 895.003528 80.957039 
L 897.173698 81.871279 
L 899.343867 83.15427 
L 901.514037 84.799535 
L 903.684207 86.798803 
L 905.854376 89.142082 
L 908.024546 91.81774 
L 910.194716 94.812602 
L 912.364886 98.112055 
L 914.535055 101.700174 
L 916.705225 105.559841 
L 921.045564 114.020234 
L 925.385904 123.337833 
L 929.726243 133.34743 
L 934.066583 143.878841 
L 940.577092 160.282611 
L 953.59811 193.303429 
L 960.108619 208.988484 
L 964.448958 218.887425 
L 968.789298 228.246479 
L 973.129637 237.006507 
L 977.469977 245.126576 
L 981.810316 252.582859 
L 986.150655 259.367127 
L 990.490995 265.48494 
L 994.831334 270.953638 
L 999.171674 275.800252 
L 1003.512013 280.059399 
L 1007.852352 283.771267 
L 1012.192692 286.979738 
L 1016.533031 289.730692 
L 1020.873371 292.070543 
L 1025.21371 294.045004 
L 1029.55405 295.698094 
L 1033.894389 297.071382 
L 1038.234728 298.203445 
L 1042.575068 299.129522 
L 1046.915407 299.881341 
L 1053.425916 300.74304 
L 1059.936425 301.35594 
L 1068.617104 301.895657 
L 1079.467953 302.278999 
L 1092.488971 302.498694 
L 1114.190668 302.617571 
L 1179.295759 302.645385 
L 1190.146608 302.645433 
L 1190.146608 302.645433 
" style="fill:none;stroke:#ff7f00;stroke-linecap:square;stroke-opacity:0.8;stroke-width:2;"/>
   </g>
  </g>
 </g>
 <defs>
  <clipPath id="p262085ff8c">
   <rect height="271.8" width="948.6" x="153" y="43.2"/>
  </clipPath>
 </defs>
</svg>
